/* XPM */
static char *_0148_a31bb58d6345e8b4903d3246d031d5ef78e0dabdc0da8b8a4fa03971e0950767[] = {
/* columns rows colors chars-per-pixel */
"60 60 176 2 ",
"   c #000001",
".  c #020D05",
"X  c #0E0805",
"o  c #1A0F0C",
"O  c #160E0A",
"+  c #031005",
"@  c #051905",
"#  c #041F0B",
"$  c #141213",
"%  c #091116",
"&  c #2B180C",
"*  c #062107",
"=  c #06290B",
"-  c #082908",
";  c #05220C",
":  c #10290B",
">  c #0A320A",
",  c #09380E",
"<  c #1A310F",
"1  c #062E10",
"2  c #073311",
"3  c #093411",
"4  c #083D15",
"5  c #073913",
"6  c #1B3E13",
"7  c #333300",
"8  c #3E2D19",
"9  c #362617",
"0  c #001721",
"q  c #14272D",
"w  c #233127",
"e  c #2F2925",
"r  c #41241C",
"t  c #65391C",
"y  c #4A2920",
"u  c #0D420D",
"i  c #1A420F",
"p  c #0A4011",
"a  c #0D4911",
"s  c #0A4D1A",
"d  c #134E10",
"f  c #194912",
"g  c #0E5215",
"h  c #0D5C1D",
"j  c #0E5718",
"k  c #1C5715",
"l  c #1A5A14",
"z  c #135117",
"x  c #2B560A",
"c  c #205215",
"v  c #38590D",
"b  c #0F651F",
"n  c #156A1E",
"m  c #226918",
"M  c #27731B",
"N  c #2E7F1F",
"B  c #317A1F",
"V  c #0B512B",
"C  c #3A5A23",
"Z  c #0E6B23",
"A  c #0D6520",
"S  c #0F7326",
"D  c #0F7728",
"F  c #137324",
"G  c #107B29",
"H  c #1D7626",
"J  c #2E6124",
"K  c #346525",
"L  c #227D24",
"P  c #317222",
"I  c #404116",
"U  c #55571F",
"Y  c #66411E",
"T  c #785A1A",
"R  c #435721",
"E  c #45592F",
"W  c #595725",
"Q  c #52543E",
"!  c #6A4A21",
"~  c #734120",
"^  c #764A25",
"/  c #655A26",
"(  c #7F5028",
")  c #65503C",
"_  c #537F26",
"`  c #586D3C",
"'  c #606523",
"]  c #736028",
"[  c #7F7937",
"{  c #7B623B",
"}  c #1E3448",
"|  c #09604A",
" . c #315273",
".. c #2B4865",
"X. c #086F67",
"o. c #387266",
"O. c #605648",
"+. c #627847",
"@. c #4C657D",
"#. c #804E26",
"$. c #85562C",
"%. c #8E5C2C",
"&. c #905E2E",
"*. c #845634",
"=. c #8B5E30",
"-. c #926622",
";. c #906C38",
":. c #A07538",
">. c #A47B41",
",. c #168029",
"<. c #1C8529",
"1. c #1F8829",
"2. c #288F29",
"3. c #228A29",
"4. c #348B22",
"5. c #398F24",
"6. c #318520",
"7. c #2E9429",
"8. c #359A29",
"9. c #3B9F29",
"0. c #399525",
"q. c #458B19",
"w. c #70BB1F",
"e. c #4D8226",
"r. c #728F35",
"t. c #41A429",
"y. c #69804F",
"u. c #909201",
"i. c #93A805",
"p. c #A0A702",
"a. c #A5B607",
"s. c #BABA00",
"d. c #8B853B",
"f. c #BD9F2F",
"g. c #B6843F",
"h. c #89B025",
"j. c #B4AE3B",
"k. c #D1BD20",
"l. c #C6AC28",
"z. c #A0D114",
"x. c #DFDF00",
"c. c #E0E801",
"v. c yellow",
"b. c #FBF50A",
"n. c #AA824A",
"m. c #A3A942",
"M. c #AF8863",
"N. c #BC9767",
"B. c #B9936E",
"V. c #BC9770",
"C. c #A99067",
"Z. c #BCA67B",
"A. c #C19648",
"S. c #CFA04E",
"D. c #DEAC52",
"F. c #067E86",
"G. c #5E7388",
"H. c #657C92",
"J. c #2B8CAA",
"K. c #039CC2",
"L. c #00BAFF",
"P. c #BFAC8E",
"I. c #B5B49F",
"U. c #A8AEA9",
"Y. c #B6A8A0",
"T. c #D5B48B",
"R. c #DCBC95",
"E. c #C8B692",
"W. c #E6C99D",
"Q. c #CCC1AA",
"!. c #E1D1A7",
"~. c #FFE6BD",
"^. c gray87",
"/. c #E1EFE4",
"(. c #E5E8ED",
"). c None",
/* pixels */
").).).).).).).).).).).).).).).).).).).).).).).).).).).).).).).).).).).).).).).).).).).).).).).).).).).).).).).).).).).).",
").).).).).).).).).).).).).).).).).).).).).).).).).).).).).).).).).).).).).).).).).).).).).).).).).).).).).).).).).).).).",
").).).).).).).).).).).).).).).).).).).).).).).).).).).).).).).).).).).).).).).).).).).).).).).).).).).).).).).).).).).).",
").).).).).).).).).).).).).).).).).).).).).).).).).).).).).).).).).).).).).).).).).).).).).).).).).).).).).).).).).).).).",
").).).).).).).).).).).).).).).).).).).).).).).).).).).).).).).).).).).).).).).).).).).).).).).).).).).).).).).).).).).).",
").).).).).).).).).).).).).).).).).).).).).).).).).).).).).).).).).).).).).).).).).).).).).).).).).).).).).).).).).).).).",
").).).).).).).).).).).).).).).).).).).).).).).).).).).).).).).).).).).).).).).).).).).).).).).).).).).).).).).).).).).).",
").).).).).).).).).).).).).).).).).).).).).).).).).).).).).).).).).).).).).).).).).).).).).).).).).).).).).).).).).).).).",
").).).).).).).).).).).).).).).).).).).).).).).).).).).).).).).).).).).).).).).).).).).).).).).).).).).).).).).).).).).).",
").).).).).).).).).).).).).).).).).).).).).).).~ t ;.:.g.>.>.n.O   ).).).).).).).).).).).).).).).).).).).).).).).).).).).",
").).).).).).).).).).).).).).).).).).).).).).).] / ;.d.d.d.d.d.< : ).).).).).).).).).).).).).).).).).).).).).).).).).).).",
").).).).).).).).).).).).).).).).).).).).).).>.r.t.t.t.t.t.t.t.t.t.    ).).).).).).).).).).).).).).).).).).).).).).).).).",
").).).).).).).).).).).).).).).).).).).).>.f.k.h.t.6.M M M M M M M k f   ).).).).).).).).).).).).).).).).).).).).).).).).",
").).).).).).).).).).).).).).).).).).).).>.l.v.z.t.m u u u u u u u t.5.    ).).).).).).).).).).).).).).).).).).).).).).).",
").).).).).).).).).).).).).).).).).).~ &.S.j.w.q.l M 4.4.4.4.4.4.4.l k B B     ).).).).).).).).).).).).).).).).).).).).).",
").).).).).).).).).).).).).).).).).).~ %.S.j.t.M u N t.t.t.t.t.t.t.u d t.5.    ).).).).).).).).).).).).).).).).).).).).).",
").).).).).).).).).).).).).).).).).).~ W G b u M t.t.t.t.t.t.t.t.t.t.0.a u u >     ).).).).).).).).).).).).).).).).).).).",
").).).).).).).).).).).).).).).).).).( / G A u m 4.0.t.t.t.t.t.t.t.4.P l l g 4     ).).).).).).).).).).).).).).).).).).).",
").).).).).).).).).).).).).).).).).).>.[ G A u u u 6.t.t.t.t.t.t.t.u d t.9.G h     ).).).).).).).).).).).).).).).).).).).",
").).).).).).).).).).).).).).).).~ ! W R 4 z M M M 5.t.t.t.t.t.t.t.M M c k G h     ).).).).).).).).).).).).).).).).).).).",
").).).).).).).).).).).).).).).).~ ! u >   6 t.t.t.t.t.t.t.t.t.t.t.t.5.  + G h     ).).).).).).).).).).).).).).).).).).).",
").).).).).).).).).).).).).).>.>.B.C.u >   > <.7.t.t.t.t.t.t.t.t.t.<.F   + G A > E T.N.>.).).).).).).).).).).).).).).).).",
").).).).).).).).).).).).).).:.n.T.P., >   2 G 2.t.t.t.t.t.t.t.t.t.G Z   + G Z u ` T.N.>.>.).).).).).).).).).).).).).).).",
").).).).).).).).).).).).~ ~ ~.~.~.!.u >   = G 2.t.t.t.t.t.t.t.G G   + G G G n u y.~.~.~.B.~ ).).).).).).).).).).).).).).",
").).).).).).).).).).).).~ ~ R.R.W.E.u > + 2 h L 8.9.t.t.t.9.8.F Z   . G G Z b u +.W.W.R.M.~ ).).).).).).).).).).).).).).",
").).).).).).).).).).).).).).~ ^ g.;.u u u =   4 G 7.t.t.t.<.G a u   + G F u u u R :.=.~ ~ ).).).).).).).).).).).).).).).",
").).).).).).).).).).).).).).~ ^ =.{ F.X.u =   4 G 1.2.2.2.n h = * * - b h u V F.o.=.$.~ ).).).).).).).).).).).).).).).).",
").).).).).).).).).).).).).).).).Y ) L.K.u -   4 G G G G G a u .   u u u u u | L.J.~ ~ ).).).).).).).).).).).).).).).).).",
").).).).).).).).).).).).).).).).).).0 R c.u.  4 G G G G G ; . > , u i Y T c.p.0 % ).).).).).).).).).).).).).).).).).).).",
").).).).).).).).).).).).).).).).).).  7 x.u.  4 G G G S S ;   x x x v #.-.c.s.    ).).).).).).).).).).).).).).).).).).).",
").).).).).).).).).).).).).).).).).).).).      4 G G G j u .   x.v.v.b.D.A.    ).).).).).).).).).).).).).).).).).).).).).",
").).).).).).).).).).).).).).).).).).).).      2 b b b p - * @ i.a.a.a.n.:.    ).).).).).).).).).).).).).).).).).).).).).",
").).).).).).).).).).).).).).).).).).).).      ; p u u @   > u u u u i ~ t     ).).).).).).).).).).).).).).).).).).).).).",
").).).).).).).).).).).).).).).).).).  ; s s s 2 @ @ @ 3 s h A b b u f K J s 4   ).).).).).).).).).).).).).).).).).).).).",
").).).).).).).).).).).).).).).).).).  # G G G 4       s G G G G G u a G G G h     ).).).).).).).).).).).).).).).).).).).",
").).).).).).).).).).).).).).).).  % ..G./.I.! C Z Z Z S G G G G G S A . w /.U.    ).).).).).).).).).).).).).).).).).).).",
").).).).).).).).).).).).).).).).X $ G.H.(.Y.t C G G G G G G G G G G Z X e ^.U.    ).).).).).).).).).).).).).).).).).).).",
").).).).).).).).).).).).).).  X ~ *.~.I. .}   4 G G G G G G G G G G H ~ t         ).).).).).).).).).).).).).).).).).).).",
").).).).).).).).).).).).).).  X ~ *.~.E.} q @ 6 K K K K K K K K K K K ' W       ).).).).).).).).).).).).).).).).).).).).",
").).).).).).).).).).).).).).  X ~ *.~.E.  @ u I ~ ~ ~ ~ ~ ~ ~ ~ ~ ~ ! t.5.    ).).).).).).).).).).).).).).).).).).).).).",
").).).).).).).).).).).).).).).).& 9 O.Q = p b P _ _ _ e._ _ _ _ _ _ e.3.H     ).).).).).).).).).).).).).).).).).).).).).",
").).).).).).).).).).).).).).).).      . u j G 2.t.t.t.t.t.t.t.t.t.t.9.G Z     ).).).).).).).).).).).).).).).).).).).).).",
").).).).).).).).).).).).).).).).).).).).. 2 G 2.t.t.t.t.t.t.t.t.t.G F + @ ).).).).).).).).).).).).).).).).).).).).).).).",
").).).).).).).).).).).).).).).).).).).).  = Z L 5.5.5.5.5.5.5.5.5.Z h     ).).).).).).).).).).).).).).).).).).).).).).).",
").).).).).).).).).).).).).).).).).).).).).).                              ).).).).).).).).).).).).).).).).).).).).).).).",
").).).).).).).).).).).).).).).).).).).).).).                  o o r 8 r 9 ).).).).).).).).).).).).).).).).).).).).).).).",
").).).).).).).).).).).).).).).).).).).).).).).).).).).).).    y y n.n.g.;.    ).).).).).).).).).).).).).).).).).).).).).",
").).).).).).).).).).).).).).).).).).).).).).).).).).).).).).).o O ( ( ( ^     ).).).).).).).).).).).).).).).).).).).).).",
").).).).).).).).).).).).).).).).).).).).).).).).).).).).).).).  . ~ ~ ~ t     ).).).).).).).).).).).).).).).).).).).).).",
").).).).).).).).).).).).).).).).).).).).).).).).).).).).).).).).).        ).).).).).).).).).).).).).).).).).).).).).).).",
").).).).).).).).).).).).).).).).).).).).).).).).).).).).).).).).).        ).).).).).).).).).).).).).).).).).).).).).).).",
").).).).).).).).).).).).).).).).).).).).).).).).).).).).).).).).).).).).).).).).).).).).).).).).).).).).).).).).).).).).",
").).).).).).).).).).).).).).).).).).).).).).).).).).).).).).).).).).).).).).).).).).).).).).).).).).).).).).).).).).).).",
").).).).).).).).).).).).).).).).).).).).).).).).).).).).).).).).).).).).).).).).).).).).).).).).).).).).).).).).).).).).",
").).).).).).).).).).).).).).).).).).).).).).).).).).).).).).).).).).).).).).).).).).).).).).).).).).).).).).).).).).).).",
").).).).).).).).).).).).).).).).).).).).).).).).).).).).).).).).).).).).).).).).).).).).).).).).).).).).).).).).).).).).",
").).).).).).).).).).).).).).).).).).).).).).).).).).).).).).).).).).).).).).).).).).).).).).).).).).).).).).).).).).).).",
").).).).).).).).).).).).).).).).).).).).).).).).).).).).).).).).).).).).).).).).).).).).).).).).).).).).).).).).).).).).",
").).).).).).).).).).).).).).).).).).).).).).).).).).).).).).).).).).).).).).).).).).).).).).).).).).).).).).).).).).).).",
").).).).).).).).).).).).).).).).).).).).).).).).).).).).).).).).).).).).).).).).).).).).).).).).).).).).).).).).).).).)."
};
