/* XPM */
static char *_5326_66c8408d7b285a251db84c0d3aa4dfb7d539b2654a31f1b6cc151ef817c69fc5[] = {
/* columns rows colors chars-per-pixel */
"60 60 90 1 ",
"  c black",
". c #010000",
"X c #070707",
"o c #090401",
"O c #0C0C0C",
"+ c gray5",
"@ c #110902",
"# c #120802",
"$ c #140B05",
"% c #131313",
"& c gray8",
"* c #151515",
"= c gray10",
"- c gray11",
"; c #231104",
": c #231105",
"> c #2B1606",
", c #2C1605",
"< c #26160A",
"1 c #26170A",
"2 c #341A07",
"3 c #3C1E08",
"4 c #251C13",
"5 c #3E210B",
"6 c #322314",
"7 c #382310",
"8 c #3A2513",
"9 c #3A2613",
"0 c #3B2816",
"q c gray13",
"w c #232323",
"e c #272727",
"r c #2B2825",
"t c #2D2D2D",
"y c gray18",
"u c #36322F",
"i c #3F362D",
"p c #343434",
"a c gray23",
"s c #452209",
"d c #4E270B",
"f c #562B0B",
"g c #4D3118",
"h c #67330E",
"j c #68340E",
"k c #6E3F1A",
"l c #793C11",
"z c #7A3C11",
"x c #463D37",
"c c #443F3C",
"v c #654729",
"b c #6E4C2B",
"n c #78532F",
"m c #414141",
"M c gray26",
"N c gray28",
"B c #484848",
"V c gray30",
"C c #4E4E4E",
"Z c gray31",
"A c #505050",
"S c #515150",
"D c #515151",
"F c #555555",
"G c #5B5B5B",
"H c gray36",
"J c #626262",
"K c #676767",
"L c #686868",
"P c DimGray",
"I c #824112",
"U c SaddleBrown",
"Y c #804B20",
"T c #835126",
"R c #86552C",
"E c #86562C",
"W c #86572C",
"Q c #88592F",
"! c #935625",
"~ c #945625",
"^ c #975C2B",
"/ c #835A33",
"( c #8B5F35",
") c #8E653B",
"_ c #8F653B",
"` c #9A6231",
"' c #9D6737",
"] c #97693B",
"[ c #A06D3D",
"{ c None",
/* pixels */
"{{{{{{{{{{{{{{{{{{{{{{{{{{{{{{{{{{{{{{{{{{{{{{{{{{{{{{{{{{{{",
"{{{{{{{{{{{{{{{{{{{{{{{{{{{{{{{{{{{{{{{{{{{{{{{{{{{{{{{{{{{{",
"{{{{{{{{{{{{{{{{{{{{{{{{{{{{{{{{{{{{{{{{{{{{{{{{{{{{{{{{{{{{",
"{{{{{{{{{{{{{{{{{{{{{{{{{{{        {{{{{{{{{{{{{{{{{{{{{{{{{",
"{{{{{{{{{{{{{{{{{{{{{{{   t=+ppp=+pO  {{{{{{{{{{{{{{{{{{{{{{",
"{{{{{{{{{{{{{{{{{{{{   %ppHZppPMpmPapq   {{{{{{{{{{{{{{{{{{{",
"{{{{{{{{{{{{{{{{{{{OppppaPPPHpppZPPPBpppp-{{{{{{{{{{{{{{{{{{",
"{{{{{{{{{{{{{{{{{{*yPPPZeMMMMM tMMMMpmPPPMw{{{{{{{{{{{{{{{{{",
"{{{{{{{{{{{{{{{{{ ePPPPHa 672220722oeZPPPZpw{{{{{{{{{{{{{{{{",
"{{{{{{{{{{{{{{{{&=pZPFZu;;/^UUU'^UU,1iZZZeaH={{{{{{{{{{{{{{{",
"{{{{{{{{{{{{{{{ GPBeZ41dUU'^UUU'^UUU`b;;omPPP= {{{{{{{{{{{{{",
"{{{{{{{{{{{{{{{=JPJM;]~UUU'^UUU'^UUU``UU,xFPP= {{{{{{{{{{{{{",
"{{{{{{{{{{{{{ =PPPM@U[~UUU'^UUU'^UUU``UUU2ePGeX {{{{{{{{{{{{",
"{{{{{{{{{{{{{ &GPJc:U[~UUU'^UUU'^UUU``UUU5rC+Zp {{{{{{{{{{{{",
"{{{{{{{{{{{{{   Ge2UU[~UUU'^UUU'^UUU``UUU`v+PPp {{{{{{{{{{{{",
"{{{{{{{{{{{{ pPP+ 2UU[~UUU'^UUU'^UUU``UUU`v+PPPC {{{{{{{{{{{",
"{{{{{{{{{{{{ pPP+fUUU[~UUU'^UUU'^UUU``UUU``z ZPC {{{{{{{{{{{",
"{{{{{{{{{{{{ pPP+fUUU[~UUU'^UUU'^UUU``UUU``z ZPC {{{{{{{{{{{",
"{{{{{{{{{{{{ pPP+fUUU[~UUU'^UUU'^UUU``UUU``z ZPC {{{{{{{{{{{",
"{{{{{{{{{{{{ X++ fUUU[~UUU'^UUU'^UUU``UUU``z X++ {{{{{{{{{{{",
"{{{{{{{{{{{{ eZZ+fUUU[~UUU'^UUU'^UUU``UUU``z aZa {{{{{{{{{{{",
"{{{{{{{{{{{{ pPP+fUUU[~UUU'^UUU'^UUU``UUU``z ZPC {{{{{{{{{{{",
"{{{{{{{{{{{{ pPP+fUUU[~UUU'^UUU'^UUU``UUU``z ZPC {{{{{{{{{{{",
"{{{{{{{{{{{{ pPP+fUUU[~UUU'^UUU'^UUU``I2298> ZPC {{{{{{{{{{{",
"{{{{{{{{{{{{ %eeXfUUU[~UUU'^UUU'^UUU``z KyyL =eq {{{{{{{{{{{",
"{{{{{{{{{{{{ =ppXfUUU[~UUU'^UUU'^UUU``z DwwD epe {{{{{{{{{{{",
"{{{{{{{{{{{{ pPP+fUUU[~UUU'^UUU'^UUU``Issgg3 ZPC {{{{{{{{{{{",
"{{{{{{{{{{{{ pPP+fUUU[~UUU'^UUU'^UUU``UUU``z ZPC {{{{{{{{{{{",
"{{{{{{{{{{{{ pPP+fUUU[~UUU'^UUU'^UUU``UUU``z ZPC {{{{{{{{{{{",
"{{{{{{{{{{{{ qMMXfUUU[~UUU'^UUU'^UUU``UUU``z tMp {{{{{{{{{{{",
"{{{{{{{{{{{{ +==XfUUU[~UUU'^UUU'^UUU``UUU``z %=% {{{{{{{{{{{",
"{{{{{{{{{{{{ pPP+fUUjnkjjU'^UUU'^UUU``UUU``z ZPC {{{{{{{{{{{",
"{{{{{{{{{{{{ pPP+fUz;o o2U'^UUU'^UUU``UUU``z ZPC {{{{{{{{{{{",
"{{{{{{{{{{{{ pPP+fUUz<$2zU'^UUU'^UUU``UUU``z ZPC {{{{{{{{{{{",
"{{{{{{{{{{{{ tGG+fUz _~f@U'^UUU'^UUU``UUU``z mGN {{{{{{{{{{{",
"{{{{{{{{{{{{     fUz.)!f@U'^UUU'^UUU``UUU``z     {{{{{{{{{{{",
"{{{{{{{{{{{{ pPP+fUUU#.2UU'^UUU'^UUU``UUU``z ZPC {{{{{{{{{{{",
"{{{{{{{{{{{{ pPP+fUUU[~UUU'^UUU'^UUU``UUU``z ZPC {{{{{{{{{{{",
"{{{{{{{{{{{{ pPP+fUUU[~UUU'^UUU'^UUU``UUU``z ZPC {{{{{{{{{{{",
"{{{{{{{{{{{{ pPP+fUUU[~UUU'^UUU'^UUU``UUU``z ZPV {{{{{{{{{{{",
"{{{{{{{{{{{{ X++ fUUU[~UUU'^UUU'^UUU``UUU``z X++ {{{{{{{{{{{",
"{{{{{{{{{{{{ eZZ+fUUU[~UUU'^UUU'^UUU``UUU``z aZa {{{{{{{{{{{",
"{{{{{{{{{{{{ pPP+fUUU[~UUU'^UUU'^UUU``UUU``z ZPC {{{{{{{{{{{",
"{{{{{{{{{{{{ pPP+fUUU[~UUU'^UUU'^UUU``UUU``z ZPC {{{{{{{{{{{",
"{{{{{{{{{{{{ pPP+fUUU[~UUU'^UUU'^UUU``UUU``z ZPC {{{{{{{{{{{",
"{{{{{{{{{{{{ %eeXfUUU[~UUU'^UUU'^UUU``UUU``l =eq {{{{{{{{{{{",
"{{{{{{{{{{{{ =ppXfUUU[~UUU'^UUU'^UUU``Issgg3 epe {{{{{{{{{{{",
"{{{{{{{{{{{{ pPP+fUUU[~UUU'^UUU'^UUU``z DwwD ZPC {{{{{{{{{{{",
"{{{{{{{{{{{{ pPP+fUUU[~UUU'^UUU'^UUU``z.SwwA ZPC {{{{{{{{{{{",
"{{{{{{{{{{{{ pPP+fUUU[~UUU'^UUU'^UUU``I2298> ZPC {{{{{{{{{{{",
"{{{{{{{{{{{{ qMMXfUUU[~UUU'^UUU'^UUU``UUU``z tMp {{{{{{{{{{{",
"{{{{{{{{{{{{ +==XfUUU[~UUU'^UUU'^UUU``UUU``z %=% {{{{{{{{{{{",
"{{{{{{{{{{{{ pPP+fUUU[~UUU'^UUU'^UUU``UUU``z ZPC {{{{{{{{{{{",
"{{{{{{{{{{{{ pPP+fUUU[~UUU'^UUU'^UUU``UUU``z ZPC {{{{{{{{{{{",
"{{{{{{{{{{{{ pPP+fUUU[~UUU'^UUU'^UUU``UUU``l ZPC {{{{{{{{{{{",
"{{{{{{{{{{{{ tGG+dzzz(YzzzQTzzzQTzzzWEzzzWRh mGN {{{{{{{{{{{",
"{{{{{{{{{{{{                                     {{{{{{{{{{{",
"{{{{{{{{{{{{{{{{{{{{{{{{{{{{{{{{{{{{{{{{{{{{{{{{{{{{{{{{{{{{",
"{{{{{{{{{{{{{{{{{{{{{{{{{{{{{{{{{{{{{{{{{{{{{{{{{{{{{{{{{{{{",
"{{{{{{{{{{{{{{{{{{{{{{{{{{{{{{{{{{{{{{{{{{{{{{{{{{{{{{{{{{{{"
};
