/* XPM */
static char *_5028_ec2af27dab8b4cf5b50056f48945291ca24748fe5b79022944c4ef77788aa888[] = {
/* columns rows colors chars-per-pixel */
"60 60 176 2 ",
"   c #000001",
".  c #0A0806",
"X  c #1B0F0C",
"o  c #100E0B",
"O  c #041E0B",
"+  c #031207",
"@  c #1D1008",
"#  c #161C0B",
"$  c #1A1612",
"%  c #0C141D",
"&  c #2B180C",
"*  c #271E15",
"=  c #351E16",
"-  c #10290B",
";  c #062D10",
":  c #083C15",
">  c #04210D",
",  c #392010",
"<  c #392B15",
"1  c #293A19",
"2  c #121F2C",
"3  c #132F2F",
"4  c #352D23",
"5  c #342B2B",
"6  c #573118",
"7  c #49341A",
"8  c #4A2920",
"9  c #5A3B20",
"0  c #403938",
"q  c #673A20",
"w  c #0E420E",
"e  c #0B4A19",
"r  c #0C5C1E",
"t  c #1C4D1D",
"y  c #344114",
"u  c #215E1E",
"i  c #28661A",
"p  c #1A4B2A",
"a  c #255C25",
"s  c #0E6923",
"d  c #107B29",
"f  c #1C7427",
"g  c #277F27",
"h  c #3B7427",
"j  c #2B6826",
"k  c #534B1F",
"l  c #66421E",
"z  c #5C4E22",
"x  c #4E5623",
"c  c #415E24",
"v  c #664821",
"b  c #734120",
"n  c #7F4F29",
"m  c #774824",
"M  c #634738",
"N  c #7B5D33",
"B  c #7F5028",
"V  c #557B25",
"C  c #526F2F",
"Z  c #3E3F40",
"A  c #315273",
"S  c #275460",
"D  c #414E5E",
"F  c #487746",
"G  c #414E7D",
"H  c #7D6969",
"J  c #8B5E30",
"K  c #885A38",
"L  c #8E5C2C",
"P  c #996C37",
"I  c #846731",
"U  c #A87639",
"Y  c #A37837",
"T  c #967018",
"R  c #86684D",
"E  c #956946",
"W  c #967058",
"Q  c #9D734E",
"!  c #A47B41",
"~  c #A47A55",
"^  c #168029",
"/  c #1D8529",
"(  c #228A29",
")  c #2D8B26",
"_  c #388C24",
"`  c #359A29",
"'  c #389828",
"]  c #7A9219",
"[  c #70BA1F",
"{  c #469928",
"}  c #59992F",
"|  c #5B9B32",
" . c #41A429",
".. c #66A92B",
"X. c #728F35",
"o. c #2E8B44",
"O. c #7A8772",
"+. c #B4971C",
"@. c #BEBE00",
"#. c #B9A010",
"$. c #8A9429",
"%. c #AA863B",
"&. c #BB9C31",
"*. c #BF963B",
"=. c #9CA538",
"-. c #D1BD20",
";. c #D9B53B",
":. c #C7AB27",
">. c #A5CD0F",
",. c #DDCD18",
"<. c #DCCF08",
"1. c #E8DE10",
"2. c #E7DD10",
"3. c #FFFF00",
"4. c #F7EA14",
"5. c #EFE70C",
"6. c #D9C323",
"7. c #EDD529",
"8. c #E5C239",
"9. c #E7CF27",
"0. c #939C56",
"q. c #B28745",
"w. c #B08954",
"e. c #B98C54",
"r. c #AD855E",
"t. c #9F8769",
"y. c #B08863",
"u. c #BB9562",
"i. c #B29468",
"p. c #BC9770",
"a. c #BA9878",
"s. c #AA9567",
"d. c #BBAC7E",
"f. c #C19349",
"g. c #C79648",
"h. c #CFA04E",
"j. c #DEAC52",
"k. c #C29D76",
"l. c #C8A678",
"z. c #C7A37A",
"x. c #D0AF7E",
"c. c #D1B07F",
"v. c #E6BA6D",
"b. c #005D80",
"n. c #31529C",
"m. c #397D8F",
"M. c #4A5A8B",
"N. c #68798A",
"B. c #657DB4",
"V. c #73A1A0",
"C. c #1D9BC7",
"Z. c #00BAFF",
"A. c #6AB7C5",
"S. c #9E9E9F",
"D. c #B5A696",
"F. c #989CAC",
"G. c #98A8B9",
"H. c #B2B1B9",
"J. c #D5B48B",
"K. c #DBBB92",
"L. c #DFC097",
"P. c #E8CB9E",
"I. c #D7CDB7",
"U. c #EACDA4",
"Y. c #F6DBB2",
"T. c #FFE6BD",
"R. c #98A7C9",
"E. c #BFDBCD",
"W. c #CFD0C5",
"Q. c #E5DDD1",
"!. c #FFF2DE",
"~. c #FFECCD",
"^. c #CBD3E6",
"/. c #FFF8EF",
"(. c #FFFFFF",
"). c None",
/* pixels */
").).).).).).).).).).).).).).).).).).).).).).).).).).).).).).).).).).).).).).).).).).).).).).).).).).).).).).).).).).).).",
").).).).).).).).).).).).).).).).).).).).).).).).).).).).).).).).).).).).).).).).).).).).).).).).).).).).).).).).).).).).",
").).).).).).).).).).).).).).).).).).).).).).).).).).).).).).).).).).).).).).).).).).).).).).).).).).).).).).).).).).).).",
").).).).).).).).).).).).).).).).).).).).).).).).).).).).).).).).).).).).).).).).).).).).).).).).).).).).).).).).).).).).",
").).).).).).).).).).).).).).).).).).).).).).).).).).).).).).).).).).).).).).).).).).).).).).).).).).).).).).).).).).).).",
").).).).).).).).).).).).).).).).).).).).).).).).).).).).).).).).).).).).).).).).).).).).).).).).).).).).).).).).).).).).",
").).).).).).).).).).).).).).).).).).).).).).).).).).).).).).).).).).).).).).).).).).).).).).).).).).).).).).).).).).).).",
").).).).).).).).).).).).).).).).).).).).).).).).).).).).).).).).).).).).).).).).).).).).).).).).).).).).).).).).).).).).",
").).).).).).).).).).).).).).).).).).).).).).).).).).).).).).).).).).).).).).).).).).).).).).).).).).).).).).).).).).).).",
").).).).).).).).).).).).).).).).).).).).).).).).).).).).).).).).).).).).).).).).).).).).).).).).).).).).).).).).).).).).",
").).).).).).).).).).).).).).).).).).).).).).).).).).).).).).).).).).).).).).).).).).).).).).).).).).).).).).).).).).).).",
").).).).).).).).).).).).).).).).).).).).).).).).).  O d d d d d d r     ).).).).).).).).).).).).).).).).).).).).).).).).",
").).).).).).).).).).).).).).).).).).).).).).).).).; w ( ( ( ( ( ( f ; > ).).).).).).).).).).).).).).).).).).).).).).).).",
").).).).).).).).).).).).).).).).).).).).).).).    d /  . . . . . .` d :   ).).).).).).).).).).).).).).).).).).).).).).).",
").).).).).).).).).).).).).).).).).).).).).).  e e d d ( ( ( ( ( ( / d s e +   ).).).).).).).).).).).).).).).).).).).).).",
").).).).).).).).).).).).).).).).).).).).).    r d d d d d d d d d d d d d >   ).).).).).).).).).).).).).).).).).).).).).",
").).).).).).).).).).).).).).).).).).).).  : d `  . . . . . . . . . . . . ./ d     ).).).).).).).).).).).).).).).).).).).",
").).).).).).).).).).).).).).).).).).).).> t h | ..[ [ [ ..| } | [ [ [ ..} ) / > O ).).).).).).).).).).).).).).).).).).).",
").).).).).).).).).).).).).).).).).).  > d C ! h.j.3.3.3.-.! ! ! 3.3.3.-.! |  .d r     ).).).).).).).).).).).).).).).).).",
").).).).).).).).).).).).).).).).).).  # c $.-.9.7.6.,.3.1.-.%.! 3.5.-.-.-.$.X.d r     ).).).).).).).).).).).).).).).).).",
").).).).).).).).).).).).).).).).).).  @ b #.3.3.3.! &.3.3.3.&.! 3.1.! 6.3.&.! d r     ).).).).).).).).).).).).).).).).).",
").).).).).).).).).).).).).).).! l.J.6 m f.*.&.;.8.1.,.&.,.3.5.1.3.1.! %.&.,.1.z z 6 E J.w.! ).).).).).).).).).).).).).).",
").).).).).).).).).).).).).).! ! l.J.b L j.f.! h.j.3.1.! -.3.3.3.3.1.! ! ! 1.3.q q b ~ J.w.! ).).).).).).).).).).).).).).",
").).).).).).).).).).).).).).q b K.~.U &.3.-.! 1.3.! ! ! -.3.8.j.! w.J.u.! 1.3.! u.T.T.T.E b ).).).).).).).).).).).).).).",
").).).).).).).).).).).).).).).b z.K.O.0.<.:.q.5.3.&.&.&.6.4.j.h.w.u.J.l.u.9.4.! s.E.I.K.E b ).).).).).).).).).).).).).).",
").).).).).).).).).).).).).).).).m b Z.C.b U j.4.3.3.3.3.7.j.q.Y J.J.J.U.T.v.j.! O.Z.m.b ).).).).).).).).).).).).).).).).",
").).).).).).).).).).).).).).).)., , A.V.J U f.8.7.7.7.7.;.e.P J J.K.U.U.U.e.U -.=.S S b ).).).).).).).).).).).).).).).).",
").).).).).).).).).).).).).).).).    J.l.! ! U g.j.j.j.j.g.! B b J.L.T.P.J.J m 3.@..   ).).).).).).).).).).).).).).).).).",
").).).).).).).).).).).).).).).).    K %.2.+.L 8 < q.q.q.P B w.p.J.z.E M 4 N P 3.@.    ).).).).).).).).).).).).).).).).).",
").).).).).).).).).).).).).).).).    b T 3.#.q @   ! ! ! L b p.J.J.p.q 8   N ! 3.@.    ).).).).).).).).).).).).).).).).).",
").).).).).).).).).).).).).).).).).).  < j.U q Q.(.n.A m ~ J.Y.T.q M n.R.(.W b j.q.    ).).).).).).).).).).).).).).).).).",
").).).).).).).).).).).).).).).).).).  < f.P L I./.n.M.W a.L.Y.T.W H n.R./.R 7 q.N   ).).).).).).).).).).).).).).).).).).",
").).).).).).).).).).).).).).).).).).).).b J ! P.T.n.B.(.!.T.T.T.(.^.n.F.T.0       ).).).).).).).).).).).).).).).).).).).",
").).).).).).).).).).).).).).).).).).).).b q 9 i.c.F.H.!.~.T.T.T.!.Q.F.D.x.4   ).).).).).).).).).).).).).).).).).).).).).",
").).).).).).).).).).).).).).).).).).).).).    N Y T.T.T.T.T.T.T.T.T.T.x.! *   ).).).).).).).).).).).).).).).).).).).).).",
").).).).).).).).).).).).).).).).).).).).  : s z m K Q K.K.K.K.K.K.p.K n m j s     ).).).).).).).).).).).).).).).).).).).",
").).).).).).).).).).).).).).).).).).).).+ p F z v v N d.d.d.d.d.d.s.l l l { o..   ).).).).).).).).).).).).).).).).).).).",
").).).).).).).).).).).).).).).).      % A G.(.F : d d d d d d d d d f r : W.(.8 ,       ).).).).).).).).).).).).).).).).",
").).).).).).).).).).).).).).).).& & & 5 A N.S.C y d d d d d d d d d d a 1 W G.Z 0 & & & . ).).).).).).).).).).).).).).).",
").).).).).).).).).).).).).).    6 q q z n.2   6 b d d d d d d d d d d j q @   A D q b b @   ).).).).).).).).).).).).).).",
").).).).).).).).).).).).).).    R y.y.R 2 3 e h V x x x ] >.>.>.x x x C V #   2 D w.y.y.*   ).).).).).).).).).).).).).).",
").).).).).).).).).).).).).).    t.J.J.t.  w d '  .b b b #.3.3.3.b b b V  .-     < J.J.J.4   ).).).).).).).).).).).).).).",
").).).).).).).).).).).).).).).).o $ $ * ).+ + )  .{ ' f g ) _ ) f g { {  .-   ).).* $ $ ).).).).).).).).).).).).).).).).",
").).).).).).).).).).).).).).).).        ).    i ' _ ) ^ ^ ^ d / ^ f  .' _ -   ).).      ).).).).).).).).).).).).).).).).",
").).).).).).).).).).).).).).).).).).).).).          -  . . . . . .` d :           ).).).).).).).).).).).).).).).).).).).",
").).).).).).).).).).).).).).).).).).).).).).      X # i i i i i V h u 1 & & &     ).).).).).).).).).).).).).).).).).).).",
").).).).).).).).).).).).).).).).).).).).).).).    8 ,           8 8 8 6 b b b     ).).).).).).).).).).).).).).).).).).).",
").).).).).).).).).).).).).).).).).).).).).).).).).X & ).).).).).X = q q b , & ).).).).).).).).).).).).).).).).).).).).).",
").).).).).).).).).).).).).).).).).).).).).).).).).    ).).).).).  X b b b &   ).).).).).).).).).).).).).).).).).).).).).",
").).).).).).).).).).).).).).).).).).).).).).).).).).).).).).).).).).. . . ).).).).).).).).).).).).).).).).).).).).).).).",
").).).).).).).).).).).).).).).).).).).).).).).).).).).).).).).).).).      ).).).).).).).).).).).).).).).).).).).).).).).",
").).).).).).).).).).).).).).).).).).).).).).).).).).).).).).).).).).).).).).).).).).).).).).).).).).).).).).).).).).).).",
").).).).).).).).).).).).).).).).).).).).).).).).).).).).).).).).).).).).).).).).).).).).).).).).).).).).).).).).).).).).",
").).).).).).).).).).).).).).).).).).).).).).).).).).).).).).).).).).).).).).).).).).).).).).).).).).).).).).).).).).).).",
").).).).).).).).).).).).).).).).).).).).).).).).).).).).).).).).).).).).).).).).).).).).).).).).).).).).).).).).).).).).",
").).).).).).).).).).).).).).).).).).).).).).).).).).).).).).).).).).).).).).).).).).).).).).).).).).).).).).).).).).).).",
").).).).).).).).).).).).).).).).).).).).).).).).).).).).).).).).).).).).).).).).).).).).).).).).).).).).).).).).).).).).",
").).).).).).).).).).).).).).).).).).).).).).).).).).).).).).).).).).).).).).).).).).).).).).).).).).).).).).).).).).).).",
").).).).).).).).).).).).).).).).).).).).).).).).).).).).).).).).).).).).).).).).).).).).).).).).).).).).).).).).).).).).",
").).).).).).).).).).).).).).).).).).).).).).).).).).).).).).).).).).).).).).).).).).).).).).).).).).).).).).).).).).).)."
};
