/* XPM */
static char *_6832_9a375b01f9a6c885452159892f1807a795c3de27b8730427d3f78daad427cb95[] = {
/* columns rows colors chars-per-pixel */
"60 60 189 2 ",
"   c #000001",
".  c #020B03",
"X  c #0E0805",
"o  c #090505",
"O  c #140B0A",
"+  c #031205",
"@  c #051905",
"#  c #051909",
"$  c #13120B",
"%  c #1C130A",
"&  c #141606",
"*  c #191512",
"=  c #071211",
"-  c #2B190D",
";  c #20120C",
":  c #2C1B13",
">  c #241914",
",  c #062107",
"<  c #06260B",
"1  c #082908",
"2  c #09330C",
"3  c #0B3A0B",
"4  c #062E10",
"5  c #173A17",
"6  c #0C381E",
"7  c #232307",
"8  c #3A2011",
"9  c #302513",
"0  c #121F2C",
"q  c #323129",
"w  c #472814",
"e  c #42241C",
"r  c #452718",
"t  c #493218",
"y  c #5F3F18",
"u  c #65391C",
"i  c #4B2A20",
"p  c #49372A",
"a  c #0D420D",
"s  c #0D4912",
"d  c #0A4C1A",
"f  c #134E11",
"g  c #0E5717",
"h  c #0D5D1E",
"j  c #0B511B",
"k  c #175C16",
"l  c #1A420F",
"z  c #3B491F",
"x  c #0E651F",
"c  c #1B6A1F",
"v  c #236718",
"b  c #206717",
"n  c #2E7F1F",
"m  c #27731B",
"M  c #317B1F",
"N  c #0E6B23",
"B  c #0F7325",
"V  c #0F7728",
"C  c #107B29",
"Z  c #177726",
"A  c #53401F",
"S  c #485722",
"D  c #504335",
"F  c #534A26",
"G  c #674821",
"H  c #734120",
"J  c #7C4C29",
"K  c #624535",
"L  c #567631",
"P  c #606523",
"I  c #7E652F",
"U  c #1D3145",
"Y  c #29394A",
"T  c #2B4865",
"R  c #315273",
"E  c #504C49",
"W  c #605648",
"Q  c #604E53",
"!  c #587945",
"~  c #5C7F75",
"^  c #606060",
"/  c #84591C",
"(  c #83532E",
")  c #804E26",
"_  c #8B6C34",
"`  c #906937",
"'  c #8D7535",
"]  c #A87639",
"[  c #847057",
"{  c #867959",
"}  c #8E6E4F",
"|  c #A47B41",
" . c #A87F5B",
".. c #A27955",
"X. c #168029",
"o. c #1E8729",
"O. c #228A29",
"+. c #2A8627",
"@. c #378D23",
"#. c #2E9429",
"$. c #3A9825",
"%. c #3A9E29",
"&. c #379124",
"*. c #519B1F",
"=. c #68932F",
"-. c #41A429",
";. c #58AA29",
":. c #7CA738",
">. c #2F8B45",
",. c #658952",
"<. c #5A9467",
"1. c #6BA770",
"2. c #9B9B00",
"3. c #978B15",
"4. c #95BE10",
"5. c #A0A000",
"6. c #8F8438",
"7. c #AC8739",
"8. c #B6843F",
"9. c #84BB24",
"0. c #D4BB1C",
"q. c #C6AC28",
"w. c #D7BE29",
"e. c #CFB825",
"r. c #88C619",
"t. c #A8D110",
"y. c #DCCF08",
"u. c #DADF07",
"i. c #CFD515",
"p. c #E8DA17",
"a. c #F2DF1F",
"s. c #E6D416",
"d. c #EDE604",
"f. c #E1EF05",
"g. c #FFFF00",
"h. c #FBF50A",
"j. c #F7EA14",
"k. c #F0E412",
"l. c #EBEC0C",
"z. c #E6C03D",
"x. c #EACB33",
"c. c #89895C",
"v. c #B78944",
"b. c #AD8657",
"n. c #B48A43",
"m. c #9E8669",
"M. c #B48D64",
"N. c #B99C7A",
"B. c #AA906D",
"V. c #8DAB7E",
"C. c #BEA27F",
"Z. c #C29346",
"A. c #C19548",
"S. c #C89949",
"D. c #D09F4C",
"F. c #DEAC52",
"G. c #D7A650",
"H. c #CCA352",
"J. c #E2B748",
"K. c #C39F6F",
"L. c #D2AC6C",
"P. c #E8D558",
"I. c #FFF547",
"U. c #465E9A",
"Y. c #717D89",
"T. c #4A68A8",
"R. c #7C9C8C",
"E. c #00A3DF",
"W. c #20BFF7",
"Q. c #9F9A93",
"!. c #94AD8C",
"~. c #BEAB8D",
"^. c #CEAD82",
"/. c #D5B48B",
"(. c #DABA91",
"). c #C6AE93",
"_. c #DFC9A6",
"`. c #E6CAA2",
"'. c #EAD3A9",
"]. c #FADFB6",
"[. c #FFE6BD",
"{. c #FAE0B7",
"}. c #B1BDC9",
"|. c gray87",
" X c #FFE9C3",
".X c #FFF5E6",
"XX c #FEFEFF",
"oX c #E4E8EC",
"OX c None",
/* pixels */
"OXOXOXOXOXOXOXOXOXOXOXOXOXOXOXOXOXOXOXOXOXOXOXOXOXOXOXOXOXOXOXOXOXOXOXOXOXOXOXOXOXOXOXOXOXOXOXOXOXOXOXOXOXOXOXOXOXOXOXOX",
"OXOXOXOXOXOXOXOXOXOXOXOXOXOXOXOXOXOXOXOXOXOXOXOXOXOXOXOXOXOXOXOXOXOXOXOXOXOXOXOXOXOXOXOXOXOXOXOXOXOXOXOXOXOXOXOXOXOXOXOX",
"OXOXOXOXOXOXOXOXOXOXOXOXOXOXOXOXOXOXOXOXOXOXOXOXOXOXOXOXOXOXOXOXOXOXOXOXOXOXOXOXOXOXOXOXOXOXOXOXOXOXOXOXOXOXOXOXOXOXOXOX",
"OXOXOXOXOXOXOXOXOXOXOXOXOXOXOXOXOXOXOXOXOXOXOXOXOXOXOXOXOXOXOXOXOXOXOXOXOXOXOXOXOXOXOXOXOXOXOXOXOXOXOXOXOXOXOXOXOXOXOXOX",
"OXOXOXOXOXOXOXOXOXOXOXOXOXOXOXOXOXOXOXOXOXOXOXOXOXOXOXOXOXOXOXOXOXOXOXOXOXOXOXOXOXOXOXOXOXOXOXOXOXOXOXOXOXOXOXOXOXOXOXOX",
"OXOXOXOXOXOXOXOXOXOXOXOXOXOXOXOXOXOXOXOXOXOXOXOXOXOXOXOXOXOXOXOXOXOXOXOXOXOXOXOXOXOXOXOXOXOXOXOXOXOXOXOXOXOXOXOXOXOXOXOX",
"OXOXOXOXOXOXOXOXOXOXOXOXOXOXOXOXOXOXOXOXOXOXOXOXOXOXOXOXOXOXOXOXOXOXOXOXOXOXOXOXOXOXOXOXOXOXOXOXOXOXOXOXOXOXOXOXOXOXOXOX",
"OXOXOXOXOXOXOXOXOXOXOXOXOXOXOXOXOXOXOXOXOXOXOXOXOXOXOXOXOXOXOXOXOXOXOXOXOXOXOXOXOXOXOXOXOXOXOXOXOXOXOXOXOXOXOXOXOXOXOXOX",
"OXOXOXOXOXOXOXOXOXOXOXOXOXOXOXOXOXOXOXOXOXOXOXOXOXOXOXOXOXOXOXOXOXOXOXOXOXOXOXOXOXOXOXOXOXOXOXOXOXOXOXOXOXOXOXOXOXOXOXOX",
"OXOXOXOXOXOXOXOXOXOXOXOXOXOXOXOXOXOXOXOXOXOXOXOXOXOXOXOXOXOXOXOXOXOXOXOXOXOXOXOXOXOXOXOXOXOXOXOXOXOXOXOXOXOXOXOXOXOXOXOX",
"OXOXOXOXOXOXOXOXOXOXOXOXOXOXOXOXOXOXOXOXOXOXOXOXOXOXOXOXOXOXOXOXOXOXOXOXOXOXOXOXOXOXOXOXOXOXOXOXOXOXOXOXOXOXOXOXOXOXOXOX",
"OXOXOXOXOXOXOXOXOXOXOXOXOXOXOXOXOXOXOXOXOXOXOXOXOXOXOXOXOXOXOXOXOXOXOXOXOXOXOXOXOXOXOXOXOXOXOXOXOXOXOXOXOXOXOXOXOXOXOXOX",
"OXOXOXOXOXOXOXOXOXOXOXOXOXOXOXOXOXOXOXOXOXOXOXOXOXOXOXOXOXOXC C s f -.L H ` | | | OXOXOXOXOXOXOXOXOXOXOXOXOXOXOXOXOXOXOX",
"OXOXOXOXOXOXOXOXOXOXOXOXOXOXOXOXOXOXOXOXOXOXOXOXOXOXX.-.-.-.#.O.f f -.=.] v.A.e.w.F.S.| OXOXOXOXOXOXOXOXOXOXOXOXOXOXOXOX",
"OXOXOXOXOXOXOXOXOXOXOXOXOXOXOXOXOXOXOXOXOXOXOXOXOXC X.-.-.-.-.-.f f -.:.F.F.F.h.h.F.S.| OXOXOXOXOXOXOXOXOXOXOXOXOXOXOXOX",
"OXOXOXOXOXOXOXOXOXOXOXOXOXOXOXOXOXOXOXOXa g C C C #.%.-.-.-.-.-.f f -.9.j.j.j.x.z.j.k.p.q.| OXOXOXOXOXOXOXOXOXOXOXOXOXOX",
"OXOXOXOXOXOXOXOXOXOXOXOXOXOXOXOXOXOXOXOXa g C C C %.-.-.-.-.-.-.f f -.r.g.g.g.J.J.g.g.g.q.| OXOXOXOXOXOXOXOXOXOXOXOXOXOX",
"OXOXOXOXOXOXOXOXOXOXOXOXOXOXOXOXOXOXa s C C C #.-.-.-.-.-.-.b a #.;.F.F.F.a.g.J.F.F.F.F.a.g.7.| OXOXOXOXOXOXOXOXOXOXOXOX",
"OXOXOXOXOXOXOXOXOXOXOXOXOXOXOXOXOXOXs g C C C #.-.&.@.@.&.-.b a $.;.z.z.z.p.p.S.Z.F.G.Z.0.y.7.| OXOXOXOXOXOXOXOXOXOXOXOX",
"OXOXOXOXOXOXOXOXOXOXOXOXOXOXOXOXa a B C C C C #.-.f a a b -.b a $.;.g.g.g.q.| J J F.8.H H H OXOXOXOXOXOXOXOXOXOXOXOXOXOX",
"OXOXOXOXOXOXOXOXOXOXOXOXOXOXOX  s N C C C C C o.+.+.n n m b m n t.i.x.w.q.H.K.M.b.y G OXOXOXOXOXOXOXOXOXOXOXOXOXOXOXOXOX",
"OXOXOXOXOXOXOXOXOXOXOXOXOXOX    d C C C C C C C C %.-.-.n a n -.l.h.F.H.| K././.N.    OXOXOXOXOXOXOXOXOXOXOXOXOXOXOXOXOX",
"OXOXOXOXOXOXOXOXOXOXOXOXOXOX    d C C C C C C C C X.Z f h V C Z f.h.F.F.^.`.{.(.N.    OXOXOXOXOXOXOXOXOXOXOXOXOXOXOXOXOX",
"OXOXOXOXOXOXOXOXOXOXOXOXOXOX. . d C C C B B B V C B N s g Z Z +.u.k.J.L.(._._.^.B.    OXOXOXOXOXOXOXOXOXOXOXOXOXOXOXOXOX",
"OXOXOXOXOXOXOXOXOXOXOXOXOX  , a x C C B a a a x C s a C x a 6.F.n.7.g.I. XQ   u u     OXOXOXOXOXOXOXOXOXOXOXOXOXOXOXOXOX",
"OXOXOXOXOXOXOXOXOXOXOXOXOX  , a x C x h 1 2 a g x ! ,.1.,.L ' 8.v.v.s.P.{.Q.^ Q Q D p OXOXOXOXOXOXOXOXOXOXOXOXOXOXOXOXOX",
"OXOXOXOXOXOXOXOXOXOXOXOXOX  , a x C s 3   @ a a a _.[.[.'./.} H D.G.| K.{..XXXT.U./.[   OXOXOXOXOXOXOXOXOXOXOXOXOXOXOXOX",
"OXOXOXOXOXOXOXOXOXOXOXOXOX  , a x C < @ OX. @ @ @ M.L. X{.'...H s.p.( M.[..XXXT.U./.[   OXOXOXOXOXOXOXOXOXOXOXOXOXOXOXOX",
"OXOXOXOXOXOXOXOXOXOXOXOXOX  , a x C .   OXOX      ` b.[.[.[.b.H d.d.H  . X.XXXT.U.(.^ X OXOXOXOXOXOXOXOXOXOXOXOXOXOXOXOX",
"OXOXOXOXOXOXOXOXOXOXOXOXOXOX. . 2 s .   OXOXOX    & 9 b.R.W.!.D.h.d.H  .[. X X).B.* $ OXOXOXOXOXOXOXOXOXOXOXOXOXOXOXOXOX",
"OXOXOXOXOXOXOXOXOXOXOXOXOXOXOX  < 3 .   OXOXOX& 7 % 9 ` ~ E.V.J.k.y.J b.{.].{.K.m.    OXOXOXOXOXOXOXOXOXOXOXOXOXOXOXOXOX",
"OXOXOXOXOXOXOXOXOXOXOXOXOXOXOXOX    OXOXOXOXOXg.g.J.A.      5.g.) J (././././.*   OXOXOXOXOXOXOXOXOXOXOXOXOXOXOXOXOXOXOX",
"OXOXOXOXOXOXOXOXOXOXOXOXOXOXOXOXOX  OXOXOXOXOX2.5.' ( , +   3.a.u t c.c.c.{ [ $   OXOXOXOXOXOXOXOXOXOXOXOXOXOXOXOXOXOXOX",
"OXOXOXOXOXOXOXOXOXOXOXOXOXOXOXOXOXOXOXOXOXOXOX      . a 1   _ F.% . a a a @   OXOXOXOXOXOXOXOXOXOXOXOXOXOXOXOXOXOXOXOXOX",
"OXOXOXOXOXOXOXOXOXOXOXOXOXOXOXOXOXOXOXOXOXOXOX    8 t x h d z A _ I @ 3 N <       OXOXOXOXOXOXOXOXOXOXOXOXOXOXOXOXOXOXOX",
"OXOXOXOXOXOXOXOXOXOXOXOXOXOXOXOXOXOXOXOXOXOXOX    u G C C C 2   A.A.  4 C 1   .   OXOXOXOXOXOXOXOXOXOXOXOXOXOXOXOXOXOXOX",
"OXOXOXOXOXOXOXOXOXOXOXOXOXOXOXOXOXOXOXOXOXOX  U T * % G S C S u 9 %   4 C 4.u.*.M     OXOXOXOXOXOXOXOXOXOXOXOXOXOXOXOXOX",
"OXOXOXOXOXOXOXOXOXOXOXOXOXOXOXOXOXOXOXOXOXOX* Y T = & H F Z F u & + 0 4 N 4.f.;.@.    OXOXOXOXOXOXOXOXOXOXOXOXOXOXOXOXOX",
"OXOXOXOXOXOXOXOXOXOXOXOXOXOXOXOXOXOXOXOX  D /.D   3 l H H H -   N >.XXQ.  d C %.@.    OXOXOXOXOXOXOXOXOXOXOXOXOXOXOXOXOX",
"OXOXOXOXOXOXOXOXOXOXOXOXOXOXOXOXOXOXOXOX  q { q @ k v P P P 7   <.R.}.R.0 6 d +.+.    OXOXOXOXOXOXOXOXOXOXOXOXOXOXOXOXOX",
"OXOXOXOXOXOXOXOXOXOXOXOXOXOXOXOXOXOXOXOX      1 a $.-.-.-.-.5   oXoXR R R 0   N N     OXOXOXOXOXOXOXOXOXOXOXOXOXOXOXOXOX",
"OXOXOXOXOXOXOXOXOXOXOXOXOXOXOXOXOXOXOXOXOX    . + Z o.-.-.-.m h E q K K K >   < #     OXOXOXOXOXOXOXOXOXOXOXOXOXOXOXOXOX",
"OXOXOXOXOXOXOXOXOXOXOXOXOXOXOXOXOXOXOXOXOXOX      N X.-.-.-.O.C + o H H H :           OXOXOXOXOXOXOXOXOXOXOXOXOXOXOXOXOX",
"OXOXOXOXOXOXOXOXOXOXOXOXOXOXOXOXOXOXOXOXOXOX  w H X + C O.-.-.-.# > [.[.[.W   8 i i :       OXOXOXOXOXOXOXOXOXOXOXOXOXOX",
"OXOXOXOXOXOXOXOXOXOXOXOXOXOXOXOXOXOXOXOXOXOX  w H % * h c M M M . > ~.~.).p   e i i 8 % X   OXOXOXOXOXOXOXOXOXOXOXOXOXOX",
"OXOXOXOXOXOXOXOXOXOXOXOXOXOXOXOXOXOXOXOXOXOX  w H i e                         e i H H H -   OXOXOXOXOXOXOXOXOXOXOXOXOXOX",
"OXOXOXOXOXOXOXOXOXOXOXOXOXOXOXOXOXOXOXOXOXOX  - 8 e e > O                     ; : 8 8 8 ; OXOXOXOXOXOXOXOXOXOXOXOXOXOXOX",
"OXOXOXOXOXOXOXOXOXOXOXOXOXOXOXOXOXOXOXOXOXOXOX    e i i :   OXOXOXOXOXOXOX              OXOXOXOXOXOXOXOXOXOXOXOXOXOXOXOX",
"OXOXOXOXOXOXOXOXOXOXOXOXOXOXOXOXOXOXOXOXOXOXOXOXOXO O O o   OXOXOXOXOXOXOXOXOXOXOXOXOXOXOXOXOXOXOXOXOXOXOXOXOXOXOXOXOXOX",
"OXOXOXOXOXOXOXOXOXOXOXOXOXOXOXOXOXOXOXOXOXOXOXOXOX          OXOXOXOXOXOXOXOXOXOXOXOXOXOXOXOXOXOXOXOXOXOXOXOXOXOXOXOXOXOX",
"OXOXOXOXOXOXOXOXOXOXOXOXOXOXOXOXOXOXOXOXOXOXOXOXOXOXOXOXOXOXOXOXOXOXOXOXOXOXOXOXOXOXOXOXOXOXOXOXOXOXOXOXOXOXOXOXOXOXOXOX",
"OXOXOXOXOXOXOXOXOXOXOXOXOXOXOXOXOXOXOXOXOXOXOXOXOXOXOXOXOXOXOXOXOXOXOXOXOXOXOXOXOXOXOXOXOXOXOXOXOXOXOXOXOXOXOXOXOXOXOXOX",
"OXOXOXOXOXOXOXOXOXOXOXOXOXOXOXOXOXOXOXOXOXOXOXOXOXOXOXOXOXOXOXOXOXOXOXOXOXOXOXOXOXOXOXOXOXOXOXOXOXOXOXOXOXOXOXOXOXOXOXOX",
"OXOXOXOXOXOXOXOXOXOXOXOXOXOXOXOXOXOXOXOXOXOXOXOXOXOXOXOXOXOXOXOXOXOXOXOXOXOXOXOXOXOXOXOXOXOXOXOXOXOXOXOXOXOXOXOXOXOXOXOX",
"OXOXOXOXOXOXOXOXOXOXOXOXOXOXOXOXOXOXOXOXOXOXOXOXOXOXOXOXOXOXOXOXOXOXOXOXOXOXOXOXOXOXOXOXOXOXOXOXOXOXOXOXOXOXOXOXOXOXOXOX",
"OXOXOXOXOXOXOXOXOXOXOXOXOXOXOXOXOXOXOXOXOXOXOXOXOXOXOXOXOXOXOXOXOXOXOXOXOXOXOXOXOXOXOXOXOXOXOXOXOXOXOXOXOXOXOXOXOXOXOXOX",
"OXOXOXOXOXOXOXOXOXOXOXOXOXOXOXOXOXOXOXOXOXOXOXOXOXOXOXOXOXOXOXOXOXOXOXOXOXOXOXOXOXOXOXOXOXOXOXOXOXOXOXOXOXOXOXOXOXOXOXOX",
"OXOXOXOXOXOXOXOXOXOXOXOXOXOXOXOXOXOXOXOXOXOXOXOXOXOXOXOXOXOXOXOXOXOXOXOXOXOXOXOXOXOXOXOXOXOXOXOXOXOXOXOXOXOXOXOXOXOXOXOX",
"OXOXOXOXOXOXOXOXOXOXOXOXOXOXOXOXOXOXOXOXOXOXOXOXOXOXOXOXOXOXOXOXOXOXOXOXOXOXOXOXOXOXOXOXOXOXOXOXOXOXOXOXOXOXOXOXOXOXOXOX",
"OXOXOXOXOXOXOXOXOXOXOXOXOXOXOXOXOXOXOXOXOXOXOXOXOXOXOXOXOXOXOXOXOXOXOXOXOXOXOXOXOXOXOXOXOXOXOXOXOXOXOXOXOXOXOXOXOXOXOXOX"
};
