/* XPM */
static char *pngwing_31717520631[] = {
/* columns rows colors chars-per-pixel */
"60 60 86 1 ",
"  c None",
". c black",
"X c #24180F",
"o c #3D100E",
"O c #2B1C12",
"+ c #392618",
"@ c #3F2524",
"# c #3F2B2A",
"$ c #541713",
"% c #402B1B",
"& c #412B1C",
"* c #47301E",
"= c #7A211B",
"- c #563924",
"; c #7B3934",
": c #7C3934",
"> c #724D30",
", c #734D30",
"< c gray25",
"1 c #414141",
"2 c #505050",
"3 c #646464",
"4 c gray44",
"5 c #89261F",
"6 c #982A21",
"7 c #982922",
"8 c #99362E",
"9 c #B63228",
"0 c #B73228",
"q c #C6372C",
"w c #D53B2F",
"e c #D83A30",
"r c #DD3C31",
"t c #E03D31",
"y c #E13E32",
"u c #E43E32",
"i c #805636",
"p c #90603C",
"a c #EC4134",
"s c #EE4034",
"d c #EE4135",
"f c #F34335",
"g c #F24136",
"h c #F34236",
"j c #F34336",
"k c #F44335",
"l c #F44336",
"z c #F54337",
"x c #F34436",
"c c #F44435",
"v c #F24939",
"b c #F24D3B",
"n c #A67046",
"m c #AC7348",
"M c #AC7349",
"N c #BB7D4F",
"B c #F54F43",
"V c #F5574C",
"C c #F55D52",
"Z c #ED6E4B",
"A c #EC734E",
"S c #F77268",
"D c #C88755",
"F c #D8905B",
"G c #DA915A",
"H c #E98456",
"J c #E98758",
"K c #E59961",
"L c #E59A61",
"P c #E69A61",
"I c #808080",
"U c gray56",
"Y c #9F9F9F",
"T c #A0A0A0",
"R c gray72",
"E c #F9958D",
"W c #F8958E",
"Q c #F9A09A",
"! c #FAADA6",
"~ c #FAACA7",
"^ c gray81",
"/ c #DFDFDF",
"( c #EFEFEF",
") c #FEE7E6",
"_ c #FEFEFE",
"` c white",
/* pixels */
"                                                            ",
"                                                            ",
"                                                            ",
"                                                            ",
"                                                            ",
"                                                            ",
"                                                            ",
"                                                            ",
"                                                            ",
"                         zzczzzc                            ",
"                        gccgcccz                            ",
"                       gzgzzzgzzct                          ",
"                      gzgzcgzczzct                          ",
"                     zczczczgccggzxW`                       ",
"                     czcczczzcczczzW``                      ",
"                   ccgzcgzcgzcgzcgzzcg                      ",
"                   wwwugcczzgzzgzawwwe                      ",
"                 c0...=zzzccccccc0...=z                     ",
"                 cqo@<;0rccgccza08<#o6c                     ",
"               `)gzzW`I.7gzzzgzw.<`!zgc                     ",
"               ~QcgcW`I.$555555=.<`!zzgz                    ",
"               czzzzW`I..........<`!gcczz                   ",
"               cgzzcW`I.2I:===I4.<`!ccccg                   ",
"               gccgcW`I.T`Scgz`/.<`!zzgzc                   ",
"             azzcgccW`^Y/`Szgz`(YR`!zzczzaz                 ",
"             azcczzgW`````Szcc`````!cgcgzzz                 ",
"             azgzzzzVSSSSSBczcSSSSSCcgczzgz                 ",
"             azzcgccgzcczzgczcgzcgzzzzczccc                 ",
"             acccgccgccgzzgzgzzgczzccczczcc                 ",
"             azgzzzzzzzzgcczcccccggczgzczgz                 ",
"               zcggcccZPPPPPPPPPPHzzzgzgz                   ",
"               zczzcvbAPPPPPPPPPPJbvccccg                   ",
"                     PPPPPPPPPPPPPPG                        ",
"                     PPPPPPPPPPPPPPG                        ",
"                     PPPPPPPPPPPPPPG ``                     ",
"                     PPPPPPPPPPPPPPn 3U                     ",
"                     PPPPPPPPPPPPPP,...                     ",
"                 ...&,MPPPPPPPPF,,,%.....                   ",
"                 .....,PPPPPPPPD.........                   ",
"                 .....O-MPPPPP-*.........                   ",
"                 .......pPPPPP...........                   ",
"                   .....X+NPPP..........                    ",
"                   .......MPPP.........                     ",
"                                                            ",
"                                                            ",
"                                                            ",
"                                                            ",
"                                                            ",
"                                                            ",
"                                                            ",
"                                                            ",
"                                                            ",
"                                                            ",
"                                                            ",
"                                                            ",
"                                                            ",
"                                                            ",
"                                                            ",
"                                                            ",
"                                                            "
};
