/* XPM */
static char *_8226_474e48d1084093c7eee90212488b409ad8c819d64d96f98f58cf8acb515f0d3a[] = {
/* columns rows colors chars-per-pixel */
"60 60 196 2 ",
"   c #000001",
".  c #0A0605",
"X  c #010903",
"o  c #0C0909",
"O  c #130A08",
"+  c #1A0E0A",
"@  c #051A05",
"#  c #061506",
"$  c #1D1209",
"%  c #1D1E0D",
"&  c #131518",
"*  c #29170B",
"=  c #281712",
"-  c #341D15",
";  c #082908",
":  c #072309",
">  c #11280E",
",  c #09320A",
"<  c #0B3A0B",
"1  c #062E10",
"2  c #0A3A14",
"3  c #163812",
"4  c #1A2E11",
"5  c #212100",
"6  c #392010",
"7  c #372A14",
"8  c #353A17",
"9  c #14272D",
"0  c #363525",
"q  c #452717",
"w  c #573119",
"e  c #512D1A",
"r  c #65391C",
"t  c #4A2920",
"y  c #453B28",
"u  c #583921",
"i  c #542F20",
"p  c #633820",
"a  c #0D420D",
"s  c #0D4911",
"d  c #0A4D1A",
"f  c #164B12",
"g  c #0E5316",
"h  c #0D5D1D",
"j  c #195A14",
"k  c #205215",
"l  c #0F651F",
"z  c #1B661B",
"x  c #206717",
"c  c #216718",
"v  c #2E7F1F",
"b  c #27731B",
"n  c #317B1F",
"m  c #3A5620",
"M  c #0E6B23",
"N  c #0D6520",
"B  c #0F7325",
"V  c #107425",
"C  c #107B29",
"Z  c #167628",
"A  c #356526",
"S  c #207B24",
"D  c #5C550B",
"F  c #57411D",
"G  c #404116",
"H  c #616101",
"J  c #495623",
"K  c #544638",
"L  c #56452D",
"P  c #734120",
"I  c #794824",
"U  c #6B5229",
"Y  c #537F26",
"T  c #566A3A",
"R  c #417F22",
"E  c #1F3348",
"W  c #315273",
"Q  c #296470",
"!  c #4F504A",
"~  c #635441",
"^  c #4A7941",
"/  c #6C7251",
"(  c #4D4E6B",
")  c gray38",
"_  c #84591C",
"`  c #967018",
"'  c #8C5E26",
"]  c #804E26",
"[  c #8B6C34",
"{  c #966A36",
"}  c #9F773C",
"|  c #A87639",
" . c #856345",
".. c #966A47",
"X. c #986C48",
"o. c #9A7543",
"O. c #857057",
"+. c #80735F",
"@. c #806C53",
"#. c #A47A41",
"$. c #A57C58",
"%. c #1C8529",
"&. c #198329",
"*. c #288F29",
"=. c #248727",
"-. c #348B22",
";. c #2C9229",
":. c #3A9725",
">. c #3A9825",
",. c #3A9E29",
"<. c #369426",
"1. c #3EA229",
"2. c #518734",
"3. c #629A2F",
"4. c #41A429",
"5. c #68A633",
"6. c #75967C",
"7. c #999010",
"8. c #B9A010",
"9. c #8F8538",
"0. c #AF8B39",
"q. c #B6843F",
"w. c #B99932",
"e. c #B29022",
"r. c #CAB70C",
"t. c #C5AA2B",
"y. c #D1BD20",
"u. c #CCB423",
"i. c #9BCA12",
"p. c #AED50F",
"a. c #D9C814",
"s. c #C3DE0A",
"d. c #E7D917",
"f. c #EADB15",
"g. c #CCE50A",
"h. c #E7F405",
"j. c #FFFF00",
"k. c #FBF40A",
"l. c #F7EA14",
"z. c #F4EE08",
"x. c #D9C926",
"c. c #C6C320",
"v. c #EED529",
"b. c #E8C736",
"n. c #8A895C",
"m. c #AA8248",
"M. c #B58844",
"N. c #AF8851",
"B. c #93AF5F",
"V. c #9B906C",
"C. c #A08768",
"Z. c #A78B67",
"A. c #BA9D7A",
"S. c #AA8C6C",
"D. c #A4A87B",
"F. c #C39649",
"G. c #C9994A",
"H. c #C39145",
"J. c #CDA64E",
"K. c #DEAC52",
"L. c #D3AA44",
"P. c #E2B748",
"I. c #E4BC42",
"U. c #C6A57A",
"Y. c #31529C",
"T. c #00749F",
"R. c #455E9A",
"E. c #5A6A97",
"W. c #4B6883",
"Q. c #6E7795",
"!. c #3EA2B8",
"~. c #7D94A6",
"^. c #00BAFF",
"/. c #99999B",
"(. c #A5B983",
"). c #9F9FA0",
"_. c gray",
"`. c #8BB192",
"'. c #CFAD81",
"]. c #D5B48B",
"[. c #D7B787",
"{. c #DABA91",
"}. c #A5CDAE",
"|. c #DFC59E",
" X c #E5C69D",
".X c #DFC9A5",
"XX c #EFD3AA",
"oX c #F2DCB4",
"OX c #FFE6BD",
"+X c #FAE0B7",
"@X c #DFE1C5",
"#X c #E3EAE8",
"$X c #E6E9F2",
"%X c #FFFFFF",
"&X c #FFFBF7",
"*X c None",
/* pixels */
"*X*X*X*X*X*X*X*X*X*X*X*X*X*X*X*X*X*X*X*X*X*X*X*X*X*X*X*X*X*X*X*X*X*X*X*X*X*X*X*X*X*X*X*X*X*X*X*X*X*X*X*X*X*X*X*X*X*X*X*X",
"*X*X*X*X*X*X*X*X*X*X*X*X*X*X*X*X*X*X*X*X*X*X*X*X*X*X*X*X*X*X*X*X*X*X*X*X*X*X*X*X*X*X*X*X*X*X*X*X*X*X*X*X*X*X*X*X*X*X*X*X",
"*X*X*X*X*X*X*X*X*X*X*X*X*X*X*X*X*X*X*X*X*X*X*X*X*X*X*X*X*X*X*X*X*X*X*X*X*X*X*X*X*X*X*X*X*X*X*X*X*X*X*X*X*X*X*X*X*X*X*X*X",
"*X*X*X*X*X*X*X*X*X*X*X*X*X*X*X*X*X*X*X*X*X*X*X*X*X*X*X*X*X*X*X*X*X*X*X*X*X*X*X*X*X*X*X*X*X*X*X*X*X*X*X*X*X*X*X*X*X*X*X*X",
"*X*X*X*X*X*X*X*X*X*X*X*X*X*X*X*X*X*X*X*X*X*X*X*X*X*X*X*X*X*X*X*X*X*X*X*X*X*X*X*X*X*X*X*X*X*X*X*X*X*X*X*X*X*X*X*X*X*X*X*X",
"*X*X*X*X*X*X*X*X*X*X*X*X*X*X*X*X*X*X*X*X*X*X*X*X*X*X*X*X*X*X*X*X*X*X*X*X*X*X*X*X*X*X*X*X*X*X*X*X*X*X*X*X*X*X*X*X*X*X*X*X",
"*X*X*X*X*X*X*X*X*X*X*X*X*X*X*X*X*X*X*X*X*X*X*X*X*X*X*X*X*X*X*X*X*X*X*X*X*X*X*X*X*X*X*X*X*X*X*X*X*X*X*X*X*X*X*X*X*X*X*X*X",
"*X*X*X*X*X*X*X*X*X*X*X*X*X*X*X*X*X*X*X*X*X*X*X*X*X*X*X*X*X*X*X*X*X*X*X*X*X*X*X*X*X*X*X*X*X*X*X*X*X*X*X*X*X*X*X*X*X*X*X*X",
"*X*X*X*X*X*X*X*X*X*X*X*X*X*X*X*X*X*X*X*X*X*X*X*X*X*X*X*X*X*X*X*X*X*X*X*X*X*X*X*X*X*X*X*X*X*X*X*X*X*X*X*X*X*X*X*X*X*X*X*X",
"*X*X*X*X*X*X*X*X*X*X*X*X*X*X*X*X*X*X*X*X*X*X*X*X*X*X*X*X*X*X*X*X*X*X*X*X*X*X*X*X*X*X*X*X*X*X*X*X*X*X*X*X*X*X*X*X*X*X*X*X",
"*X*X*X*X*X*X*X*X*X*X*X*X*X*X*X*X*X*X*X*X*X*X*X*X*X*X*X*X*X*X*X*X*X*X*X*X*X*X*X*X*X*X*X*X*X*X*X*X*X*X*X*X*X*X*X*X*X*X*X*X",
"*X*X*X*X*X*X*X*X*X*X*X*X*X*X*X*X*X*X*X#.#.#.r I 4.:.a g C *X*X*X*X*X*X*X*X*X*X*X*X*X*X*X*X*X*X*X*X*X*X*X*X*X*X*X*X*X*X*X",
"*X*X*X*X*X*X*X*X*X*X*X*X*X*X*X*X*X*X#.#.#.#.r r 4.>.a g C C *X*X*X*X*X*X*X*X*X*X*X*X*X*X*X*X*X*X*X*X*X*X*X*X*X*X*X*X*X*X",
"*X*X*X*X*X*X*X*X*X*X*X*X*X*X*X#.G.K.v.l.L.J.G.H.4.>.a j <.,.4.4.4.*.C *X*X*X*X*X*X*X*X*X*X*X*X*X*X*X*X*X*X*X*X*X*X*X*X*X",
"*X*X*X*X*X*X*X*X*X*X*X*X*X*X#.#.G.K.l.j.P.K.K.K.4.>.a j 4.4.4.4.4.*.C *X*X*X*X*X*X*X*X*X*X*X*X*X*X*X*X*X*X*X*X*X*X*X*X*X",
"*X*X*X*X*X*X*X*X*X*X*X*X#.#.y.j.j.j.I.K.k.j.j.j.4.>.a j 4.4.4.4.4.4.4.=.C C C s a *X*X*X*X*X*X*X*X*X*X*X*X*X*X*X*X*X*X*X",
"*X*X*X*X*X*X*X*X*X*X*X*Xw.w.x.l.l.l.I.K.k.j.l.l.5.3.j z -.:.4.4.4.4.4.*.%.C C g g *X*X*X*X*X*X*X*X*X*X*X*X*X*X*X*X*X*X*X",
"*X*X*X*X*X*X*X*X*X*X*X#.y.j.v.K.K.K.K.K.k.j.K.K.K.J.4.-.a c 4.4.4.1.4.4.4.%.C C C s a *X*X*X*X*X*X*X*X*X*X*X*X*X*X*X*X*X",
"*X*X*X*X*X*X*X*X*X*X*X#.e.8.e.| G.K.q.| u.y.v.v.v.x.4.-.a x 4.<.b b b <.4.%.C C C l h a *X*X*X*X*X*X*X*X*X*X*X*X*X*X*X*X",
"*X*X*X*X*X*X*X*X*X*X*X*XP r P P M.K.' r } #.j.j.j.h.4.-.a x 4.v a a a v 4.%.C C C C C a a *X*X*X*X*X*X*X*X*X*X*X*X*X*X*X",
"*X*X*X*X*X*X*X*X*X*X*X*X*X*X*X*X* * Z.U.'.'.0.0.P.b.h.p.:.n f x :.:.:.=.&.C C C C C C B N     *X*X*X*X*X*X*X*X*X*X*X*X*X",
"*X*X*X*X*X*X*X*X*X*X*X*X*X*X*X*X    C.].{.{.m.$.K.P.j.g.,.=.a z :.,.,.=.C C C C C C C C M     *X*X*X*X*X*X*X*X*X*X*X*X*X",
"*X*X*X*X*X*X*X*X*X*X*X*X*X*X*X*X    C.].+XOX{.].K.P.j.s.C V C l a h C C C C C C C C C C M     *X*X*X*X*X*X*X*X*X*X*X*X*X",
"*X*X*X*X*X*X*X*X*X*X*X*X*X*X*X*X     .Z.S.V..X Xb.b.a.c.2.2.l l g h l V C M N N l V C C B @ # *X*X*X*X*X*X*X*X*X*X*X*X*X",
"*X*X*X*X*X*X*X*X*X*X*X*X*X*X*X*X    w P .   OXOXj.z.| M.K.9.s g &.l s M C d a a a B C C V a ,     *X*X*X*X*X*X*X*X*X*X*X",
"*X*X*X*X*X*X*X*X*X*X*X*X*X*X*X  K O.( ( /.).OXOXt.t.G.q.{ o.n.B.(.D.D.R g d a @ @ g g C V a ,     *X*X*X*X*X*X*X*X*X*X*X",
"*X*X*X*X*X*X*X*X*X*X*X*X*X*X    O.{.E.Y.$X%XOXOX#.m.K.H.r ..]. XOXOXOX/ a a a X   < a C V a ,     *X*X*X*X*X*X*X*X*X*X*X",
"*X*X*X*X*X*X*X*X*X*X*X*X*X*X    O.].E.Y.$X%XOXOXI ' k.a.I $.+XOXOX[.N.y X X X *X*XX X C V a ,     *X*X*X*X*X*X*X*X*X*X*X",
"*X*X*X*X*X*X*X*X*X*X*X*X*X*X*X  @.A.Q.R.$X&XOXOXr _ j.f.] $.@X@XXXU.[ 7       *X*X    B M < ,     *X*X*X*X*X*X*X*X*X*X*X",
"*X*X*X*X*X*X*X*X*X*X*X*X*X*X*X*X    C.].+XOXOXOXP _ j.l.K.`.^.!.m.F       *X*X*X*X    a <     *X*X*X*X*X*X*X*X*X*X*X*X*X",
"*X*X*X*X*X*X*X*X*X*X*X*X*X*X*X*X*X  ~ O. XXXXXXXX.o.r.a.v.B.T.Q U F F D H *X*X*X*X    ; 1     *X*X*X*X*X*X*X*X*X*X*X*X*X",
"*X*X*X*X*X*X*X*X*X*X*X*X*X*X*X*X*X*X    A.].].].].U.P ` j.7.  .   U K.v.j.*X*X*X*X*X*X    *X*X*X*X*X*X*X*X*X*X*X*X*X*X*X",
"*X*X*X*X*X*X*X*X*X*X*X*X*X*X*X*X*X*X*X*Xy K ^ ~ T T * F b.7.  # 1 8 u D H *X*X*X*X*X*X*X*X*X*X*X*X*X*X*X*X*X*X*X*X*X*X*X",
"*X*X*X*X*X*X*X*X*X*X*X*X*X*X*X*X*X*X*X*X    a a s <   7 K.[   # 2 :       *X*X*X*X*X*X*X*X*X*X*X*X*X*X*X*X*X*X*X*X*X*X*X",
"*X*X*X*X*X*X*X*X*X*X*X*X*X*X*X*X*X*X        Z B X > G.[ $ 4 M Z B m r *   *X*X*X*X*X*X*X*X*X*X*X*X*X*X*X*X*X*X*X*X*X*X*X",
"*X*X*X*X*X*X*X*X*X*X*X*X*X*X*X*X*X*X@ # 5 5 C C   $ F.} O 2 C Z Z m r = o *X*X*X*X*X*X*X*X*X*X*X*X*X*X*X*X*X*X*X*X*X*X*X",
"*X*X*X*X*X*X*X*X*X*X*X*X*X*X*X*X    n 4.h.j.C C       $ P J C A P 6   E W &   *X*X*X*X*X*X*X*X*X*X*X*X*X*X*X*X*X*X*X*X*X",
"*X*X*X*X*X*X*X*X*X*X*X*X*X*X*X*X    n 4.i.p.d d ) ! , ; q m A D P 7 @ 9 E ! K *X*X*X*X*X*X*X*X*X*X*X*X*X*X*X*X*X*X*X*X*X",
"*X*X*X*X*X*X*X*X*X*X*X*X*X*X*X*X    n 4.C C     %X#XC g   * P r P e a @   C.].&   *X*X*X*X*X*X*X*X*X*X*X*X*X*X*X*X*X*X*X",
"*X*X*X*X*X*X*X*X*X*X*X*X*X*X*X*X    z =.2 1 E E /.~.}.~.  4 2.Y 2.R -.s ; 0 L o   *X*X*X*X*X*X*X*X*X*X*X*X*X*X*X*X*X*X*X",
"*X*X*X*X*X*X*X*X*X*X*X*X*X*X*X*X    h C #   W W W W.%X_.X 3 4.4.4.4.4.c < #       *X*X*X*X*X*X*X*X*X*X*X*X*X*X*X*X*X*X*X",
"*X*X*X*X*X*X*X*X*X*X*X*X*X*X*X*X            I r P r   @ C =.4.4.4.*.C 1       *X*X*X*X*X*X*X*X*X*X*X*X*X*X*X*X*X*X*X*X*X",
"*X*X*X*X*X*X*X*X*X*X*X*X*X*X*X*X. O O O     X.X.X. .  : %.;.4.4.<.S h > $ .   *X*X*X*X*X*X*X*X*X*X*X*X*X*X*X*X*X*X*X*X*X",
"*X*X*X*X*X*X*X*X*X*X*X*X      . = t t t .   OXOXOX.X  > 4.4.4.;.C 2   q P +   *X*X*X*X*X*X*X*X*X*X*X*X*X*X*X*X*X*X*X*X*X",
"*X*X*X*X*X*X*X*X*X*X*X*X    * 6 i p t t .   +.+.+./   # k k k f a > = i P +   *X*X*X*X*X*X*X*X*X*X*X*X*X*X*X*X*X*X*X*X*X",
"*X*X*X*X*X*X*X*X*X*X*X*X    6 r I r i t .                         = t p P $   *X*X*X*X*X*X*X*X*X*X*X*X*X*X*X*X*X*X*X*X*X",
"*X*X*X*X*X*X*X*X*X*X*X*X*X*X+ $ $ $ + O     *X*X*X*X*X*X*X    O - - t - $ *X*X*X*X*X*X*X*X*X*X*X*X*X*X*X*X*X*X*X*X*X*X*X",
"*X*X*X*X*X*X*X*X*X*X*X*X*X*X                *X*X*X*X*X*X*X*X  $ i t t +   *X*X*X*X*X*X*X*X*X*X*X*X*X*X*X*X*X*X*X*X*X*X*X",
"*X*X*X*X*X*X*X*X*X*X*X*X*X*X*X*X*X*X*X*X*X*X*X*X*X*X*X*X*X*X          *X*X*X*X*X*X*X*X*X*X*X*X*X*X*X*X*X*X*X*X*X*X*X*X*X",
"*X*X*X*X*X*X*X*X*X*X*X*X*X*X*X*X*X*X*X*X*X*X*X*X*X*X*X*X*X*X          *X*X*X*X*X*X*X*X*X*X*X*X*X*X*X*X*X*X*X*X*X*X*X*X*X",
"*X*X*X*X*X*X*X*X*X*X*X*X*X*X*X*X*X*X*X*X*X*X*X*X*X*X*X*X*X*X*X*X*X*X*X*X*X*X*X*X*X*X*X*X*X*X*X*X*X*X*X*X*X*X*X*X*X*X*X*X",
"*X*X*X*X*X*X*X*X*X*X*X*X*X*X*X*X*X*X*X*X*X*X*X*X*X*X*X*X*X*X*X*X*X*X*X*X*X*X*X*X*X*X*X*X*X*X*X*X*X*X*X*X*X*X*X*X*X*X*X*X",
"*X*X*X*X*X*X*X*X*X*X*X*X*X*X*X*X*X*X*X*X*X*X*X*X*X*X*X*X*X*X*X*X*X*X*X*X*X*X*X*X*X*X*X*X*X*X*X*X*X*X*X*X*X*X*X*X*X*X*X*X",
"*X*X*X*X*X*X*X*X*X*X*X*X*X*X*X*X*X*X*X*X*X*X*X*X*X*X*X*X*X*X*X*X*X*X*X*X*X*X*X*X*X*X*X*X*X*X*X*X*X*X*X*X*X*X*X*X*X*X*X*X",
"*X*X*X*X*X*X*X*X*X*X*X*X*X*X*X*X*X*X*X*X*X*X*X*X*X*X*X*X*X*X*X*X*X*X*X*X*X*X*X*X*X*X*X*X*X*X*X*X*X*X*X*X*X*X*X*X*X*X*X*X",
"*X*X*X*X*X*X*X*X*X*X*X*X*X*X*X*X*X*X*X*X*X*X*X*X*X*X*X*X*X*X*X*X*X*X*X*X*X*X*X*X*X*X*X*X*X*X*X*X*X*X*X*X*X*X*X*X*X*X*X*X",
"*X*X*X*X*X*X*X*X*X*X*X*X*X*X*X*X*X*X*X*X*X*X*X*X*X*X*X*X*X*X*X*X*X*X*X*X*X*X*X*X*X*X*X*X*X*X*X*X*X*X*X*X*X*X*X*X*X*X*X*X",
"*X*X*X*X*X*X*X*X*X*X*X*X*X*X*X*X*X*X*X*X*X*X*X*X*X*X*X*X*X*X*X*X*X*X*X*X*X*X*X*X*X*X*X*X*X*X*X*X*X*X*X*X*X*X*X*X*X*X*X*X",
"*X*X*X*X*X*X*X*X*X*X*X*X*X*X*X*X*X*X*X*X*X*X*X*X*X*X*X*X*X*X*X*X*X*X*X*X*X*X*X*X*X*X*X*X*X*X*X*X*X*X*X*X*X*X*X*X*X*X*X*X",
"*X*X*X*X*X*X*X*X*X*X*X*X*X*X*X*X*X*X*X*X*X*X*X*X*X*X*X*X*X*X*X*X*X*X*X*X*X*X*X*X*X*X*X*X*X*X*X*X*X*X*X*X*X*X*X*X*X*X*X*X"
};
