/* XPM */
static char *_207_973b7463040d94995fbb848362b18d2a6cd97f347bc0e8863570d8c688e21988[] = {
/* columns rows colors chars-per-pixel */
"60 60 220 2 ",
"   c #160E1E",
".  c #150E21",
"X  c #1C1224",
"o  c #1A132A",
"O  c #1C1B29",
"+  c #171423",
"@  c #1A1D30",
"#  c #221525",
"$  c #201329",
"%  c #241D2C",
"&  c #2A1D2E",
"*  c #241C31",
"=  c #2B1E31",
"-  c #26212C",
";  c #2A242E",
":  c #252333",
">  c #2C2434",
",  c #2D2936",
"<  c #2D2B39",
"1  c #272837",
"2  c #312534",
"3  c #342C35",
"4  c #31243A",
"5  c #332C3B",
"6  c #3A2D3D",
"7  c #3C2C36",
"8  c #2E313D",
"9  c #34333D",
"0  c #3A343D",
"q  c #3C393E",
"w  c #333037",
"e  c #43343D",
"r  c #49353E",
"t  c #463A3E",
"y  c #422A37",
"u  c #2E2F41",
"i  c #352B41",
"p  c #392B41",
"a  c #343342",
"s  c #3B3443",
"d  c #373A42",
"f  c #3D3B44",
"g  c #3D3B4A",
"h  c #423643",
"j  c #443C44",
"k  c #493B45",
"l  c #443C4A",
"z  c #4B3D4A",
"x  c #453646",
"c  c #513D4C",
"v  c #503A46",
"b  c #463E51",
"n  c #4B3E51",
"m  c #523F52",
"M  c #3E4245",
"N  c #3D444B",
"B  c #3D4C4D",
"V  c #364548",
"C  c #3C514C",
"Z  c #444345",
"A  c #4A4346",
"S  c #424A47",
"D  c #44434B",
"F  c #4B444C",
"G  c #434B4D",
"H  c #4D494E",
"J  c #52424D",
"K  c #534C4D",
"L  c #58424E",
"P  c #454351",
"I  c #4C4453",
"U  c #464B51",
"Y  c #4D4A53",
"T  c #4D475A",
"R  c #4F4F59",
"E  c #524454",
"W  c #534B54",
"Q  c #5A4C56",
"!  c #544C5B",
"~  c #5A4D5B",
"^  c #554557",
"/  c #4B5355",
"(  c #49545D",
")  c #435453",
"_  c #545156",
"`  c #56535B",
"'  c #5C535C",
"]  c #5D5B5C",
"[  c #5B5658",
"{  c #62545E",
"}  c #625C5D",
"|  c #68575F",
" . c #5B605A",
".. c #564E61",
"X. c #5A4D62",
"o. c #5E4B6B",
"O. c #555563",
"+. c #5C5363",
"@. c #565A62",
"#. c #5D5A64",
"$. c #5D546B",
"%. c #5E5C6B",
"&. c #575A69",
"*. c #604963",
"=. c #625464",
"-. c #625C64",
";. c #6A5D64",
":. c #63556A",
">. c #635C6B",
",. c #6A5D6C",
"<. c #735E6B",
"1. c #745D68",
"2. c #655974",
"3. c #6B5D72",
"4. c #695C78",
"5. c #755D74",
"6. c #5D6262",
"7. c #5C646A",
"8. c #656365",
"9. c #6A6565",
"0. c #666A65",
"q. c #6B6A66",
"w. c #65646A",
"e. c #6B646B",
"r. c #656C6D",
"t. c #6C6B6C",
"y. c #716466",
"u. c #716B66",
"i. c #726D6D",
"p. c #79696E",
"a. c #6E726D",
"s. c #67736A",
"d. c #72726E",
"f. c #7A726E",
"g. c #78796E",
"h. c #666472",
"j. c #6B6473",
"k. c #656D72",
"l. c #6D6C71",
"z. c #6B6D7A",
"x. c #6C647C",
"c. c #736574",
"v. c #736D73",
"b. c #7A6E74",
"n. c #736C7A",
"m. c #7B6D7B",
"M. c #746577",
"N. c #6D7373",
"B. c #6D7975",
"V. c #6D7A79",
"C. c #6A7176",
"Z. c #747473",
"A. c #7A7574",
"S. c #757974",
"D. c #7A7976",
"F. c #75757A",
"G. c #7B757B",
"H. c #757A7A",
"J. c #7B7B7B",
"K. c #81757B",
"L. c #827C7D",
"P. c #867679",
"I. c #7B8074",
"U. c #77817D",
"Y. c #7C817B",
"T. c #82817D",
"R. c #726E80",
"E. c #6E7180",
"W. c #767683",
"Q. c #7C7582",
"!. c #7D7C82",
"~. c #787A88",
"^. c #847681",
"/. c #837C84",
"(. c #897C85",
"). c #847D8A",
"_. c #8A7E8A",
"`. c #897686",
"'. c #827F91",
"]. c #8A7E92",
"[. c #8E7E98",
"{. c #947E8B",
"}. c #7E8184",
"|. c #7A8689",
" X c #7F8190",
".X c #6C8486",
"XX c #848284",
"oX c #898385",
"OX c #85838B",
"+X c #8B848C",
"@X c #848A8D",
"#X c #8B898C",
"$X c #888986",
"%X c #91848D",
"&X c #928A8D",
"*X c #94908F",
"=X c #8C8493",
"-X c #858A92",
";X c #8D8A92",
":X c #8C8599",
">X c #888996",
",X c #928693",
"<X c #928B93",
"1X c #988D96",
"2X c #938D9B",
"3X c #948599",
"4X c #8C9297",
"5X c #939195",
"6X c #95949D",
"7X c #9A939C",
"8X c #95969B",
"9X c #9A95A3",
"0X c #9499A1",
"qX c #9C99A4",
"wX c #9D9CAA",
"eX c #9594A3",
"rX c #A39DA9",
"tX c #99A5AC",
"yX c #A2A2AA",
"uX c #A9A3AF",
/* pixels */
"#X#XT T yX5X@XOX<XXX&X#Xn.9 2X4X,X_.,X,X+X,X#X@Xg z.tX|.&X,X%X,X>.P eX;X;X@X;X=X+X,X`.0 @X6X;X+X,X=X#X#X=X,XI :.wX-X>X1X",
"i./.w.>.>Xl.F.Q.G.v.A.D.Q.F -X!.Z.G.F.b.G.G.G.OXz !.@Xk.Z.G.Z.OX>.~ <XF.F.F.G.G.J.F.+Xf >X~.XXZ.G.b.Z.A.H.XX^ M.;XN.F.G.",
"D.A.R >.;Xd.Y.v.A.D.A.i.Z.T #XJ.Z.J.A.Z.D.A.i.A.c `.!.Z.Z.J.N.H.] #.;Xa.D.D.A.G.A.p.M.A }.H.Z.f.J.v.Z.g.Z.D.W n.#XN.J.Z.",
"g.i.D 8.$X0.D.S.d.L.D.9.] F OXZ.B.d.a.S.S.Z.Z.q.x b.J.J.Z.S.D.N.W _ $Xf.D.Z.f.S.Z.b.;.H !.}.a.J.A.S.S.d.D.i.0 t.XXt.D.t.",
"S.i.F j.1Xv.Z.S.J.Z.t.u.' Y ,XJ.D.a.a.H.Z.S.L.q.Z Q.XXZ.J.A.J.A.Q ` #XL.Z.S.D.d.0.i.;.e @XG.i.A.Z.D.S.i.T.t.q F.XXd.D.Z.",
"d.-.5 ~ 1X$XF.l.F.w.8.q.F l `.%XJ.A.A.}.t.t.v.' 8 Q.=XA.#XF.e.c.g Y +X/.v.Z.F.h.t.i.W 0 OX;X^.P.F.J.A.9.f.#.w j.&X(.J.!.",
"Z 6 $ 4 T ~ D a 9 G Z h % $ n ' ^ ^ s g D l l > . s X.I g G l h o * ! ` F 5 5 N Z j X $ h +.c L g 9 H x x i X 5 =.{ s P ",
"F.j.4.2.3.n.O.1 g W.F.e.3.3.3.+.<.5.6 s >.n.m.M.x.*.c.+.O ( ~.j.x.$.3.x.>.5 a E.N.n.M.,.3.+.c.1.g > >.n.v.n.2.2.:.-.> D ",
";X5X/.(.+X(.1Xz OXeXXXXX<X/.G.p./.5X-.+.uX;XXX@X).XX<XXXj /.<XT.$X$XXX/.7X~ v.rX#X/.&X%XA.v.!.4Xv.Q yX;X}.}.#X#X$X#XH ,.",
"Z.a.a.A.J.G.L.A W.OXZ.t.t.m.A.u.l.XX8.-.2Xe.t.A./.A.A.A.F j.d.d.Z.a.A.Z.OX! z.).t.0.f.8.L.i.J.A.c.H $Xl.H.J.A.i.D.J.A ;.",
"S.a.H.Z.Z.S.0.Z !.J.S.S.q.J.L.A.D.i.j ` ;XF.J.Z.t.D.f.} Z W.J.Z.d.S.J.v.0.Z v.#XZ.J.9.J.L.A.f.Z.W W 8XA.J.S.Z.d.u.9.Z 0.",
"S.a.U.Z.Z.J.t.A !.D.d.D.i.G.Z.A.D.Z.A -.+Xq.D.S.G.A.Z.} D l.H.S.D.S.Z.J.Z.Y k./.q.D.0.XXd.D.g.D.Q K #Xt.Z.S.J.A.P.0.M k.",
"S.D.A.G.A.G.w.j `.$XA.S.G.J.v.A.f.Z.F -.,Xl.t.d.S.d.A.] D n.}.B.A.J.Z.H.t.H w.<XS.J.J.Z.v.Z.L.q.E J &XZ.q.d.H.N.L.] N C.",
"F.v.-.w.-.] j ; :.`.v.e.v.-.#.#.8._ - x /.G.w.] ` _ 8.0 , j.@X0.#.l.#.` g , E _.A.p.l.w.&.#.-.] = e ^.G.8.#.] #.] q , @.",
"E l s ; % D 5 : 4 E F j s . a d F h & 2 n T l f , - l < = s I J h , + g f , 6 x k x 4 > , l w H i 4 g D A F - > g 5 & p ",
"=X-X).Y T 9X2X>X[.=X`.OXn.i '.wX=X=X=X,X].=X>XOXu %.wX:X3X[._.+X[...b 2XeX=X].].{.3XQ.5 R.wX;X).[.:X].=X3X).l ..eXeX=X[.",
"A.i.,XX.v.7Xt.H.}.Z.A.J./.! 6X!.D.Z.Z.A.A.H.J.XXJ +X#XJ.F.N.J.Z.&X{ >.qXl.J.J.F.H.G.{.z 7XOXF.F.H.H.S.d.A.#XQ K.5XA.A.D.",
"H.J./.F -.#XZ.S.Z.A.d.Z.e.l +XG.S.Z.H.H.Z.Z.H.A.x G.G.t.S.S.D.Z.K.Q -.,XN.d.H.H.N.Z.b.l ).F.Z.S.N.Z.J.S.Z.^.z j.OXl.H.J.",
"a.J.t.j w.+XD.D.S.J.g.f.+.H +XJ.H.A.J.J.Z.Z.Z.y.x ^./.A.Y.S.A.S.i.A ` OXL.Z.S.A.J.i.=.J /.J.J.S.G.F.J.S.l.v.l c.OXS.H.F.",
"d.d.9.H b.(.t.f.A.Z.d.A.' H $Xi.J.t.N.H.Z.J.G.9.z ^./.d.S.Z.N.A.g.H ] #XJ.f.S.Z.B.Z.' A !.J.Z.d.G.F.Z.Z.G.q.F F.OXS.G.G.",
"Y.D.v.F c.#XZ.v.H.t.D.L.-.Y <XZ.A.Z.S.S.S.D.D.y.F Q.!.e.Z.J.J.J.A.K +.<Xb.u.J.J.q.T.9.j OXJ.G.D.Z.J.d.S.T.t.Z v.J.q.i.S.",
"i.i.w.5 +.;X).F.F.r.D.e.I f ;X+XA.L.D.a.a.d.9.} 5 n.#XG.i.i.p.b.9.h ^ 2XQ.F.Z.N.t.Z.' 6 ).@XJ.K.G.Z.t.q.d.' 0 :.*XD.Z.f.",
"r k 6 X i +.O.s a D D 0 % o T #.Q ^ j 8 N U f 5 . g -.Q x e e k e # 4 +.+.Z 9 P Y s > X I %.W J P 8 Z H l 5 = p -.Q j 6 ",
"<.<.=.*.2.$.~ : g F.v.j.4.$.2.j.3.=.s u %.~.h.:.%.%.j.;.=.1.1.<.:.X.$.:.+.1 d z.F.>.,.:.$.x.:.<.g : O.~.h.:.2.o.,.3.e.:.",
"+X;XXXA.<X&X3Xm |.eX(.,X/.-X5X+X#X<X-.%.wXOXOX$X&X#XXX$X+X(._.#X}.J.$X=X,X` w.yX).$X#XoX$X#XXX4XR.z rX+XOX#X#XOX+X+X+X@X",
"Q.w.q.q.9.A.(.k ~.-Xd.d.b.F.J.q.0./.8.#.2XF.A.J.u.d.Z.Z.A.G.A.Z.u. .9.A.XX[ l.;XJ.A.d.Z.Z.Z.t.!.n.` 8XN.t.Z.Z.J.Z.A.A.Z.",
"d.d.Y.g.d.f.q.K m.J.s.B.T.b.A.D.L.A.K _ OXl.i.d.L.A.S.N.Z.A.G.N.S.d.A.Z.i.e l./.t.F.Z.D.Z.J.J.Z.Y / @Xt.D.T.f.i.A.S.D.Z.",
"J.J.d.a.D.J.] F (.oXB.s.A.Z.f.g.A.q.W w.<XF.Z.J.A.d.H.S.G.J.Q.S.d.S.t.F.F.H m._.Z.}.S.d.t.J.L.f.R >.@XF.S.S.A.S.D.S.A.A.",
"l.k.Z.t.8.7.Y - 2.].(.G.k.z.Z.9.t.Y , D ~.'.G.l.N.0.r.6.8.} t.a.0.Z.w.w.T > +.,XD.Z.t.N.N.-.] } 4 n /.OXD.N.r.k.k.w.8.w.",
"D R D 9 D l < - a l e F ( V P 3 h j > : s P ! / f M ) q Z 7 Z / I s 9 f 9 * > n F Z H 9 U Z j j = % x I D R V B N V 9 9 ",
"/.OXI j 2X3X!.-X!./._.+Xz.8 ~.6X/.+X/.~.).OX/.J.f r.-XW.,XK.L./.W l -X2X;XQ.G./.Q.G.!.d l.OX+X+X=XQ././.OX).Y U 8X-XXX).",
"G.XXw.w.6XF.F.F.^.G.J.Z.(.n 0X.XA.G.G./.Q.Z.J.$XP ~.6XF./.G.Q.OX/.F 9XJ.N.J./.G./.G.-XP -X>XF.F.V.H.J.b.L.+XQ v.-X!.F.F.",
"S.J._ ' 3XJ.v.S.F.N.S.L.8.F $XA.Z.C.F.H.B.F.b.G.F b.!.N.A.S.F.J.=.W #XZ.t.!.G.b.F.H.v.h /.J.t.J.v./.N.s.}.A.z p./.A.A.J.",
"d.t.H e.+Xi.J.S.J.D.d.i.8.W XXA.Y.A.S.Z.d.Z.i.t.l v.#XJ.H.D.D.i._ _ ;XZ.Y.A.t.F.D.8.8.A XXXXZ.A.D.Z.Z.J.Z.t.H -.$XZ.Z.S.",
"D.A.A e.+X9.J.s.S.d.u.q.} E (.A.f.d.d.Z.Z.S.A.u.j n.XXe.t.d.f.g.W Q #Xi.S.Z.Z.Y.Z.q.-.j /.L.q.Z.B.a.f.A.i.v.H j.oXi.Z.a.",
"v.v.0 Q 6X/.J.S.S.0.u.f.J x _.+XJ.L.T.H.G.Z.f.} 0 Q.;XG.#XXXi.d.x I ,X#XF.S.J.t.8.i.' 7 K.%XG.XXU.J.A.b.b.e.9 w.#XJ.$XJ.",
"F h X % :.#.I 9 d G H h & $ ^ -.Q W D s I D F 3 . b :.! I W G f * = X.>.D 9 d g H l 2   E :.' E G f D z z g   u >.` R Y ",
"n.+.#.+.$.w.+.- d n.t.' :...~ +.-.+.s 5 >.>.j.-.+...:.+.O I n.#.$.$.+.>.#.9 a z.F.=.>.#.~ ^ >.] g % #.>.>.h...O.#.~ > 6 ",
"6X).;X2X).+X3XE z.eX<X#X1X+XG.b.%X+X:.O.6X>X#X@X<X+X_.=Xj n.7X;X=XOX).+X9XO.#.wX#X/.,X<X/.b.%X1Xn.Y 6X;X#X=X,X+X=X=XE ,.",
"Z.Z.l.Z.A.A.(.J |.H.Z.G.e.e.A.y.i./.w.O.2XF.Z.Z.t.K.b./.k q.l.F.S.t.G.i.oXH j.;Xt.J.t.-.G.u.y.L.c.W 5XN.Z.a.A.F.b.XXj q.",
"C.!.A.Z.Z.A.t.Z m.!.V.B.9.(.J.Y.J.Z.W ] ,Xv.J.Z.S.A.L.] V B.H.G.F.Z.S.S.S.F e.OXH.S.8.J.(.G.J.F.[ K %XG.J.v.Z.J.d.0.M r.",
"J.S.Z.J.J.S.0.Z /.!.d.a.J.G.Z.t.d.D.K Q %XF.D.d.A.f.G.0.B r.Z.A.Z.S.S.d.a.Z e.+Xt.H.a.J.J.A.S.a.Q Q #XZ.A.!.D.t.S.0.S r.",
"A.A.J.u.q.L.l.g F.XXf.p.A.H.J.L.A.i.z Q 1Xv.t.d.S.F.L.] S S./.i.Z.J.Z.d.t.H v.<XZ.K.f.A.q.Z.G.L.z W $Xt.8.S.J.J.D.8.M r.",
"J.w.b.Z.e.>.I < &.+XP.P.t.7.} | q.Q 3 z _.v.w.t.w.>.] 0 , t.=XK.9.v.e.0._ , ! '.b.K.Z.l.w.w.} ;.6 x _.).l.w.` 6.-.F < ` ",
"_ s l > = p 4 * : z y z d 1 a h l h & > z T Y 9 = , d 4 % 5 z l s >   0 i O , b J l 0 O 1 g h j 4 $ s D g N % < 0 5 = p ",
"!.OX).n I 2XeX).~.=X%X`.3.: R.eX=X=X_.).~.).>XW.p :.:X>X=X(.].OX+X~ b OX2X:X].).^.`.n.s h.3X+X#X:X!.OX=XOX].b b 2X=X].].",
"!./.=X-.l.2XF.J.OXF.A.J.].E 3XOXF.Z.F.XXQ.J.XX#Xn ).eXF.G.m.G.S._.w.#.9XOXF.J.J.G.`.+XE =X5XF.Z.Q.J.J.S.J.,X#.M.4X}.F.Q.",
"Z.Z.G.Y -.#Xd.A.n.F.S.A.p.z #XV.Z.Y.Z.d.S.Z.Z.J.v b.}.t.L.A.Z.B.(.[ Y ;XZ.Z.J.d.S.d.m.e +XQ.0.U.d.S.d.g.A.L.k e.$Xs.C.A.",
"S.S.q.l ,.+XG.Z.H.S.A.A.#.D #XG.V.l.J.A.S.H.H.j.e b.oXZ.G.J.Z.F.a.K Q +X!.V.n.K.D.G.-.f /./.Z.G.G.A.S.S.G.v.j t.#XA.S.F.",
"s.d.N.K t.XXA.J.S.a.Z.Z._ D #Xd.J.Z.D.Z.N.Z.Z.q.H F.J.v.A.A.Z.J.d.A { <XF.H.D.A.t.a.e.q XXG.d.S.S.Z.S.D.f.p.Z 8.$Xa.N.J.",
"I.D.f.H t.OXt.N.S.d.T.T.-.Y &XA.S.i.f.D.S.D.A.p.D F.XXd.a.A.A.D.T.K | <Xr.t.D.D.H.S.N.Z OXJ.S.d.d.S.a.S.K.A.W v.$Xd.N.J.",
"f.d.8.3 #.<X}.J.H.d.q.e.W j OX=XJ.L.G.G.a.a.p.} < v.;XG.q.Z.A.p.e.t K 1X/.!.A.d.S.0.` 9 H.OXXXJ.A.}.s.r.A.;.6 :.;XF.v.v.",
"k J z # 6 :.+.I f / Y f 5 * ! h.' -.z f U Y F 7 + I >.~ J c c L x & > +.>.E f G Q D 2 % T >.] Q H g B R T s X p ,.=.E z ",
"{ { ~ z ! =.^ & 1 r.k.+.$.T O.#.~ ~ 5 : &.h.>.Q T X.=.:.=.Q Q =.+.! E ~ ~ = 1 7.e.-.~ T X.3.~ { l + O.k.+.+.X.X.>.:.' Q ",
",X%X/./.,X,X,X^ ~.qX<XOX=X=X=X#X%X,X>.&.wX6X<X%X2X,X$X&X<X%X+X1XG.J.4X#X1XX.j.tX$X#X=X=X=X,X#X5Xm.I 0X6X#X,X,X#X+X+X+X;X",
"Z.A.0.0.0.v.#Xz ~.!.t.Z.F.b.d.f.f.(.#.( 0XC.v.A.l.Z.Z.a.d.A.Z.l.A. .q.e.%X~ h.4Xa.t.J.Z.F.d.f.D.c.! 8Xr.S.G.e.F.Z.Z.Z.A.",
"D.F.m.s.f.g.q.N C./.d.a.b.A.H.g.d.S.R ] #Xp.A.G.Z.J.Z.S.G.A.S.Z.A.N.u.D.H.E 7.oXA.B.S.f.H.Z.A.S._ / #Xb.H.F.K.A.S.d.D.f.",
"D.A.G.H.P.J.i.D W.%XD.S.G.S.H.A.A.S.T @.<XP.H.Z.Z.J.f.S.G.Z.J.J.F.S.f.S.l.z 7.5XA.B.D.v.J.Z.K.S.W / <XK.H.B.G.J.H.d.A.Z.",
"d.C.b.k.;.0.Q 1 h.(.D.S.A.k.C.y.-.6.s Y OX^.H.H.t.B.t.w.t.w.Z.F.l.s.y.0.@.s O.+XG.V.H.i.C.0.;.6.s N (.(.H.V.k.r.C.8.i.8.",
"A B G B r D p o 9 E H U Y N G r t g $ @ T I C / G G S h M 9 F U U S e h a X 1 E L U U Z G f k M * @ b ^ ) ) G B S f j w "
};
