/* XPM */
static char *_2392_c8c7cb08886cf1a799d62f9ecf855bf27dce662a3c987eb6ac6fad3213ac7f38[] = {
/* columns rows colors chars-per-pixel */
"38 56 34 1 ",
"  c black",
". c #070707",
"X c #090401",
"o c #0C0C0C",
"O c gray5",
"+ c #131313",
"@ c gray8",
"# c #151515",
"$ c gray10",
"% c gray11",
"& c #202020",
"* c gray13",
"= c #232323",
"- c #272727",
"; c #2D2D2D",
": c gray18",
"> c #343434",
", c #353535",
"< c #3D3936",
"1 c #3A3A3A",
"2 c gray23",
"3 c #414141",
"4 c gray26",
"5 c #484848",
"6 c #4E4E4E",
"7 c gray31",
"8 c #524F4C",
"9 c #555555",
"0 c #565656",
"q c #5B5B5B",
"w c gray36",
"e c #626262",
"r c DimGray",
"t c None",
/* pixels */
"tttttttttttttttttttttttttttttttttttttt",
"tttttttttttttttt        tttttttttttttt",
"tttttttttttt   ;$O>>>$O>o  ttttttttttt",
"ttttttttt   +>>w7>>r4>3r2>*   tttttttt",
"tttttttto>>>>2rrrw>>>7rrr5>>>>%ttttttt",
"ttttttt#:rrr7-44-$$ @$$>4>3rrr4=tttttt",
"tttttt -rrrrw*  2+277+2+ @3rrr7>=ttttt",
"ttttt@$>7r9$. 5wee$9&7eew+.O37-2w$tttt",
"tttt qr5-7.5ww$9e$@.@@3r&7ww+ 3rrr$ tt",
"tttt$ere4X8err>.$2;w7$>O.erre+<9rr$ tt",
"tt $rrr4  7r6OO3rr23-rre$O>e$7$-rq-. t",
"tt @qre$7r$1-rr:777+577-er4O7rr$>O7> t",
"tt   q&O7r5+rrr5.      -er0>>rr$Orr> t",
"t >rrO 7r0;>20>O        ;>>92,q- 7rr6 ",
"t >rrO 3r23r4$            >rr@-7$ 7r6 ",
"t >rrOOO2*er+             O5r :r- 7r6 ",
"t >rrO7r$-rr               3$4*er$7r6 ",
"t .OO 7r$.5&               .76 7r$.OO ",
"t -77O7rOr-                 7r43r$272 ",
"t >rrO;4Or-                  r4-4+7r6 ",
"t >rrO*-Or-                  r4$-.7r6 ",
"t >rrO7r.>+                  >*3r$7r6 ",
"t +--.7r.4$                  4-3r$$-* ",
"t $>>.7rOr-                  r43r$->- ",
"t >rrO->Or-                  r4*>O7r6 ",
"t >rrO,4Oq&                  q2-4O7r6 ",
"t >rrO7r $O                  $+3r$7r6 ",
"t *44.7rOr-                  r43r$;4> ",
"t O$$.7rOr-                  r43r$+$+ ",
"t >rrO@$Or-                  r4@$.7r6 ",
"t >rrO27.-O                  -$;7+7r6 ",
"t >rrO7r.7&                  7>3r$7r6 ",
"t ;qqO7rOr-                  r43r$3q5 ",
"t     7rOr-                  r43r$    ",
"t >rrO.OO7$                  7;.O.7r6 ",
"t >rrO7r.-O                  -$3r$7r6 ",
"t >rrO7rOr-                  r43r$7r6 ",
"t >rrO7rOr-                  r43r$7r6 ",
"t .OO 3qOr-                  r41q$.OO ",
"t -77OOO O.                  O..O 272 ",
"t >rrO7rOw&                  w23r$7r6 ",
"t >rrO7rOr-                  r43r$7r6 ",
"t >rrO7rOr-                  r43r$7r6 ",
"t +--.17.4$                  4->7+$-* ",
"t $>>.*-.>+                  >*$-.->- ",
"t >rrO7rOr-                  r43r$7r6 ",
"t >rrO7rOr-                  r43r$7r6 ",
"t >rrO7rOr-                  r43r$7r6 ",
"t *44.-> O.                  O.*>O;4> ",
"t O$$.->Or-                  r4*>O+$+ ",
"t >rrO7rOr-                  r43r$7r6 ",
"t >rrO7rOr-                  r43r$7r6 ",
"t >rrO7r.>+                  >*3r$7r6 ",
"t ;qqO$-                       $-O3q5 ",
"t                                     ",
"tttttttttttttttttttttttttttttttttttttt"
};
