/* XPM */
static char *_8921_245a1e609f8a28ede921b6b6d959d8cb61676349bdfc703f236ce88c8357f8e7[] = {
/* columns rows colors chars-per-pixel */
"20 20 220 2 ",
"   c #F40E12",
".  c #F41313",
"X  c #F41514",
"o  c #F41614",
"O  c #F41913",
"+  c #F42418",
"@  c #F42819",
"#  c #F42E1B",
"$  c #F4301B",
"%  c #F23718",
"&  c #F4321C",
"*  c #F04C1A",
"=  c #F2511E",
"-  c #CB671D",
";  c #CB681C",
":  c #CC681D",
">  c #CE691D",
",  c #CE6B1D",
"<  c #CC681E",
"1  c #CC691F",
"2  c #CD6A1E",
"3  c #CF6F1F",
"4  c #D16C1D",
"5  c #D26D1D",
"6  c #D36F1D",
"7  c #D36F1E",
"8  c #D46F1D",
"9  c #D46F1E",
"0  c #DA691D",
"q  c #D1711D",
"w  c #D2731C",
"e  c #D6711E",
"r  c #D7721F",
"t  c #D6771D",
"y  c #D8731E",
"u  c #D8741E",
"i  c #D9741E",
"p  c #DB761E",
"a  c #DD771E",
"s  c #D67C1F",
"d  c #D97F1D",
"f  c #E8661C",
"g  c #ED681D",
"h  c #E17C1E",
"j  c #E37D1E",
"k  c #F44020",
"l  c #F44120",
"z  c #F44722",
"x  c #F54D24",
"c  c #F54F24",
"v  c #F55125",
"b  c #F55927",
"n  c #CA6920",
"m  c #CB6921",
"M  c #CB6A22",
"N  c #CF6F27",
"B  c #D07029",
"V  c #D47C3A",
"C  c #D67F3F",
"Z  c #F56029",
"A  c #F5632A",
"S  c #F5652A",
"D  c #F5712D",
"F  c #F5742E",
"G  c #F57930",
"H  c #F57B30",
"J  c #F57D31",
"K  c #F57E31",
"L  c #DD871D",
"P  c #DE891C",
"I  c #DE8A1D",
"U  c #DC881F",
"Y  c #DD8A1F",
"T  c #E7811E",
"R  c #E7811F",
"E  c #E8821F",
"W  c #EA841F",
"Q  c #EC851F",
"!  c #ED861F",
"~  c #ED871F",
"^  c #E2881D",
"/  c #E18E1D",
"(  c #E9891F",
")  c #ED881F",
"_  c #E6991C",
"`  c #E99D1C",
"'  c #ECA31D",
"]  c #F4B11C",
"[  c #F4B21C",
"{  c #F9BB1C",
"}  c #F8BA1D",
"|  c #FABC1D",
" . c #FABD1D",
".. c #FBBE1C",
"X. c #F9BC1F",
"o. c #FABE1F",
"O. c #E48124",
"+. c #E98220",
"@. c #EE8520",
"#. c #E08F21",
"$. c #EF8C24",
"%. c #EE8D27",
"&. c #F08324",
"*. c #F2872B",
"=. c #F3862E",
"-. c #E19327",
";. c #F09028",
":. c #F1922A",
">. c #F1932B",
",. c #F2952D",
"<. c #F1972D",
"1. c #F2962E",
"2. c #F29829",
"3. c #F58032",
"4. c #F58232",
"5. c #F58333",
"6. c #F58533",
"7. c #F58633",
"8. c #F58834",
"9. c #F58934",
"0. c #F68D35",
"q. c #F68E36",
"w. c #F09632",
"e. c #F69137",
"r. c #F69337",
"t. c #F69437",
"y. c #F39A31",
"u. c #F39B33",
"i. c #F39C33",
"p. c #F59D35",
"a. c #F69538",
"s. c #F69738",
"d. c #F59B38",
"f. c #F59F38",
"g. c #F69D3A",
"h. c #F69E3A",
"j. c #F6B723",
"k. c #FAB920",
"l. c #FBBD22",
"z. c #F8BD25",
"x. c #F8B22C",
"c. c #F6A734",
"v. c #F6A03A",
"b. c #F6A03B",
"n. c #F6A13B",
"m. c #F6A23A",
"M. c #F6A23B",
"N. c #F6A33B",
"B. c #F7A33B",
"V. c #F7A739",
"C. c #F6A43A",
"Z. c #F6A43B",
"A. c #F6A53B",
"S. c #F6A43C",
"D. c #F7A43C",
"F. c #F6A53C",
"G. c #F7A53C",
"H. c #F7A43D",
"J. c #F6A63C",
"K. c #F6A73C",
"L. c #F6A63D",
"P. c #F6A73D",
"I. c #F7A53F",
"U. c #F6A63E",
"Y. c #F6A63F",
"T. c #F6A83D",
"R. c #F8B63B",
"E. c #FDC21D",
"W. c #FCC424",
"Q. c #FCC425",
"!. c #D88548",
"~. c #DA874A",
"^. c #F69E42",
"/. c #F6A640",
"(. c #F6A741",
"). c #F6A742",
"_. c #F6A845",
"`. c #F7A846",
"'. c #F5A94A",
"]. c #F6AB4E",
"[. c #F6AC4F",
"{. c #F7AB51",
"}. c #F6AC51",
"|. c #F6AC52",
" X c #F6AD56",
".X c #F6AE56",
"XX c #F6AE58",
"oX c #F7AF5F",
"OX c #F7B255",
"+X c #F7B05D",
"@X c #F6B05E",
"#X c #F69C72",
"$X c #F7B162",
"%X c #F6B163",
"&X c #F6B262",
"*X c #F7B761",
"=X c #F7B367",
"-X c #F7B56E",
";X c #F7B66F",
":X c #F5B671",
">X c #F7B670",
",X c #F7B774",
"<X c #F6B775",
"1X c #F7B872",
"2X c #F7B875",
"3X c #F6B877",
"4X c #F7B979",
"5X c #F7BB7F",
"6X c #F9CB68",
"7X c #F8C57B",
"8X c #F6BC81",
"9X c #F6BC82",
"0X c #F7BC82",
"qX c #F8BF8D",
"wX c #F7CC85",
"eX c #F8C297",
"rX c #F8C59F",
"tX c #F8C7A4",
"yX c #F8C8A8",
"uX c None",
/* pixels */
"uXuXuXuXuXuX6XR.x.l.k.j.z.uXuXuXuXuXuXuX",
"uXuXuXuXuX7XOXU.V.c.2.( ^ ' o.uXuXuXuXuX",
"uXuXuXwX*XY.Z.F.F.F.N.,.+.u P } W.uXuXuX",
"uXuX8X&XF.F.F.F.F.F.F.Z.1.W e L  .Q.uXuX",
"uXuX2X/.A.F.N.F.F.F.J.S.d.;.T 4 _ E.uXuX",
"uX9X XXXoX0.Z g.S.F.h.J x =.@.a d { X.uX",
"uX5X/.1X#X$ X z s.P.7.@   l &.R t [ | -.",
":X0X(.).^.& . b F.F.b.k + A <.Q 9 / ..#.",
"3XrX].A.v.G K 4.J.F.M.q.a.e.y.! i q ] Y ",
"<XtX|.A.F.K.P.J.F.F.F.J.J.P.u.~ p : ` U ",
",XyX+XC.F.F.J.J.F.F.F.F.F.L.i.~ p - I s ",
"-XtX=XA.F.T.t.9.T.F.F.F.P.8.*.) y - w 3 ",
"%XeX}.A.S.3.l & F n.J.n.D # % g 7 < B M ",
"|.qX$XC.J.H o   A S.F.F.S   O f , N ~.uX",
"uX;X4XF.J.r.v c 5.P.F.P.6.= * 0 ; C !.uX",
"uX.X>X`.A.N.N.S.n.F.F.F.f.$.j > < V uXuX",
"uXuX@X{.D.D.F.F.F.F.F.N.:.E 6 : < n uXuX",
"uXuXuX[.I.D.D.D.D.G.m.>.E 8 : < M uXuXuX",
"uXuXuXuXuX_.I.H.B.p.%.h 5 : 1 uXuXuXuXuX",
"uXuXuXuXuXuXuX'.w.O.r 2 m M uXuXuXuXuXuX"
};
