/* XPM */
static char *_744_02f16b8638bffc118ba5ce7f33f6d18087efed117a83e99bdbb623d83b7ece25[] = {
/* columns rows colors chars-per-pixel */
"60 60 176 2 ",
"   c #090909",
".  c #150C05",
"X  c gray8",
"o  c gray9",
"O  c #1B1B1B",
"+  c gray11",
"@  c #1D1D1D",
"#  c #1E1E1E",
"$  c #2F1F13",
"%  c #2F2115",
"&  c #27211C",
"*  c #2B221B",
"=  c #29221D",
"-  c #3B2617",
";  c #36261A",
":  c #38271B",
">  c gray13",
",  c #252525",
"<  c gray15",
"1  c #2C2723",
"2  c #2A2724",
"3  c #2F2823",
"4  c #282828",
"5  c gray16",
"6  c #2A2A2A",
"7  c #2B2D2E",
"8  c #2C2C2C",
"9  c #2D2D2D",
"0  c gray18",
"q  c #302823",
"w  c #342A22",
"e  c #392C21",
"r  c #3C2D21",
"t  c #302B28",
"y  c #332F2B",
"u  c #39332F",
"i  c #3E342D",
"p  c #3E372F",
"a  c #2F2F30",
"s  c #2F3030",
"d  c #303031",
"f  c #313131",
"g  c #323232",
"h  c gray20",
"j  c #353535",
"k  c #3C3530",
"l  c #393939",
"z  c #38393A",
"x  c #3B3C3C",
"c  c #3B3C3D",
"v  c #3C3C3C",
"b  c #3C3C3D",
"n  c #3D3E3E",
"m  c #3E3E3E",
"M  c #3F3F3F",
"N  c #43230C",
"B  c #42240E",
"V  c #42250E",
"C  c #4A260B",
"Z  c #4D2A0F",
"A  c #532A0C",
"S  c #512B0F",
"D  c #5C2C0B",
"F  c #5C2F0E",
"G  c #442713",
"H  c #4C2D14",
"J  c #532D11",
"K  c #552E11",
"L  c #512F14",
"P  c #48311D",
"I  c #573012",
"U  c #573013",
"Y  c #553116",
"T  c #583012",
"R  c #583013",
"E  c #583113",
"W  c #593113",
"Q  c #543218",
"!  c #69320B",
"~  c #68330E",
"^  c #68340F",
"/  c #69340F",
"(  c #69350F",
")  c #73370D",
"_  c #71380E",
"`  c #783A0E",
"'  c #7A3B0E",
"]  c #7A3B0F",
"[  c #7B3B0F",
"{  c #7A3C0F",
"}  c #7B3C0F",
"|  c #7C3C0E",
" . c #603413",
".. c #6B3812",
"X. c #6D3C17",
"o. c #6E3D17",
"O. c #653C1B",
"+. c #7F3E10",
"@. c #41352D",
"#. c #503723",
"$. c #503B28",
"%. c #413934",
"&. c #70411C",
"*. c #78431A",
"=. c #724520",
"-. c #724621",
";. c #744620",
":. c #444444",
">. c #454647",
",. c #474849",
"<. c gray29",
"1. c #4B4B4B",
"2. c gray32",
"3. c #535353",
"4. c #525354",
"5. c #535354",
"6. c gray33",
"7. c #545555",
"8. c #545556",
"9. c #5B5C5C",
"0. c #5D5D5D",
"q. c #626363",
"w. c #626364",
"e. c #656565",
"r. c #666767",
"t. c #6D6D6D",
"y. c #814112",
"u. c #884311",
"i. c #884312",
"p. c #8B4412",
"a. c #8B4512",
"s. c #8C4512",
"d. c #8D4512",
"f. c #8B4614",
"g. c #8C4614",
"h. c #8E4714",
"j. c #854A1C",
"k. c #844C1F",
"l. c #8E4A18",
"z. c #8D4E1D",
"x. c #8F4E1D",
"c. c #904B19",
"v. c #91501F",
"b. c #92511F",
"n. c #93511F",
"m. c #93521F",
"M. c #844D21",
"N. c #844D22",
"B. c #875327",
"V. c #885125",
"C. c #875428",
"Z. c #945220",
"A. c #915524",
"S. c #945726",
"D. c #955726",
"F. c #975826",
"G. c #935929",
"H. c #935A2A",
"J. c #945929",
"K. c #965A29",
"L. c #945A2A",
"P. c #955B2A",
"I. c #965B2B",
"U. c #975C2B",
"Y. c #985C2B",
"T. c #995D2B",
"R. c #9A5D2B",
"E. c #9B5E2B",
"W. c #9C5E2B",
"Q. c #985D2C",
"!. c #995E2C",
"~. c #995E2D",
"^. c #9A5F2D",
"/. c #9C5F2C",
"(. c #9D5F2C",
"). c None",
/* pixels */
").).).).).).).).).).).).).).).).).).).).).).).).).).).).).).).).).).).).).).).).).).).).).).).).).).).).).).).).).).).).",
").).).).).).).).).).).).).).).).).).).).).).).).).).).).).).).).).).).).).).).).).).).).).).).).).).).).).).).).).).).).",
").).).).).).).).).).).).).).).).).).).).).).).).).).).).).).).).).).).).).).).).).).).).).).).).).).).).).).).).).).).).",
").).).).).).).).).).).).).).).).).).).).).).).).).).).).).).).).).).).).).).).).).).).).).).).).).).).).).).).).).).).).",
").).).).).).).).).).).).).).).).).).).).).).).).).).).).).).).).).).).).).).).).).).).).).).).).).).).).).).).).).).).).",
").).).).).).).).).).).).).).).).).).).).).).).).).).).).).).).).).).).).).).).).).).).).).).).).).).).).).).).).).).).).",
").).).).).).).).).).).).).).).).).).).).).).).).).).).).).).).).).).).).).).).).).).).).).).).).).).).).).).).).).).).).",
").).).).).).).).).).).).).).).).).).).).).).).).).).).).).).).).).).).).).).).).).).).).).).).).).).).).).).).).).).).).",
").).).).).).).).).).).).).).).).).).).).).).).).).).).).).).).).).).).).).).).).).).).).).).).).).).).).).).).).).).).).",
").).).).).).).).).).).).).).).).).).).).).).).).).).).).).).).).).).).).).).).).).).).).).).).).).).).).).).).).).).).).",
").).).).).).).).).).).).).).).).).).).).).).).).).).).).).).).).).).).).).).).).).).).).).).).).).).).).).).).).).).).).",
").).).).).).).).).).).).).).).).).).).).).).).).).).).X 6 < l > 5   ).).).).).).).).).).).).).).).).).).).).).).).).).).",
").).).).).).).).).).).).).).).).).).).).).).).).).6 9 :.q.>.z 8.0.j 0 > ).).).).).).).).).).).).).).).).).).).).).).).).",
").).).).).).).).).).).).).).).).).).).).).).).).4 e.r.s w : % r & ,.t.<.+ ).).).).).).).).).).).).).).).).).).).).).).).",
").).).).).).).).).).).).).).).).).).).).).).).8 m 1.i J C.i.A.z.( $.y n 2.O ).).).).).).).).).).).).).).).).).).).).).).",
").).).).).).).).).).).).).).).).).).).).).).).2.7.#.k.g.!.f.S.v.c.H.! @.w.@ ).).).).).).).).).).).).).).).).).).).).).).",
").).).).).).).).).).).).).).).).).).).).).).o 9.%.*.F.f.Q.f.S.v.l.U.d.Q M j ).).).).).).).).).).).).).).).).).).).).).).",
").).).).).).).).).).).).).).).).).).).).).).j a N b.S.f.Q.f.S.v.l.U.a.B.p 0.< ).).).).).).).).).).).).).).).).).).).).).",
").).).).).).).).).).).).).).).).).).).).).).3.u ) b.S.f.Q.f.S.v.l.U.p.Y.Y 7.g ).).).).).).).).).).).).).).).).).).).).).",
").).).).).).).).).).).).).).).).).).).).).).v q } b.S.f.Q.f.S.v.l.U.p.R.I x , ).).).).).).).).).).).).).).).).).).).).).",
").).).).).).).).).).).).).).).).).).).).).).f = } b.S.f.Q.f.S.v.l.U.p.R.I d # ).).).).).).).).).).).).).).).).).).).).).",
").).).).).).).).).).).).).).).).).).).).).).5.k ' b.S.f.Q.f.S.v.l.U.u.K.K 4.h ).).).).).).).).).).).).).).).).).).).).).",
").).).).).).).).).).).).).).).).).).).).).).v 3 [ b.S.f.Q.f.S.v.l.L.G e * v , ).).).).).).).).).).).).).).).).).).).).).",
").).).).).).).).).).).).).).).).).).).).).).f = } b.S.f.Q.f.S.v.l.J.- t 2 f # ).).).).).).).).).).).).).).).).).).).).).",
").).).).).).).).).).).).).).).).).).).).).).5.k ' b.S.f.Q.f.S.v.l.U.+.V.Z 5.h ).).).).).).).).).).).).).).).).).).).).).",
").).).).).).).).).).).).).).).).).).).).).).v 3 [ n.D.g.Q.f.S.v.l.U.a.E.R x , ).).).).).).).).).).).).).).).).).).).).).",
").).).).).).).).).).).).).).).).).).).).).).f = } j.N.y.Q.f.S.v.l.U.p.R.I d # ).).).).).).).).).).).).).).).).).).).).).",
").).).).).).).).).).).).).).).).).).).).).).5.k ] C . F ~.f.S.v.l.U.p.R.E 4.h ).).).).).).).).).).).).).).).).).).).).).",
").).).).).).).).).).).).).).).).).).).).).).v 3 ` L O.A ~.f.S.v.l.U.p.R.U x , ).).).).).).).).).).).).).).).).).).).).).",
").).).).).).).).).).).).).).).).).).).).).).f = {  .H ^ !.f.S.v.l.U.p.R.I d # ).).).).).).).).).).).).).).).).).).).).).",
").).).).).).).).).).).).).).).).).).).).).).5.k ' x.M.f.Q.f.S.v.l.U.p.R.E 4.h ).).).).).).).).).).).).).).).).).).).).).",
").).).).).).).).).).).).).).).).).).).).).).v 3 [ b.D.f.Q.f.S.v.l.U.p.R.U x , ).).).).).).).).).).).).).).).).).).).).).",
").).).).).).).).).).).).).).).).).).).).).).f = } b.S.f.Q.f.S.v.l.U.p.R.I d # ).).).).).).).).).).).).).).).).).).).).).",
").).).).).).).).).).).).).).).).).).).).).).5.k ' b.S.f.Q.f.S.v.l.U.p.R.E 4.h ).).).).).).).).).).).).).).).).).).).).).",
").).).).).).).).).).).).).).).).).).).).).).v 3 [ b.S.f.Q.f.S.v.l.U.s.W.T x , ).).).).).).).).).).).).).).).).).).).).).",
").).).).).).).).).).).).).).).).).).).).).).f = } b.S.f.Q.f.S.v.l.P.S P $ f # ).).).).).).).).).).).).).).).).).).).).).",
").).).).).).).).).).).).).).).).).).).).).).5.k ' b.S.f.Q.f.S.v.l.G.; 7 8 6.h ).).).).).).).).).).).).).).).).).).).).).",
").).).).).).).).).).).).).).).).).).).).).).v 3 [ b.S.f.Q.f.S.v.l.I._ ;.B c , ).).).).).).).).).).).).).).).).).).).).).",
").).).).).).).).).).).).).).).).).).).).).).f = } b.S.f.Q.f.S.v.l.U.s.(.E d # ).).).).).).).).).).).).).).).).).).).).).",
").).).).).).).).).).).).).).).).).).).).).).5.k | Z.F.h.^.h.F.m.c.T.d./.W 4.h ).).).).).).).).).).).).).).).).).).).).).",
").).).).).).).).).).).).).).).).).).).).).).b 1 D o.&./ -./ &.X...=.~ ;.V b , ).).).).).).).).).).).).).).).).).).).).).",
").).).).).).).).).).).).).).).).).).).).).).).).).).).).).).).).).).).).).).).).).).).).).).).).).).).).).).).).).).).).",
").).).).).).).).).).).).).).).).).).).).).).).).).).).).).).).).).).).).).).).).).).).).).).).).).).).).).).).).).).).).",
").).).).).).).).).).).).).).).).).).).).).).).).).).).).).).).).).).).).).).).).).).).).).).).).).).).).).).).).).).).).",
").).).).).).).).).).).).).).).).).).).).).).).).).).).).).).).).).).).).).).).).).).).).).).).).).).).).).).).).).).).).",
").).).).).).).).).).).).).).).).).).).).).).).).).).).).).).).).).).).).).).).).).).).).).).).).).).).).).).).).).).).).",
").).).).).).).).).).).).).).).).).).).).).).).).).).).).).).).).).).).).).).).).).).).).).).).).).).).).).).).).).).).).",
").).).).).).).).).).).).).).).).).).).).).).).).).).).).).).).).).).).).).).).).).).).).).).).).).).).).).).).).).).).).",
").).).).).).).).).).).).).).).).).).).).).).).).).).).).).).).).).).).).).).).).).).).).).).).).).).).).).).).).).).).).",
").).).).).).).).).).).).).).).).).).).).).).).).).).).).).).).).).).).).).).).).).).).).).).).).).).).).).).).).).).).).",
").).).).).).).).).).).).).).).).).).).).).).).).).).).).).).).).).).).).).).).).).).).).).).).).).).).).).).).).).).).).",
").).).).).).).).).).).).).).).).).).).).).).).).).).).).).).).).).).).).).).).).).).).).).).).).).).).).).).).).).).).).",
").).).).).).).).).).).).).).).).).).).).).).).).).).).).).).).).).).).).).).).).).).).).).).).).).).).).).).).).).).).).",
").).).).).).).).).).).).).).).).).).).).).).).).).).).).).).).).).).).).).).).).).).).).).).).).).).).).).).).).).).).).",
").).).).).).).).).).).).).).).).).).).).).).).).).).).).).).).).).).).).).).).).).).).).).).).).).).).).).).).).).).).).",
").).).).).).).).).).).).).).).).).).).).).).).).).).).).).).).).).).).).).).).).).).).).).).).).).).).).).).).).).).).).",
").).).).).).).).).).).).).).).).).).).).).).).).).).).).).).).).).).).).).).).).).).).).).).).).).).).).).).).).).).).).",
").).).).).).).).).).).).).).).).).).).).).).).).).).).).).).).).).).).).).).).).).).).).).).).).).).).).).).).).).).).).",
").).).).).).).).).).).).).).).).).).).).).).).).).).).).).).).).).).).).).).).).).).).).).).).).).).).).).).).).).).).).",
").).).).).).).).).).).).).).).).).).).).).).).).).).).).).).).).).).).).).).).).).).).).).).).).).).).).).).).).).).).)."
};
