/* XPM */
static char *_633_f13a940fdd05fe7edce3a4076b46c17f02408cc97e7d29f43dff3b1873349a72[] = {
/* columns rows colors chars-per-pixel */
"34 36 151 2 ",
"   c #323337",
".  c #34373E",
"X  c #3C3C3C",
"o  c #373C4C",
"O  c #383E51",
"+  c #3F424E",
"@  c #434344",
"#  c #414248",
"$  c #4D4D4D",
"%  c #4D4E50",
"&  c #647459",
"*  c #444C66",
"=  c #4E546D",
"-  c #545762",
";  c #404C76",
":  c #414D79",
">  c #545D75",
",  c #685B66",
"<  c #5F6F64",
"1  c #5D6F76",
"2  c #58687A",
"3  c #5F7079",
"4  c #647669",
"5  c #6A7D6C",
"6  c #637573",
"7  c #6C7F71",
"8  c #62747D",
"9  c #974920",
"0  c #7B9244",
"q  c #788B53",
"w  c #6C8163",
"e  c #748763",
"r  c #758862",
"t  c #798D63",
"y  c #77897F",
"u  c #748674",
"i  c #82974E",
"p  c #869B49",
"a  c #8A9B49",
"s  c #81955D",
"d  c #8FA356",
"f  c #8CA259",
"g  c #95AB54",
"h  c #98AE52",
"j  c #95AB58",
"k  c #9BB255",
"l  c #9FB558",
"z  c #A0B757",
"x  c #A1B857",
"c  c #A0B758",
"v  c #A4BC5A",
"b  c #83976A",
"n  c #879A6D",
"m  c #899C65",
"M  c #869972",
"N  c #81957B",
"B  c #849878",
"V  c #91A761",
"C  c #A7BC7B",
"Z  c #A9C25D",
"A  c #ACC464",
"S  c #B3CC64",
"D  c #B7D167",
"F  c #BAD36A",
"G  c #B3CA70",
"H  c #B9CF71",
"J  c #BAD073",
"K  c #BFD870",
"L  c #BAD178",
"P  c #C1DA74",
"I  c #C0D778",
"U  c #C5DD7B",
"Y  c #C7E07B",
"T  c #C8E07B",
"R  c #465484",
"E  c #485786",
"W  c #4A5985",
"Q  c #485788",
"!  c #4C5B8B",
"~  c #545E82",
"^  c #525F8C",
"/  c #4E5E91",
"(  c #505F91",
")  c #526382",
"_  c #52628C",
"`  c #5D678B",
"'  c #57698A",
"]  c #5D6E8A",
"[  c #536394",
"{  c #5E6F96",
"}  c #566699",
"|  c #59679B",
" . c #5A6A9C",
".. c #5B6692",
"X. c #5F7093",
"o. c #636B87",
"O. c #616B8C",
"+. c #687987",
"@. c #6A718C",
"#. c #72778E",
"$. c #777B8B",
"%. c #616D94",
"&. c #606E9C",
"*. c #6C7590",
"=. c #64719B",
"-. c #687398",
";. c #747A94",
":. c #7B7F91",
">. c #5D6DA3",
",. c #5F70A6",
"<. c #606FA4",
"1. c #6171A6",
"2. c #6C79A7",
"3. c #6374AC",
"4. c #6877AD",
"5. c #6778AE",
"6. c #6879AF",
"7. c #6778B0",
"8. c #6B7CB3",
"9. c #817288",
"0. c #7C8398",
"q. c #73849E",
"w. c #6F80B7",
"e. c #6F80B8",
"r. c #7384BB",
"t. c #828082",
"y. c #898686",
"u. c #81838E",
"i. c #89878B",
"p. c #8E8B8B",
"a. c #918E8E",
"s. c #809380",
"d. c #828493",
"f. c #8D8D92",
"g. c #8B8E99",
"h. c #849791",
"j. c #8D909B",
"k. c #959393",
"l. c #999797",
"z. c #96969A",
"x. c #9C9B9B",
"c. c #A09F9F",
"v. c #8D8BA9",
"b. c #9B9CA1",
"n. c #A6A6A6",
"m. c #CDE584",
"M. c #D1E789",
"N. c #D5ED8C",
"B. c #D9F08F",
"V. c #E1F898",
"C. c None",
/* pixels */
"C.C.C.C.C.C.C.C.C.J C.C.C.C.C.C.C.C.C.C.C.C.C.C.C.C.C.C.C.C.C.C.C.C.",
"C.C.C.C.C.M.m.L s.C q.6.,.} C.C.C.C.C.C.C.C.C.C.C.C.C.C.C.C.C.C.C.C.",
"C.C.C.C.J M.Y K A 0.B 4. .: C.C.C.C.C.C.C.C.C.C.C.C.C.C.C.C.C.C.C.C.",
"C.C.C.C.c D D A N N m &.[ C.C.} 1. .C.C.C.C.C.C.C.C.C.C.C.C.C.C.C.C.",
"C.C.C.C.C.k A V { >.( ! ! >.7.8.1.C.C.C.C.C.C.C.C.C.C.C.C.C.C.C.C.C.",
"C.C.C.C.C.C.C.p & Q ( 7.8.3.3.3.W C.C.C.C.C.C.C.m.N.I C.C.C.C.C.C.C.",
"C.C.C.C.C.6.C.C./ 3.8.v.;.3.3.3.8.r.r. .C.C.C.U N.M.T A C.C.C.C.C.C.",
"C.C.C.C.1.8.7.>.7.8.9.9 , 3.3.3.3.3.} C.C.C.c P P K D D c C.C.C.C.C.",
"C.C.C.C.} >.3.3.7.3.7.3.3.7.7.3.>.: [ 1.6.[ c D D D D D k C.C.C.C.C.",
"C.C.C.C.} 3.7.3.8.4.3.<.6.8.8.e.! ! 4.6.} C.j S D D S Z x C.C.C.C.C.",
"C.C.C.C.E ( R R W C.' t +.3.3.1.! ! } [ ! 8.d Z Z Z v v c q C.C.C.C.",
"C.C.C.C.C.C.C.C.i 0 5 w >.>.} ( W } 8.8. .>.e c f v Z f c r ! C.C.C.",
"C.C.G V.B.A X.] { { >.3. ./ ^ ! [ 1.3.7.r.3._ ) 1 j d [ 8 1 / E C.C.",
"C.C.U B.m.P y 1. .( ( E ~ $.k.f.%.3.3.3.3.8. .2 h 6 5 M b / ! R C.C.",
"C.l D F D D A 2 ; C.C.E [ f.l.c.b.>.3.3.3.3.,./ 6 u n w 7 E R C.C.C.",
"C.a S D D S j 6 < C.! } [ z.n.n.n.d. .3.,.,.>./ ! w t ( ! Q ! C.C.C.",
"C.C.h Z v l r ' 6 } 3.3. .b.n.n.n.n.~ W Q Q R R R Q W Q W / 3.~ C.C.",
"C.C.C.h s 6 4 } 3.3.3.>.O.n.n.n.n.n.0.>.>.[ ! 3.( E E R E } 3.o.C.C.",
"C.C.C.C.) 8 j ] 3.3. .! u.n.n.n.n.n.n.%.3.>.[ / _ E C.! } 3.3.@.C.C.",
"C.C.C.C.C.Q ) / } ! : [ d.n.n.n.n.n.n.0.3.3.3.,.} [ /  . .3.>.@.C.C.",
"C.C.C.C.C.C.E W ! [ r.6.l.n.n.n.n.n.n.b.>.3.3.3. .>.[ >.3.3.[ g.C.C.",
"C.C.C.C.C.C.C.C.} 8.8.2.l.n.n.n.n.n.n.-.3.8.e.8.>.[ ,.3.,.} ` n.C.C.",
"C.C.C.C.C.C.C.C.w.3.3.,.u.n.n.n.n.n.z.,.r.r.8.8.r.3./ } [ ` b.p.C.C.",
"C.C.C.C.C.C.C. .3.3.,.;.a.x.n.n.n.n.j.7.e.7.3.3.3.8.[ Q ;.x.k.C.C.C.",
"C.C.C.C.C.C.C.[ 3.3.1.c.x.a.l.c.n.c.d.1.3.3.3.3.3.3. .z.l.k.C.C.C.C.",
"C.C.C.C.C.C.C.! 3.3.-.n.x.a.l.l.k.l.u.3.3.3.3.3.3.3. .k.k.p.C.C.C.C.",
"C.C.C.C.C.C.C.C.! 3...n.l.C.k.l.l.l.k. .3.3.3.3.3.3. .f.y.C.C.C.C.C.",
"C.C.C.C.C.C.C.C.C.^ 3.=.y.C.C.a.k.l.l.0.,.3.3.3.3.3...t.C.C.C.C.C.C.",
"C.C.C.C.C.C.C.C.[ } 1.3.W C.C.C.C.y.a.k.#.>.>.,.>.} ! C.C.C.C.C.C.C.",
"C.C.C.C.C.C.~ 4. .4.6.>.E C.C.C.C.C.C.C.C.C.>. . .>.} C.C.C.C.C.C.C.",
"C.C.C.C.C.$ % > @ =  .E C.C.C.C.C.C.C.C.C.C.( 3.3.3.3.C.C.C.C.C.C.C.",
"C.C.C.C.C.X X o X . E C.C.C.C.C.C.C.C.C.C.C.C.3.8.3.7.3.| C.C.C.C.C.",
"C.C.C.C.C.C.C.C.C.C.C.C.C.C.C.C.C.C.C.C.C.C.C.` 2.>.w. .%.> C.C.C.C.",
"C.C.C.C.C.C.C.C.C.C.C.C.C.C.C.C.C.C.C.C.C.C.C.@ @ * % - + $ C.C.C.C.",
"C.C.C.C.C.C.C.C.C.C.C.C.C.C.C.C.C.C.C.C.C.C.@ X   + X @ o X C.C.C.C.",
"C.C.C.C.C.C.C.C.C.C.C.C.C.C.C.C.C.C.C.C.C.C.C.C.C.C.C.C.C.C.C.C.C.C."
};
