/* XPM */
static char *_787_a118e7d237dc405fb253d3ee508ca3e11574e54adacd731abbe8328d82d07fe9[] = {
/* columns rows colors chars-per-pixel */
"60 60 172 2 ",
"   c #000001",
".  c #020F06",
"X  c #0C0705",
"o  c #150C09",
"O  c #041F0B",
"+  c #031004",
"@  c #1C1209",
"#  c #26160E",
"$  c #311B0E",
"%  c #251410",
"&  c #291E11",
"*  c #371F18",
"=  c #341D10",
"-  c #062209",
";  c #062E10",
":  c #093C14",
">  c #073613",
",  c #292519",
"<  c #392010",
"1  c #25351D",
"2  c #303E19",
"3  c #172636",
"4  c #352D24",
"5  c #563118",
"6  c #44261A",
"7  c #4A2920",
"8  c #542F20",
"9  c #693B20",
"0  c #0D420D",
"q  c #0A4B19",
"w  c #0D571B",
"e  c #274715",
"r  c #2D771F",
"t  c #0D5C20",
"y  c #107B29",
"u  c #286C26",
"i  c #346525",
"p  c #357B34",
"a  c #3D7622",
"s  c #75661A",
"d  c #415E24",
"f  c #585923",
"g  c #5A4F22",
"h  c #734120",
"j  c #7D4D29",
"k  c #6A5826",
"l  c #4E6824",
"z  c #5A7224",
"x  c #4A6B39",
"c  c #7F7B3B",
"v  c #253D56",
"b  c #315273",
"n  c #52495E",
"m  c #695748",
"M  c #705B5B",
"N  c #756652",
"B  c #7F6A52",
"V  c #5C6179",
"C  c #4A4B6E",
"Z  c #84581C",
"A  c #967118",
"S  c #85562C",
"D  c #8C5B2C",
"F  c #885A36",
"G  c #8D6739",
"H  c #916534",
"J  c #976C38",
"K  c #9E7638",
"L  c #957432",
"P  c #A07837",
"I  c #976C48",
"U  c #936744",
"Y  c #9C7249",
"T  c #82725B",
"R  c #836A52",
"E  c #A47B41",
"W  c #A2794B",
"Q  c #A37A55",
"!  c #947E63",
"~  c #1C8529",
"^  c #288F29",
"/  c #228A29",
"(  c #368526",
")  c #2F9429",
"_  c #359A29",
"`  c #3B9F29",
"'  c #4C9C1F",
"]  c #76A518",
"[  c #4D8B27",
"{  c #489826",
"}  c #41A429",
"|  c #418941",
" . c #808000",
".. c #86BD14",
"X. c #97813E",
"o. c #A48221",
"O. c #AF8B39",
"+. c #BB9C31",
"@. c #A99932",
"#. c #AFA12E",
"$. c #BFBA22",
"%. c #C6AC28",
"&. c #CBB228",
"*. c #D1BD20",
"=. c #DCB739",
"-. c #C1A33A",
";. c #DCCF08",
":. c #DBCB19",
">. c #E8DE10",
",. c #E8D71B",
"<. c #F4EF08",
"1. c #E7F405",
"2. c #FFFF00",
"3. c #FAF507",
"4. c #F3E01F",
"5. c #F7EA14",
"6. c #ECE111",
"7. c #DAC422",
"8. c #EACB33",
"9. c #EED529",
"0. c #9F875A",
"q. c #AC8146",
"w. c #B98D47",
"e. c #AC855B",
"r. c #BB945D",
"t. c #B08953",
"y. c #80B950",
"u. c #BC9764",
"i. c #BC9770",
"p. c #B5A069",
"a. c #C39449",
"s. c #D09F4B",
"d. c #DEAC52",
"f. c #D6A650",
"g. c #D5AB43",
"h. c #E3BA45",
"j. c #C29E6C",
"k. c #D1B07F",
"l. c #32529C",
"z. c #0074A0",
"x. c #4C66A0",
"c. c #00BAFF",
"v. c #9A999B",
"b. c #838791",
"n. c #B1B29A",
"m. c #909CBF",
"M. c #9F9FA0",
"N. c #9BB6AD",
"B. c #CBA882",
"V. c #D4B48B",
"C. c #DBBC94",
"Z. c #C0B4A5",
"A. c #80DC80",
"S. c #DFC097",
"D. c #E4C59D",
"F. c #CCC4BB",
"G. c #D2C4AF",
"H. c #E9CCA3",
"J. c #EFD3AA",
"K. c #ECD0A7",
"L. c #F4D8AD",
"P. c #F8DCB3",
"I. c #FFE6BD",
"U. c #A5B0CB",
"Y. c #C3DEC9",
"T. c #CDCDD1",
"R. c #FDE9C7",
"E. c #CCD4E6",
"W. c #EEE7E3",
"Q. c #FEFEFE",
"!. c #FFFBF7",
"~. c None",
/* pixels */
"~.~.~.~.~.~.~.~.~.~.~.~.~.~.~.~.~.~.~.~.~.~.~.~.~.~.~.~.~.~.~.~.~.~.~.~.~.~.~.~.~.~.~.~.~.~.~.~.~.~.~.~.~.~.~.~.~.~.~.~.",
"~.~.~.~.~.~.~.~.~.~.~.~.~.~.~.~.~.~.~.~.~.~.~.~.~.~.~.~.~.~.~.~.~.~.~.~.~.~.~.~.~.~.~.~.~.~.~.~.~.~.~.~.~.~.~.~.~.~.~.~.",
"~.~.~.~.~.~.~.~.~.~.~.~.~.~.~.~.~.~.~.~.~.~.~.~.~.~.~.~.~.~.~.~.~.~.~.~.~.~.~.~.~.~.~.~.~.~.~.~.~.~.~.~.~.~.~.~.~.~.~.~.",
"~.~.~.~.~.~.~.~.~.~.~.~.~.~.~.~.~.~.~.~.~.~.~.~.~.~.~.~.~.~.~.~.~.~.~.~.~.~.~.~.~.~.~.~.~.~.~.~.~.~.~.~.~.~.~.~.~.~.~.~.",
"~.~.~.~.~.~.~.~.~.~.~.~.~.~.~.~.~.~.~.~.~.~.~.~.~.~.~.~.~.~.~.~.~.~.~.~.~.~.~.~.~.~.~.~.~.~.~.~.~.~.~.~.~.~.~.~.~.~.~.~.",
"~.~.~.~.~.~.~.~.~.~.~.~.~.~.~.~.~.~.~.~.~.~.~.~.~.~.~.~.~.~.~.~.~.~.~.~.~.~.~.~.~.~.~.~.~.~.~.~.~.~.~.~.~.~.~.~.~.~.~.~.",
"~.~.~.~.~.~.~.~.~.~.~.~.~.~.~.~.~.~.~.~.~.~.~.~.~.~.~.~.~.~.~.~.~.~.~.~.~.~.~.~.~.~.~.~.~.~.~.~.~.~.~.~.~.~.~.~.~.~.~.~.",
"~.~.~.~.~.~.~.~.~.~.~.~.~.~.~.~.~.~.~.~.~.~.~.~.~.~.~.~.~.~.~.~.~.~.~.~.~.~.~.~.~.~.~.~.~.~.~.~.~.~.~.~.~.~.~.~.~.~.~.~.",
"~.~.~.~.~.~.~.~.~.~.~.~.~.~.~.~.~.~.~.~.~.~.~.~.~.~.~.~.~.~.~.~.~.~.~.~.~.~.~.~.~.~.~.~.~.~.~.~.~.~.~.~.~.~.~.~.~.~.~.~.",
"~.~.~.~.~.~.~.~.~.~.~.~.~.~.~.~.~.~.~.~.~.~.~.~.~.~.~.~.~.~.~.~.~.~.~.~.~.~.~.~.~.~.~.~.~.~.~.~.~.~.~.~.~.~.~.~.~.~.~.~.",
"~.~.~.~.~.~.~.~.~.~.~.~.~.~.~.~.~.~.~.~.~.~.~.~.~.  : y y y y y y :   ~.~.~.~.~.~.~.~.~.~.~.~.~.~.~.~.~.~.~.~.~.~.~.~.~.",
"~.~.~.~.~.~.~.~.~.~.~.~.~.~.~.~.~.~.~.~.~.~.~.~.~.  : y y y y y y :   ~.~.~.~.~.~.~.~.~.~.~.~.~.~.~.~.~.~.~.~.~.~.~.~.~.",
"~.~.~.~.~.~.~.~.~.~.~.~.~.~.~.~.~.~.~.~.~.~.~.  O y ^ } } } } } } ) y O   ~.~.~.~.~.~.~.~.~.~.~.~.~.~.~.~.~.~.~.~.~.~.~.",
"~.~.~.~.~.~.~.~.~.~.~.~.~.~.~.~.~.~.~.~.~.~.~.O > y / _ _ _ _ _ _ / y > O ~.~.~.~.~.~.~.~.~.~.~.~.~.~.~.~.~.~.~.~.~.~.~.",
"~.~.~.~.~.~.~.~.~.~.~.~.~.~.~.~.~.~.~.~.~.    y y y y y y y y y y y y y y     ~.~.~.~.~.~.~.~.~.~.~.~.~.~.~.~.~.~.~.~.~.",
"~.~.~.~.~.~.~.~.~.~.~.~.~.~.~.~.~.~.~.~.  q q ) ) ) ) ) ) ) ) ) ) ) ) ) ) q :   ~.~.~.~.~.~.~.~.~.~.~.~.~.~.~.~.~.~.~.~.",
"~.~.~.~.~.~.~.~.~.~.~.~.~.~.~.~.~.~.~.    t y ` } } } } } ` ` } } } } } } ~ t     ~.~.~.~.~.~.~.~.~.~.~.~.~.~.~.~.~.~.~.",
"~.~.~.~.~.~.~.~.~.~.~.~.~.~.~.~.~.~.~.    r ` q.#.1.1.1.@.q.X.#.1.$.Y X.X._ r     ~.~.~.~.~.~.~.~.~.~.~.~.~.~.~.~.~.~.~.",
"~.~.~.~.~.~.~.~.~.~.~.~.~.~.~.~.~.~.~.. . a } E #.2.3.<.%.O.q.#.2.:.O.E K } a . . ~.~.~.~.~.~.~.~.~.~.~.~.~.~.~.~.~.~.~.",
"~.~.~.~.~.~.~.~.~.~.~.~.~.~.~.~.~.~.  : y L E E +.2.*.E >.2.P +.2.2.2.+.Y O.c y q   ~.~.~.~.~.~.~.~.~.~.~.~.~.~.~.~.~.~.",
"~.~.~.~.~.~.~.~.~.~.~.~.~.~.~.~.~.~.$ e i q.w.%.&.4.7.%.*.:.%.&.4.,.:.*.%.E L i 2 # R ~.~.~.~.~.~.~.~.~.~.~.~.~.~.~.~.~.",
"~.~.~.~.~.~.~.~.~.~.~.~.~.~.E E V.i.h h h w.d.2.5.d.9.2.+.E 2.5.d.a.E 6.2.E G h h 9 i.V.E E ~.~.~.~.~.~.~.~.~.~.~.~.~.~.",
"~.~.~.~.~.~.~.~.~.~.~.~.~.~.S S J.H.B.e.H 7.4.%.7.4.7.%.O.E 2.6.w.r.j.-.%.:.&.H e.B.D.J.S S ~.~.~.~.~.~.~.~.~.~.~.~.~.~.",
"~.~.~.~.~.~.~.~.~.~.~.~.~.~.h h I.I.I.B.P 6.2.E +.2.*.E E E 2.>.E u.V.t.E 2.>.E k.I.I.I.h h ~.~.~.~.~.~.~.~.~.~.~.~.~.~.",
"~.~.~.~.~.~.~.~.~.~.~.~.~.~.~.~.F Y S.e.j P O.f.h.2.3.<.h.s.Z K B.D.P.r.E h.g.E j.C.U F ~.~.~.~.~.~.~.~.~.~.~.~.~.~.~.~.",
"~.~.~.~.~.~.~.~.~.~.~.~.~.~.~.~.h B Z.0.Z H K d.h.3.3.<.=.s.j U C.H.I.j.q.s.s.O.u.n.U h ~.~.~.~.~.~.~.~.~.~.~.~.~.~.~.~.",
"~.~.~.~.~.~.~.~.~.~.~.~.~.~.~.~.~.~.c.A.2.A h d.d.d.w.E j h V.S.I.I.I.C.V.9 A 2.A.c.~.~.~.~.~.~.~.~.~.~.~.~.~.~.~.~.~.~.",
"~.~.~.~.~.~.~.~.~.~.~.~.~.~.~.~.~.~.z.] 2.o.S G K s.q.H Y I D.H.K.C.k.! T S o.2.] z.~.~.~.~.~.~.~.~.~.~.~.~.~.~.~.~.~.~.",
"~.~.~.~.~.~.~.~.~.~.~.~.~.~.~.~.~.~.   .2.+.P   & Y D h i.V.I.L.V.Q h @   E +.2. .  ~.~.~.~.~.~.~.~.~.~.~.~.~.~.~.~.~.~.",
"~.~.~.~.~.~.~.~.~.~.~.~.~.~.~.~.~.~.  s 9.P S M.b.V m h V.K.I.D.I M C v.M.S K 8.c   ~.~.~.~.~.~.~.~.~.~.~.~.~.~.~.~.~.~.",
"~.~.~.~.~.~.~.~.~.~.~.~.~.~.~.~.~.~.  k d.D h Q.E.l.n h C.I.I.C.h n l.E.Q.h F d.k   ~.~.~.~.~.~.~.~.~.~.~.~.~.~.~.~.~.~.",
"~.~.~.~.~.~.~.~.~.~.~.~.~.~.~.~.~.~.~.@ @ o X R.F.l.m.W.R.I.R.R.W.m.l.F.R.X X @ % ~.~.~.~.~.~.~.~.~.~.~.~.~.~.~.~.~.~.~.",
"~.~.~.~.~.~.~.~.~.~.~.~.~.~.~.~.~.~.~.~.      L.G.x.U.!.R.R.I.R.!.U.x.Z.L.      ~.~.~.~.~.~.~.~.~.~.~.~.~.~.~.~.~.~.~.~.",
"~.~.~.~.~.~.~.~.~.~.~.~.~.~.~.~.~.~.~.~.~.    E u.I.I.I.R.R.I.I.I.I.I.r.E     ~.~.~.~.~.~.~.~.~.~.~.~.~.~.~.~.~.~.~.~.~.",
"~.~.~.~.~.~.~.~.~.~.~.~.~.~.~.~.~.~.~.~.~.; ; H Y B.C.J.J.J.J.J.J.S.B.W H ; - ~.~.~.~.~.~.~.~.~.~.~.~.~.~.~.~.~.~.~.~.~.",
"~.~.~.~.~.~.~.~.~.~.~.~.~.~.~.~.~.~.~.    t y h h h Q V.V.V.V.V.V.Q h 9 h y t     ~.~.~.~.~.~.~.~.~.~.~.~.~.~.~.~.~.~.~.",
"~.~.~.~.~.~.~.~.~.~.~.~.~.~.~.~.~.~.  3 v N.Y.e e u p [ | | [ | | p u e e Y.n.$ %   ~.~.~.~.~.~.~.~.~.~.~.~.~.~.~.~.~.~.",
"~.~.~.~.~.~.~.~.~.~.~.~.~.~.~.~.~.~.  3 b E.!.0 w y y y y y y y y y y w 0 !.T.7 %   ~.~.~.~.~.~.~.~.~.~.~.~.~.~.~.~.~.~.",
"~.~.~.~.~.~.~.~.~.~.~.~.~.~.~.~.  @ h h h @   h g y y y y y y y y y y g h   @ h 9 h @   ~.~.~.~.~.~.~.~.~.~.~.~.~.~.~.~.",
"~.~.~.~.~.~.~.~.~.~.~.~.~.~.~.~.  % G G U & + k f u u u _ { { { u u u f k + , U U G #   ~.~.~.~.~.~.~.~.~.~.~.~.~.~.~.~.",
"~.~.~.~.~.~.~.~.~.~.~.~.~.~.~.~.  4 V.K.R.x 0 } [ h h 9 ;.2.2.;.h h h [ } 0 x R.H.V.4   ~.~.~.~.~.~.~.~.~.~.~.~.~.~.~.~.",
"~.~.~.~.~.~.~.~.~.~.~.~.~.~.~.~.  , m N T 1 - ^ ( z l d ] ....] d l z ( ^ - 1 B N m , ~.~.~.~.~.~.~.~.~.~.~.~.~.~.~.~.~.",
"~.~.~.~.~.~.~.~.~.~.~.~.~.~.~.~.~.~.          y ~ } ^ y y y y y y ) } ~ y           ~.~.~.~.~.~.~.~.~.~.~.~.~.~.~.~.~.~.",
"~.~.~.~.~.~.~.~.~.~.~.~.~.~.~.~.~.~.~.~.~.    O : ~ ) _ _ _ _ _ _ ^ ~ > -     ~.~.~.~.~.~.~.~.~.~.~.~.~.~.~.~.~.~.~.~.~.",
"~.~.~.~.~.~.~.~.~.~.~.~.~.~.~.~.~.~.~.~.~.      O y ^ } } } } } } ^ y O       ~.~.~.~.~.~.~.~.~.~.~.~.~.~.~.~.~.~.~.~.~.",
"~.~.~.~.~.~.~.~.~.~.~.~.~.~.~.~.~.~.~.    5 h 7 <                     * 7 h 5     ~.~.~.~.~.~.~.~.~.~.~.~.~.~.~.~.~.~.~.",
"~.~.~.~.~.~.~.~.~.~.~.~.~.~.~.~.~.~.~.    5 h 8 6 o X             X o 6 8 h 5     ~.~.~.~.~.~.~.~.~.~.~.~.~.~.~.~.~.~.~.",
"~.~.~.~.~.~.~.~.~.~.~.~.~.~.~.~.~.~.~.    5 h h 9 7 %   ~.~.~.~.  % 7 9 h h 5   ~.~.~.~.~.~.~.~.~.~.~.~.~.~.~.~.~.~.~.~.",
"~.~.~.~.~.~.~.~.~.~.~.~.~.~.~.~.~.~.~.~.  $ < < = % o   ~.~.~.~.  o % * = < = ~.~.~.~.~.~.~.~.~.~.~.~.~.~.~.~.~.~.~.~.~.",
"~.~.~.~.~.~.~.~.~.~.~.~.~.~.~.~.~.~.~.~.~.            ~.~.~.~.~.~.            ~.~.~.~.~.~.~.~.~.~.~.~.~.~.~.~.~.~.~.~.~.",
"~.~.~.~.~.~.~.~.~.~.~.~.~.~.~.~.~.~.~.~.~.~.~.~.~.~.~.~.~.~.~.~.~.~.~.~.~.~.~.~.~.~.~.~.~.~.~.~.~.~.~.~.~.~.~.~.~.~.~.~.",
"~.~.~.~.~.~.~.~.~.~.~.~.~.~.~.~.~.~.~.~.~.~.~.~.~.~.~.~.~.~.~.~.~.~.~.~.~.~.~.~.~.~.~.~.~.~.~.~.~.~.~.~.~.~.~.~.~.~.~.~.",
"~.~.~.~.~.~.~.~.~.~.~.~.~.~.~.~.~.~.~.~.~.~.~.~.~.~.~.~.~.~.~.~.~.~.~.~.~.~.~.~.~.~.~.~.~.~.~.~.~.~.~.~.~.~.~.~.~.~.~.~.",
"~.~.~.~.~.~.~.~.~.~.~.~.~.~.~.~.~.~.~.~.~.~.~.~.~.~.~.~.~.~.~.~.~.~.~.~.~.~.~.~.~.~.~.~.~.~.~.~.~.~.~.~.~.~.~.~.~.~.~.~.",
"~.~.~.~.~.~.~.~.~.~.~.~.~.~.~.~.~.~.~.~.~.~.~.~.~.~.~.~.~.~.~.~.~.~.~.~.~.~.~.~.~.~.~.~.~.~.~.~.~.~.~.~.~.~.~.~.~.~.~.~.",
"~.~.~.~.~.~.~.~.~.~.~.~.~.~.~.~.~.~.~.~.~.~.~.~.~.~.~.~.~.~.~.~.~.~.~.~.~.~.~.~.~.~.~.~.~.~.~.~.~.~.~.~.~.~.~.~.~.~.~.~.",
"~.~.~.~.~.~.~.~.~.~.~.~.~.~.~.~.~.~.~.~.~.~.~.~.~.~.~.~.~.~.~.~.~.~.~.~.~.~.~.~.~.~.~.~.~.~.~.~.~.~.~.~.~.~.~.~.~.~.~.~.",
"~.~.~.~.~.~.~.~.~.~.~.~.~.~.~.~.~.~.~.~.~.~.~.~.~.~.~.~.~.~.~.~.~.~.~.~.~.~.~.~.~.~.~.~.~.~.~.~.~.~.~.~.~.~.~.~.~.~.~.~.",
"~.~.~.~.~.~.~.~.~.~.~.~.~.~.~.~.~.~.~.~.~.~.~.~.~.~.~.~.~.~.~.~.~.~.~.~.~.~.~.~.~.~.~.~.~.~.~.~.~.~.~.~.~.~.~.~.~.~.~.~.",
"~.~.~.~.~.~.~.~.~.~.~.~.~.~.~.~.~.~.~.~.~.~.~.~.~.~.~.~.~.~.~.~.~.~.~.~.~.~.~.~.~.~.~.~.~.~.~.~.~.~.~.~.~.~.~.~.~.~.~.~."
};
