/* XPM */
static char *faed7f2a2e464397862bed00c6970741HangUocXeqErSJie[] = {
/* columns rows colors chars-per-pixel */
"44 60 195 2 ",
"   c None",
".  c #2D121B",
"X  c #3A1211",
"o  c #382B18",
"O  c #0F1624",
"+  c #0F192C",
"@  c #101723",
"#  c #1A1B2B",
"$  c #0F1F39",
"%  c #151D33",
"&  c #2E1735",
"*  c #0F203E",
"=  c #162239",
"-  c #2E3137",
";  c #501715",
":  c #6C100D",
">  c #6B3119",
",  c #591639",
"<  c #4D122D",
"1  c #720930",
"2  c #690F2B",
"3  c #522E2E",
"4  c #633124",
"5  c #79452A",
"6  c #1C1F40",
"7  c #251F44",
"8  c #0F254A",
"9  c #0F2344",
"0  c #12254B",
"q  c #112855",
"w  c #322A4D",
"e  c #152D64",
"r  c #152D68",
"t  c #13317D",
"y  c #113074",
"u  c #18316E",
"i  c #2D2863",
"p  c #601449",
"a  c #54245F",
"s  c #472665",
"d  c #713360",
"f  c #3B4672",
"g  c #5D514F",
"h  c #625E5E",
"j  c #73584A",
"k  c #786256",
"l  c #5D546F",
"z  c #734279",
"x  c #6D6A6A",
"c  c #6A6462",
"v  c #726E6E",
"b  c #767272",
"n  c #7B7675",
"m  c #7E7A7A",
"M  c #7B7877",
"N  c #8A0503",
"B  c #8E0A06",
"V  c #910F08",
"C  c #94140A",
"Z  c #97180C",
"A  c #9B1D0D",
"S  c #9A1A06",
"D  c #840418",
"F  c #89180E",
"G  c #9E210F",
"H  c #9F2311",
"J  c #952B12",
"K  c #A4290C",
"L  c #AF3F0C",
"P  c #A02512",
"I  c #A42C14",
"U  c #AB3314",
"Y  c #AB3619",
"T  c #AE3B1B",
"R  c #B13E1D",
"E  c #B23D13",
"W  c #B33A08",
"Q  c #930729",
"!  c #BB4308",
"~  c #BF5C0E",
"^  c #B5431F",
"/  c #BC4C1C",
"(  c #A54D1F",
")  c #80492D",
"_  c #895436",
"`  c #925937",
"'  c #965C3B",
"]  c #B64520",
"[  c #BB4C23",
"{  c #B34E25",
"}  c #BD5025",
"|  c #AA502C",
" . c #9F633E",
".. c #A2653F",
"X. c #BE7439",
"o. c #C75A1F",
"O. c #C75B1E",
"+. c #C75209",
"@. c #CE621A",
"#. c #D66A16",
"$. c #DA6E12",
"%. c #D1671A",
"&. c #D36717",
"*. c #DC7213",
"=. c #DB7718",
"-. c #D06B0E",
";. c #E67A0C",
":. c #EA7F09",
">. c #E4770C",
",. c #E47B11",
"<. c #C25522",
"1. c #DA7821",
"2. c #835F50",
"3. c #965F42",
"4. c #9A6A50",
"5. c #A56945",
"6. c #AA6B44",
"7. c #A46B4A",
"8. c #AB6E49",
"9. c #A56640",
"0. c #B3744B",
"q. c #BB794D",
"w. c #AB7555",
"e. c #B87B55",
"r. c #AC724F",
"t. c #817D7D",
"y. c #9F7D68",
"u. c #D07E55",
"i. c #DE811C",
"p. c #EE8306",
"a. c #ED850D",
"s. c #ED880F",
"d. c #F28C0D",
"f. c #EE8910",
"g. c #E98C1C",
"h. c #F49919",
"j. c #ED951B",
"k. c #F9A31C",
"l. c #E78D22",
"z. c #EF9722",
"x. c #FCAB23",
"c. c #F7A422",
"v. c #BF8058",
"b. c #9F8B7C",
"n. c #C38156",
"m. c #C5855B",
"M. c #C9895D",
"N. c #CC8D64",
"B. c #C38864",
"V. c #D3956C",
"C. c #D09167",
"Z. c #D99B72",
"A. c #D49B78",
"S. c #CE916B",
"D. c #DFA27A",
"F. c #DBA277",
"G. c #E1A47D",
"H. c #E1A97E",
"J. c #173886",
"K. c #16398B",
"L. c #1C419D",
"P. c #6B6584",
"I. c #7F7DA2",
"U. c #858282",
"Y. c #8E8B8B",
"T. c #979494",
"R. c #A19E9E",
"E. c #B89B84",
"W. c #AFA095",
"Q. c #A6A4A4",
"!. c #ACABAB",
"~. c #B4B3B3",
"^. c #BBBABA",
"/. c #DDA984",
"(. c #CCAD91",
"). c #E5AA84",
"_. c #E9AE88",
"`. c #ECB18C",
"'. c #E7B186",
"]. c #EDBA92",
"[. c #EFB591",
"{. c #F3BD95",
"}. c #E1BFAA",
"|. c #F5C39A",
" X c #F8C59E",
".X c #F9C89F",
"XX c #F2C097",
"oX c #FCCDA4",
"OX c #F7CCA8",
"+X c #FFD0A7",
"@X c #FFD1A8",
"#X c #CAC9C9",
"$X c #D9D8D8",
"%X c #EAEAEA",
"&X c #F1F1F1",
/* pixels */
"                                                                                        ",
"                                                                                        ",
"                                          ~.                                            ",
"                                          ~.#X                                          ",
"                                          Y.%X                                          ",
"                                          t.$XM #X&X!.R.v                               ",
"                                        c t.b ^.T.t.m                                   ",
"                                t.      b Q.m t.m m     b                               ",
"                            v m m t.x b m m m m m h b U.#X                              ",
"                              h t.Q.m m ~.Y.b m m m U.%X                                ",
"                              x M x m b Y.t.^.b m M x                                   ",
"                                x m m x Q.b.n $XT.v x b                                 ",
"                                v x j k c Y.(.W.b v T.U.                                ",
"                                    h w.A.}.y.A.k                                       ",
"                                      q.e.[.e.B.                                        ",
"                                  F.`.N.3.7.A.                                          ",
"                            {.F. X).e.5.q.v.0.N.V.                                      ",
"                          .X|.XXw./.oXoX@X].n.|.|.'.{.m.                                ",
"                        ' @X@X@XA.Z.@X@X@X@X).+X@X@X{./.`                               ",
"                        ` |.@X`.5 n.`.oX@X@X@XH.@X@XG.q.'                               ",
"                        ' ). X6.' N.8.0.].].).oX`.XX5.9.3.                              ",
"                      5 `.].XX .n.oXoXD.+X.X`.C.{.oX8.G.Z.                              ",
"                      5 H. X X8.q.e.Z.I.].'.OX|.OXm.6.G.V.                              ",
"                       .N.oXD.  # r w J.0 - L.f e * _ n.7.                              ",
"                      0.`.Z._   . %.J = ~ # 4 -.L . : X.8.N.                            ",
"                    ) 9.oXm.        F V 3 ; T 0 I % 6.9.)._.                            ",
"                    ) r. XoX        4 > > < e e # : ..G.`.`.                            ",
"                    ) B.V.oX      B } l.k.=.x.o.x.1.( m.`.`.                            ",
"                      m. X).      Z *.1.c.x.x.,.z.x.a._ V.`.                            ",
"                      e.OXM.    C %.x.k.k.x.x.,.i.x.k.  2.P.l                           ",
"                    O e J.u     ] } k.x.x.x.x./ =.x.x.( + t y                           ",
"                    O q K.q     [ *.x.x.x.x.x.A i.h.x.O.+ r y                           ",
"                      g 4.E.  A } s.x.x.x.x.g.S %.x.k.s.4 C.`.                          ",
"                       .N.oXoX} } k.x.x.x.x.U H l.x.x.j.q.).5.D.                        ",
"                       .C.).` u.O.k.x.x.x.g.C [ ,.x.x.c.` w...).                        ",
"                        m._.V.{ @.x.x.x.k.K N ] <.x.x.x.) ) S.7.                        ",
"                            ( [ f.x.x.x.*.! H [ ^ h.x.x.                                ",
"                          N [ [ f.x.x.d.j.N R [ f.#.x.x.Y                               ",
"                          Y [ [ s.z.d.h.I   [ H *.x.x.d.P                               ",
"                          ] %.P } $.j.R /   [ } C s.s.<.]                               ",
"                        A V $.P $.&.[ +.^   V } } } } [ #.                              ",
"                        [ A +.o.} } $.#.C   I I } >.Y I >.                              ",
"                      N <./ [ p.>.p.:.Y     ] ] Y } p.p./                               ",
"                      Z @.U } *.p.:.[     N H Y [ Y <.@.I                               ",
"                    B Y @.K } o.:.[ T     N R [ T [ } } R #.                            ",
"                    T } @.K } <.[ T [     N } G >.I [ } P :.                            ",
"                    R } } >.} } } I }     I [ } } >.E ^ P p.                            ",
"                    R } } ;.Y } B <.!     U H } } } :.:.U *.                            ",
"                    R [ [ ;.H H #.*.G     P [ } Y } } T #.Y                             ",
"                      [ ] <.W <.o.P           A ^ ^ Z R I                               ",
"                      : H ] [ A Y ]             & D 2 2                                 ",
"                      @ , D D I B               * 8 8 <                                 ",
"                      @ 8 1 8 $                 O 8 8 6                                 ",
"                      @ 8 1 8 +                   ; o o <                               ",
"                      X = 7 $                     0 8 t s ,                             ",
"                      $ = o X                       Q a t t ,                           ",
"                      * s i 9                                                           ",
"                      7 a t p                                                           ",
"                        z d                                                             ",
"                                                                                        "
};
