/* XPM */
static char *_6400_92b4bbe912fd52bb14417f4c9f11811abe1911a6b4fae3afe50203b37dabde85[] = {
/* columns rows colors chars-per-pixel */
"60 78 179 2 ",
"   c #000000",
".  c #0A0602",
"X  c #0C0906",
"o  c #01010B",
"O  c #0B0B0A",
"+  c #130B03",
"@  c #1A0F04",
"#  c #1E1205",
"$  c #19130E",
"%  c #17100A",
"&  c #02001B",
"*  c #151515",
"=  c #1B1B1B",
"-  c #251506",
";  c #2D1A07",
":  c #351E08",
">  c #241B13",
",  c #23131D",
"<  c #3B2209",
"1  c #36291D",
"2  c #2A2017",
"3  c #080337",
"4  c #031536",
"5  c #2F1A21",
"6  c #242322",
"7  c #2C2C2C",
"8  c #3C342E",
"9  c #343434",
"0  c #3D3D3D",
"q  c #3B3936",
"w  c #460000",
"e  c #790005",
"r  c #43260A",
"t  c #4B2B0B",
"y  c #5B340E",
"u  c #54310D",
"i  c #55310E",
"p  c #63390F",
"a  c #6B3E10",
"s  c #4D3A29",
"d  c #473526",
"f  c #513D2C",
"g  c #6F4011",
"h  c #7F4913",
"j  c #744311",
"k  c #5B4531",
"l  c #634B36",
"z  c #684E38",
"x  c #73563F",
"c  c #041F4C",
"v  c #041C46",
"b  c #070054",
"n  c #07005D",
"m  c #0C044C",
"M  c #05255E",
"N  c #102F5B",
"B  c #3E1F78",
"V  c #0A2F70",
"C  c #072F76",
"Z  c #7B0067",
"A  c #592F73",
"S  c #5D3265",
"D  c #464646",
"F  c #7D5E43",
"G  c #7F4750",
"H  c #7E5C5E",
"J  c #664F45",
"K  c #7F6045",
"L  c #7B4378",
"P  c #696764",
"I  c #8B0000",
"U  c #B20000",
"Y  c #DA0001",
"T  c #F60000",
"R  c #FE0001",
"E  c #F90707",
"W  c #824B13",
"Q  c #894F14",
"!  c #8C5015",
"~  c #8B5018",
"^  c #9B5917",
"/  c #995819",
"(  c #A25D18",
")  c #AD641A",
"_  c #A66019",
"`  c #B1661B",
"'  c #B5681B",
"]  c #BA6B1C",
"[  c #91582A",
"{  c #A45E2B",
"}  c #A26121",
"|  c #BE7329",
" . c #AA6133",
".. c #C06F1D",
"X. c #CB751E",
"o. c #C4711D",
"O. c #CE7722",
"+. c #DB7E21",
"@. c #D77C20",
"#. c #C57B33",
"$. c #816044",
"%. c #8B694B",
"&. c #97704F",
"*. c #A27A57",
"=. c #AB6A46",
"-. c #91506B",
";. c #CB823C",
":. c #E98623",
">. c #EB8723",
",. c #F38C24",
"<. c #F88F25",
"1. c #FE9326",
"2. c #D9D91A",
"3. c #FFFE1F",
"4. c #F1F11D",
"5. c #E7E71C",
"6. c #B28661",
"7. c #B88B64",
"8. c #D08944",
"9. c #DA9453",
"0. c #E29E5F",
"q. c #C9986D",
"w. c #C3936A",
"e. c #DE9F67",
"r. c #D09D71",
"t. c #DAA577",
"y. c #E7A568",
"u. c #E8AC78",
"i. c #F8B87F",
"p. c #F1B075",
"a. c #090884",
"s. c #12009D",
"d. c #0C0199",
"f. c #3F1F8C",
"g. c #073380",
"h. c #0C01A2",
"j. c #0C04AB",
"k. c #0D01BD",
"l. c #0C01B5",
"z. c #170BB1",
"x. c #250FA6",
"c. c #092EA7",
"v. c #2E27BC",
"b. c #590080",
"n. c #512D8D",
"m. c #583CAD",
"M. c #0841A1",
"N. c #6643A4",
"B. c #0D05C0",
"V. c #0D0DC5",
"C. c #0D1FD1",
"Z. c #0D15CB",
"A. c #0B30C1",
"S. c #0D23D4",
"D. c #1235D9",
"F. c #0C42DC",
"G. c #0B58DA",
"H. c #1056CB",
"J. c #2742D5",
"K. c #0D48E9",
"L. c #0C5CE7",
"P. c #135FED",
"I. c #0D56F4",
"U. c #0D58F6",
"Y. c #0D66FF",
"T. c #0F60F1",
"R. c #1669F6",
"E. c #1E6AEE",
"W. c gray69",
"Q. c #BAB8B7",
"!. c #DDA591",
"~. c #EDB280",
"^. c #F4B884",
"/. c #F9BA85",
"(. c #FDBF88",
"). c #FFC08A",
"_. c gainsboro",
"`. c #FFFCFA",
"'. c None",
/* pixels */
"'.'.'.'.'.'.'.'.'.'.'.'.'.'.'.'.'.'.'.'.'.'.'.'.'.'.'.'.'.'.'.'.'.'.'.'.'.'.'.'.'.'.'.'.'.'.'.'.'.'.'.'.'.'.'.'.'.'.'.'.",
"'.'.'.'.'.'.'.'.'.'.'.'.'.'.'.'.'.'.'.'.'.'.'.'.'.'.'.'.'.'.'.'.'.'.'.'.'.'.'.'.'.'.'.'.'.'.'.'.'.'.'.'.'.'.'.'.'.'.'.'.",
"'.'.'.'.'.'.'.'.'.'.'.'.'.'.'.'.'.'.'.'.'.'.'.'.'.'.'.'.'.'.'.'.'.'.'.'.'.'.'.'.'.'.'.'.'.'.'.'.'.'.'.'.'.'.'.'.'.'.'.'.",
"'.'.'.'.'.'.'.'.'.'.'.'.'.'.'.'.'.'.'.'.'.'.'.'.'.'.'.'.'.'.'.'.'.'.'.'.'.'.'.'.'.'.'.'.'.'.'.'.'.'.'.'.'.'.'.'.'.'.'.'.",
"'.'.'.'.'.'.'.'.'.'.'.'.'.'.'.'.'.'.'.'.'.'.'.'.'.'.'.'.'.'.'.'.'.'.'.'.'.'.'.'.'.'.'.'.'.'.'.'.'.'.'.'.'.'.'.'.'.'.'.'.",
"'.'.'.'.'.'.'.'.'.'.'.'.'.'.'.'.'.'.'.'.'.'.'.'.'.'.'.'.'.'.'.'.'.'.'.'.'.'.'.'.'.'.'.'.'.'.'.'.'.'.'.'.'.'.'.'.'.'.'.'.",
"'.'.'.'.'.'.'.'.'.'.'.'.'.'.'.'.'.'.'.'.'.'.'.'.'.'.'.'.'.'.'.'.'.'.'.'.'.'.'.'.'.'.'.'.'.'.'.'.'.'.'.'.'.'.'.'.'.'.'.'.",
"'.'.'.'.'.'.'.'.'.'.'.'.'.'.'.'.'.'.'.'.'.'.'.'.'.'.'.'.'.'.'.'.'.'.'.'.'.'.'.'.'.'.'.'.'.'.'.'.'.'.'.'.'.'.'.'.'.'.'.'.",
"'.'.'.'.'.'.'.'.'.'.'.'.'.'.'.'.'.'.'.'.'.'.'.'.'.'.'.'.'.'.'.'.'.            '.'.'.'.'.'.'.'.'.'.'.'.'.'.'.'.'.'.'.'.'.",
"'.'.'.'.'.'.'.'.'.'.'.'.'.'.'.'.'.'.'.'.'.'.'.'.'.'.'.'.'.'.    * D D     '.'.'.'.'.'.'.'.'.'.'.'.'.'.'.'.'.'.'.'.'.'.'.",
"'.'.'.'.'.'.'.'.'.'.'.'.'.'.'.'.'.'.'.'.'.'.'.'.'.'.'.'.'.  9 9 7 * * '.'.'.'.'.'.'.'.'.'.'.'.'.'.'.'.'.'.'.'.'.'.'.'.'.",
"'.'.'.'.'.'.'.'.'.'.'.'.'.'.'.'.'.'.'.'.'.'.'.'.'.'.'.'.'.O D 0 7     '.'.'.'.'.'.'.'.'.'.'.'.'.'.'.'.'.'.'.'.'.'.'.'.'.",
"'.'.'.'.'.'.'.'.'.'.'.'.'.'.'.'.'.'.'.'.'.'.'.'.'.'.'.  O D D O       '.'.'.'.'.'.'.'.'.'.'.'.'.'.'.'.'.'.'.'.'.'.'.'.'.",
"'.'.'.'.'.'.'.'.'.'.'.'.'.'.'.'.'.'.'.'.'.'.'.'.'.'.'.  O D D O     '.'.'.'.        '.'.'.'.'.'.'.'.'.'.'.'.'.'.'.'.'.'.",
"'.'.'.'.'.'.'.'.'.'.'.'.'.'.'.'.'.'.'.'.'.'.'.'.'.'.  7 0 D O       '.'.'.  0 0 0 9     '.'.'.'.'.'.'.'.'.'.'.'.'.'.'.'.",
"'.'.'.'.'.'.'.'.'.'.'.'.'.'.'.'.'.'.'.'.'.'.'.'.'.'.  9 D D         '.'.* * D D D D * * '.'.'.'.'.'.'.'.'.'.'.'.'.'.'.'.",
"'.'.'.'.'.'.'.'.'.'.'.'.'.'.'.'.'.'.'.'.'.'.'.'.'.'.  9 D D         '.  6 D D D D D D D *   '.'.'.'.'.'.'.'.'.'.'.'.'.'.",
"'.'.'.'.'.'.'.'.'.'.'.'.'.'.'.'.'.'.'.'.'.'.'.'.'.'.  9 D D           D D D D D D D D D D q   '.'.'.'.'.'.'.'.'.'.'.'.'.",
"'.'.'.'.'.'.'.'.'.'.'.'.'.'.'.'.'.'.'.'.'.'.'.'.'.'.  9 D D         D D D D D D 6   o           '.'.'.'.'.'.'.'.'.'.'.'.",
"'.'.'.'.'.'.'.'.'.'.'.'.'.'.'.'.'.'.'.'.'.'.'.'.  '.6 0 D 6     O 6 D D D D D 6 O                 '.'.'.'.'.'.'.'.'.'.'.",
"'.'.'.'.'.'.'.'.'.'.'.'.'.'.'.'.'.'.'.'.'.'.'.      D D q       * D D D D D D                       '.'.'.'.'.'.'.'.'.'.",
"'.'.'.'.'.'.'.'.'.'.'.'.'.'.'.'.'.'.'.'.'.'.  7 D D D =             D D 7               '.'.'.'.'.'.'.'.'.'.'.'.'.'.'.'.",
"'.'.'.'.'.'.'.'.'.'.'.'.'.'.'.'.'.'.'.'.'.  D D D D                                 '.'.'.'.'.'.'.'.'.'.'.'.'.'.'.'.'.'.",
"'.'.'.'.'.'.'.'.'.'.'.'.'.'.'.'.'.'.'.'.'.  D 7 * *   6 7                         '.'.'.'.'.'.'.'.'.'.'.'.'.'.'.'.'.'.'.",
"'.'.'.'.'.'.'.'.'.'.'.'.'.'.'.'.'.'.'.'.'.O D =     O 9 0                   O O '.'.'.'.'.'.'.'.'.'.'.'.'.'.'.'.'.'.'.'.",
"'.'.'.'.'.'.'.'.'.'.'.'.'.'.              D D 6     D D 0                   D D =       '.'.'.'.'.'.'.'.'.'.'.'.'.'.'.'.",
"'.'.'.'.'.'.'.'.'.'.'.'.'.'.'.'.'.'.  = D D         D D 0     t.7.            D D D D D O     '.'.'.'.'.'.'.'.'.'.'.'.'.",
"'.'.'.'.'.'.'.'.'.'.'.'.'.'.        9 D D O         O q 0     t./.t.t.X       O O O O O         '.'.'.'.'.'.'.'.'.'.'.'.",
"'.'.'.'.'.'.'.'.'.'.'.'.'.'.* * * * D 0 9           s 9 7 *   t.).).(.k 2                       '.'.'.'.'.'.'.'.'.'.'.'.",
"'.'.'.'.'.'.'.'.'.'.        q D D D D 7             (.s O D   t.).).(.).%.            '.'.'.'.'.'.'.'.'.'.'.'.'.'.'.'.'.",
"'.'.'.'.'.'.'.'.'.'.'.'.'.                  /.F     ).).t.    t.).).).).)./.    '.'.'.'.'.'.'.'.'.'.'.'.'.'.'.'.'.'.'.'.",
"'.'.'.'.'.'.'.'.'.'.'.'.'.'.'.'.            /./.u.  ).f 6 W.W.6 f ).).).)./.        '.'.'.'.'.'.'.'.'.'.'.'.'.'.'.'.'.'.",
"'.'.'.'.'.'.'.'.'.'.'.'.'.'.'.'.            /.)./.K ).s = Q._.0 8 $.).).q.F         '.'.'.'.'.'.'.'.'.'.'.'.'.'.'.'.'.'.",
"'.'.'.'.'.'.'.'.'.'.'.'.'.'.'.'.'.'.'.'.  X ~./.^.).).f 6 Q.`.P q X ).).%.  '.'.    '.'.'.'.'.'.'.'.'.'.'.'.'.'.'.'.'.'.",
"'.'.'.'.'.'.'.'.'.'.'.'.'.'.'.'.'.'.'.'.  ).    O ).).).).).).).).).).).%.  '.'.'.'.'.'.'.'.'.'.'.'.'.'.'.'.'.'.'.'.'.'.",
"'.'.'.'.'.'.'.'.'.'.'.'.'.'.'.'.'.'.'.'.'.          ).).).).).).).).).X   '.'.'.'.'.'.'.'.'.'.'.'.'.'.'.'.'.'.'.'.'.'.'.",
"'.'.'.'.'.'.'.'.'.'.'.'.'.'.'.'.'.'.      W   l 6.6.s s l ).).).).).s     '.'.'.'.'.'.'.'.'.'.'.'.'.'.'.'.'.'.'.'.'.'.'.",
"'.'.'.'.'.'.'.'.'.'.'.'.'.'.'.'.'.'.@ % # ^ - $.t.).> > d t.t.t.t.t.  - - '.'.'.'.'.'.'.'.'.'.'.'.'.'.'.'.'.'.'.'.'.'.'.",
"'.'.'.'.'.'.'.'.'.'.'.'.'.'.'.'.'.  ( ' '   ) u O ).).).t.            ,.~   '.'.'.'.'.'.'.'.'.'.'.'.'.'.'.'.'.'.'.'.'.'.",
"'.'.'.'.'.'.'.'.'.'.'.'.'.'.'.'.'.  j.k.k.'   ! ,.    7.).).).).).).).X j <.  '.'.'.'.'.'.'.'.'.'.'.'.'.'.'.'.'.'.'.'.'.",
"'.'.'.'.'.'.'.'.'.'.'.'.'.'.'.'.  h.I.I.I.x./ ) o.+.  $ > > (.).).).> d.S '   '.'.'.'.'.'.'.'.'.'.'.'.'.'.'.'.'.'.'.'.'.",
"'.'.'.'.'.'.'.'.'.'.'.'.'.'.'.'.  a.D.I.Y.C.G  .X.:.t + o 3 6.6.6.6.M l.A `   '.'.'.'.'.'.'.'.'.'.'.'.'.'.'.'.'.'.'.'.'.",
"'.'.'.'.'.'.'.'.'.'.'.'.'.'.'.'.    j.S.Y.Y.B.-.1.' 1.t & k.        Y.k.A )   '.'.'.'.'.'.'.'.'.'.'.'.'.'.'.'.'.'.'.'.'.",
"'.'.'.'.'.'.'.'.'.'.'.'.    '.'.  (.$ m k.Y.k.-.1.1.1.X.^   k.U.Y.Y.Y.k.L 1.  '.'.'.'.'.'.'.'.'.'.'.'.'.'.'.'.'.'.'.'.'.",
"'.'.'.'.'.'.'.'.'.'.  + ) ^.1     )./.&.o B.o ~ 1.' 1.1.,.)   j.S.Y.B. .` `   '.'.'.'.'.    '.'.'.'.'.'.'.'.'.'.'.'.'.'.",
"'.'.'.'.'.'.'.'.'.'.l F y 9.&.l   9./.r.F n y ` 1.@.h ] +.+.p m a.D.n O.( y K   '.'.'.'.x x '.  '.'.'.'.'.'.'.'.'.'.'.'.",
"'.'.'.'.'.'.'.'.'.X *.u.X ) y.w.X ' i.(./.  _ @.1.1.. h ' 1.] - 3 l.X >.Q . ).O '.'.'.  q.q.  X '.'.'.'.'.'.'.'.'.'.'.'.",
"'.'.'.'.'.'.'.'.  /.8.| (.    1 ).' ^.y.`     p ' ' 1.t % ' 1.1.'   1.] p . ).).l       q.p.' ).$   '.'.'.'.'.'.'.'.'.'.",
"'.'.'.'.'.'.'.'.  (.).).).' - 4 Y.).).*.  '.'.  . ' ' ' ^   ' ` X.1.' X x ).).).N.B.Y.  ! #.).' +   '.'.'.'.'.'.'.'.'.'.",
"'.'.'.'.'.'.'.'.'.s 7./.;.y.[ J Y.).8.[   '.'.'.'.: < : ;   < B n.n.f.o x ).).m.J.F.c 6.e.y.;.y.%   '.'.'.'.'.'.'.'.'.'.",
"'.'.'.'.'.'.'.'.'.  *./.| !.=.%.Y.t.} p   '.'.'.'.  & & & & & j.V.V.V.o l t.).h.K.L.  ).(.p.| t.$   '.'.'.'.'.'.'.'.'.'.",
"'.'.'.'.'.'.'.'.'.  *.(.(.B.B.Z.Y.      '.'.'.'.'.  k.k.k.k.k.U.Y.Y.Y.o   X ).  M.L.  ).).).).  '.'.'.'.'.'.'.'.'.'.'.'.",
"'.'.'.'.'.'.'.'.'.'.              '.'.'.'.'.'.                h.k.B.B.o   '.                  '.'.'.'.'.'.'.'.'.'.'.'.'.",
"'.'.'.'.'.'.'.'.'.'.'.'.'.'.'.'.'.'.'.'.'.'.'.  . ^ ^ ; @ ^ +., 5 [ & O.h   '.'.'.'.'.'.'.'.'.'.'.'.'.'.'.'.'.'.'.'.'.'.",
"'.'.'.'.'.'.'.'.'.'.'.'.'.'.'.'.'.'.'.'.'.'.'.; < ' W t t X.1.- : ' : ,.!   '.'.'.'.'.'.'.'.'.'.'.'.'.'.'.'.'.'.'.'.'.'.",
"'.'.'.'.'.'.'.'.'.'.'.'.'.'.'.'.'.'.'.'.'.'.  p ' '   W ..1.1.- : ' ' 1.!   '.'.'.'.'.'.'.'.'.'.'.'.'.'.'.'.'.'.'.'.'.'.",
"'.'.'.'.'.'.'.'.'.'.'.'.'.'.'.'.'.'.'.'.'.'.  p ' '   ` 1.1.1.- : ` 1.1.1.<.  '.'.'.'.'.'.'.'.'.'.'.'.'.'.'.'.'.'.'.'.'.",
"'.'.'.'.'.'.'.'.'.'.'.'.'.'.'.'.'.'.'.'.'.'.  p ' 1.) :.1.1.1.- : ' 1.1.1.<.  '.'.'.'.'.'.'.'.'.'.'.'.'.'.'.'.'.'.'.'.'.",
"'.'.'.'.'.'.'.'.'.'.'.'.'.'.'.'.'.'.'.'.'.  y ^ :.1.:.>.1.1.1.- : ' 1.1.1.<.  '.'.'.'.'.'.'.'.'.'.'.'.'.'.'.'.'.'.'.'.'.",
"'.'.'.'.'.'.'.'.'.'.'.'.'.'.'.'.'.'.'.'.'.  ` :.<.1.1.1.1.1.1.- : ' 1.1.1.<.  '.'.'.'.'.'.'.'.'.'.'.'.'.'.'.'.'.'.'.'.'.",
"'.'.'.'.'.'.'.'.'.'.'.'.'.'.'.'.'.'.'.'.'.  ) ' ' 1.1.X...1.1.- : ' 1.1.1.<.  '.'.'.'.'.'.'.'.'.'.'.'.'.'.'.'.'.'.'.'.'.",
"'.'.'.'.'.'.'.'.'.'.'.'.'.'.'.'.'.'.'.'.  '   p ' ' ' >.1.1.  ^ ` ' ` 1.1.<.  '.'.'.'.'.'.'.'.'.'.'.'.'.'.'.'.'.'.'.'.'.",
"'.'.'.'.'.'.'.'.'.'.'.'.'.'.'.'.'.'.'.'.  ' ' g : < :.<.1.1.  ^ ' ' ' 1.:.o.  '.'.'.'.'.'.'.'.'.'.'.'.'.'.'.'.'.'.'.'.'.",
"'.'.'.'.'.'.'.'.'.'.'.'.'.'.'.'.'.'.'.'.  ' 1.Q # - 1.1.1.<.  W ( ' ` ,.X./ - '.'.'.'.'.'.'.'.'.'.'.'.'.'.'.'.'.'.'.'.'.",
"'.'.'.'.'.'.'.'.'.'.'.'.'.'.'.'.'.'.'.'.  ' 1.1.1.1.1.1.,.'     : ' ' ' p   1.  '.'.'.'.'.'.'.'.'.'.'.'.'.'.'.'.'.'.'.'.",
"'.'.'.'.'.'.'.'.'.'.'.'.'.'.'.'.'.'.        ` ' ' ' 1.1.,.'   ^ W   ' ' +.1.1.  '.'.'.'.'.'.'.'.'.'.'.'.'.'.'.'.'.'.'.'.",
"'.'.'.'.'.'.'.'.'.'.'.'.'.'.'.'.'.'.  < ^ ^ - @ - ' ] ] _ @ ^ ' ..+.# % W 1.1.  '.'.'.'.'.'.'.'.'.'.'.'.'.'.'.'.'.'.'.'.",
"'.'.'.'.'.'.'.'.'.'.'.'.'.'.'.'.'.'.  r ' ` < r u X.W W a   W ) X.1.t t ^ 1.1.  '.'.'.'.'.'.'.'.'.'.'.'.'.'.'.'.'.'.'.'.",
"'.'.'.'.'.'.'.'.'.'.'.'.'.'.'.'.'.'.  r ' ' ` +.1.1.          ^ O.1.1.1.1.1.1.  '.'.'.'.'.'.'.'.'.'.'.'.'.'.'.'.'.'.'.'.",
"'.'.'.'.'.'.'.'.'.'.'.'.'.'.'.'.'.'.'.'.      p ] 1.1.t   '.  ^ ' ] 1.1.1.1.  '.'.'.'.'.'.'.'.'.'.'.'.'.'.'.'.'.'.'.'.'.",
"'.'.'.'.'.'.'.'.'.'.'.'.'.'.'.'.'.'.  M T.T P.V . . . '.'.'.    X   . . X . '.'.'.'.'.'.'.'.'.'.'.'.'.'.'.'.'.'.'.'.'.'.",
"'.'.'.'.'.'.'.'.'.'.'.'.'.'.'.'.'.'.  M Y.R R.c.n     '.'.'.  V g.C n e w   '.'.'.'.'.'.'.'.'.'.'.'.'.'.'.'.'.'.'.'.'.'.",
"'.'.'.'.'.'.'.'.'.'.'.'.'.'.'.'.'.'.X N E.R E.D.z.  '.'.'.'.  H.R.R.z.E I   '.'.'.'.'.'.'.'.'.'.'.'.'.'.'.'.'.'.'.'.'.'.",
"'.'.'.'.'.'.'.'.'.'.'.'.'.'.'.'.'.  5.3.3.R 3.3.4.  '.'.'.'.  2.3.3.3.E I   '.'.'.'.'.'.'.'.'.'.'.'.'.'.'.'.'.'.'.'.'.'.",
"'.'.'.'.'.'.'.'.'.'.'.'.'.'.'.'.'.  L.N.R Y.k.b   '.'.'.'.'.  G.Y.Y.Y.B.Z T   '.'.'.'.'.'.'.'.'.'.'.'.'.'.'.'.'.'.'.'.'.",
"'.'.'.'.'.'.'.'.'.'.'.'.'.'.'.'.'.  L.N.R C.k.b   '.'.'.'.'.'.c g.Y.Y.K.v.b.U   '.'.'.'.'.'.'.'.'.'.'.'.'.'.'.'.'.'.'.'.",
"'.'.'.'.'.'.'.'.'.'.'.'.'.'.'.'.'.  H.n.Y h.h.b   '.'.'.'.'.'.  v G.G.G.A.s.Y   '.'.'.'.'.'.'.'.'.'.'.'.'.'.'.'.'.'.'.'.",
"'.'.'.'.'.'.'.'.'.'.'.'.'.'.'.'.'.            '.'.'.'.'.'.'.'.'.'.              '.'.'.'.'.'.'.'.'.'.'.'.'.'.'.'.'.'.'.'."
};
